%
M48
M72
T01C0.02362
T02C0.02400
T03C0.03200
T04C0.03900
T05C0.03937
T06C0.04000
T07C0.13500
%
T01
X22741Y42890
X36638Y30370
X46560Y63795
X29079Y86591
X44749Y101118
X11284Y102181
X65221Y166000
X101520Y221118
X106087Y225291
X128174Y181630
X124001Y163638
X128371Y147890
X144552Y173992
X150930Y214425
X147819Y222063
X161638Y222220
X161835Y214780
X180339Y222220
X195221Y232575
X186166Y253244
X192386Y254346
X215930Y220213
X225378Y198638
X176166Y96039
X183371Y87496
X161756Y81157
X149079Y54150
X119512Y83520
X111678Y67929
X108056Y73362
X115300Y55567
X117662Y46709
X107859Y43598
X217347Y42890
X134906Y229110
X156008Y273165
X42465Y280803
T02
X47544Y342811
X47544Y352811
X57544Y352811
X57544Y342811
X81127Y342811
X81127Y352811
X91127Y352811
X91127Y342811
X114237Y342811
X114237Y352811
X124237Y352811
X124237Y342811
X147426Y342811
X147426Y352811
X157426Y352811
X157426Y342811
X180615Y342811
X180615Y352811
X190615Y352811
X190615Y342811
X214158Y342811
X214158Y352811
X224158Y352811
X224158Y342811
X103922Y95646
X83922Y95646
T03
X70693Y52299
X40693Y52299
X126953Y63756
X136953Y63756
X146953Y63756
X156953Y63756
X166953Y63756
X176953Y63756
X186953Y63756
X196953Y63756
X196953Y33756
X186953Y33756
X176953Y33756
X166953Y33756
X156953Y33756
X146953Y33756
X136953Y33756
X126953Y33756
X125221Y233402
X125221Y243402
X125221Y253402
X125221Y263402
X125221Y273402
X125221Y283402
X125221Y293402
X95221Y293402
X95221Y283402
X95221Y273402
X95221Y263402
X95221Y253402
X95221Y243402
X95221Y233402
T04
X95890Y191276
X85890Y191276
X75890Y191276
X65890Y191276
X55890Y191276
X45890Y191276
X35890Y191276
X25890Y191276
X25890Y131276
X35890Y131276
X45890Y131276
X55890Y131276
X65890Y131276
X75890Y131276
X85890Y131276
X95890Y131276
X105890Y131276
X115890Y131276
X125890Y131276
X135890Y131276
X145890Y131276
X155890Y131276
X165890Y131276
X175890Y131276
X185890Y131276
X195890Y131276
X205890Y131276
X215890Y131276
X215890Y191276
X205890Y191276
X195890Y191276
X185890Y191276
X175890Y191276
X165890Y191276
X155890Y191276
X145890Y191276
X135890Y191276
X125890Y191276
X115890Y191276
X105890Y191276
T05
X20457Y275764
X20457Y295449
X51166Y20606
X70851Y20606
X92701Y20646
X112386Y20646
T06
X136953Y15409
X146953Y15409
X156953Y15409
X166953Y15409
X176953Y15409
X186953Y15409
X193248Y79265
X193248Y97065
X195733Y116512
X205733Y116512
X215733Y116512
X218848Y97065
X218848Y79265
X185733Y116512
X175733Y116512
X165733Y116512
X155733Y116512
X145733Y116512
X135733Y116512
X125733Y116512
X115733Y116512
X105733Y116512
X95733Y116512
X85733Y116512
X75733Y116512
X65733Y116512
X55733Y116512
X45733Y116512
X35733Y116512
X25733Y116512
X19709Y76787
X19709Y66787
X19709Y56787
X26127Y204307
X36127Y204307
X46127Y204307
X56127Y204307
X66127Y204307
X76127Y204307
X86127Y204307
X96127Y204307
X106127Y204307
X116127Y204307
X126127Y204307
X136127Y204307
X146127Y204307
X156127Y204307
X166127Y204307
X176127Y204307
X186127Y204307
X196127Y204307
X206127Y204307
X216127Y204307
X224945Y230685
X224945Y240685
X224945Y250685
X224945Y260685
X224945Y270685
X224945Y280685
X13449Y257929
X13449Y247929
X13449Y237929
X13449Y227929
X13449Y217929
X13449Y207929
T07
X16875Y16748
X221599Y16748
X221599Y378953
X16875Y378953
M30
