G75*
%MOIN*%
%OFA0B0*%
%FSLAX25Y25*%
%IPPOS*%
%LPD*%
%AMOC8*
5,1,8,0,0,1.08239X$1,22.5*
%
%ADD10C,0.07600*%
%ADD11C,0.05200*%
%ADD12C,0.06000*%
%ADD13C,0.27000*%
%ADD14C,0.04400*%
%ADD15R,0.05900X0.05900*%
%ADD16C,0.05900*%
%ADD17OC8,0.07874*%
%ADD18C,0.05000*%
%ADD19C,0.03962*%
%ADD20C,0.01600*%
D10*
X0036893Y0052299D02*
X0044493Y0052299D01*
X0066893Y0052299D02*
X0074493Y0052299D01*
D11*
X0126953Y0061156D02*
X0126953Y0066356D01*
X0136953Y0066356D02*
X0136953Y0061156D01*
X0146953Y0061156D02*
X0146953Y0066356D01*
X0156953Y0066356D02*
X0156953Y0061156D01*
X0166953Y0061156D02*
X0166953Y0066356D01*
X0176953Y0066356D02*
X0176953Y0061156D01*
X0186953Y0061156D02*
X0186953Y0066356D01*
X0196953Y0066356D02*
X0196953Y0061156D01*
X0196953Y0036356D02*
X0196953Y0031156D01*
X0186953Y0031156D02*
X0186953Y0036356D01*
X0176953Y0036356D02*
X0176953Y0031156D01*
X0166953Y0031156D02*
X0166953Y0036356D01*
X0156953Y0036356D02*
X0156953Y0031156D01*
X0146953Y0031156D02*
X0146953Y0036356D01*
X0136953Y0036356D02*
X0136953Y0031156D01*
X0126953Y0031156D02*
X0126953Y0036356D01*
X0127821Y0233402D02*
X0122621Y0233402D01*
X0122621Y0243402D02*
X0127821Y0243402D01*
X0127821Y0253402D02*
X0122621Y0253402D01*
X0122621Y0263402D02*
X0127821Y0263402D01*
X0127821Y0273402D02*
X0122621Y0273402D01*
X0122621Y0283402D02*
X0127821Y0283402D01*
X0127821Y0293402D02*
X0122621Y0293402D01*
X0097821Y0293402D02*
X0092621Y0293402D01*
X0092621Y0283402D02*
X0097821Y0283402D01*
X0097821Y0273402D02*
X0092621Y0273402D01*
X0092621Y0263402D02*
X0097821Y0263402D01*
X0097821Y0253402D02*
X0092621Y0253402D01*
X0092621Y0243402D02*
X0097821Y0243402D01*
X0097821Y0233402D02*
X0092621Y0233402D01*
D12*
X0096127Y0207307D02*
X0096127Y0201307D01*
X0106127Y0201307D02*
X0106127Y0207307D01*
X0116127Y0207307D02*
X0116127Y0201307D01*
X0126127Y0201307D02*
X0126127Y0207307D01*
X0136127Y0207307D02*
X0136127Y0201307D01*
X0146127Y0201307D02*
X0146127Y0207307D01*
X0156127Y0207307D02*
X0156127Y0201307D01*
X0166127Y0201307D02*
X0166127Y0207307D01*
X0176127Y0207307D02*
X0176127Y0201307D01*
X0186127Y0201307D02*
X0186127Y0207307D01*
X0196127Y0207307D02*
X0196127Y0201307D01*
X0206127Y0201307D02*
X0206127Y0207307D01*
X0216127Y0207307D02*
X0216127Y0201307D01*
X0221945Y0230685D02*
X0227945Y0230685D01*
X0227945Y0240685D02*
X0221945Y0240685D01*
X0221945Y0250685D02*
X0227945Y0250685D01*
X0227945Y0260685D02*
X0221945Y0260685D01*
X0221945Y0270685D02*
X0227945Y0270685D01*
X0227945Y0280685D02*
X0221945Y0280685D01*
X0215733Y0119512D02*
X0215733Y0113512D01*
X0205733Y0113512D02*
X0205733Y0119512D01*
X0195733Y0119512D02*
X0195733Y0113512D01*
X0196248Y0097065D02*
X0190248Y0097065D01*
X0185733Y0113512D02*
X0185733Y0119512D01*
X0175733Y0119512D02*
X0175733Y0113512D01*
X0165733Y0113512D02*
X0165733Y0119512D01*
X0155733Y0119512D02*
X0155733Y0113512D01*
X0145733Y0113512D02*
X0145733Y0119512D01*
X0135733Y0119512D02*
X0135733Y0113512D01*
X0125733Y0113512D02*
X0125733Y0119512D01*
X0115733Y0119512D02*
X0115733Y0113512D01*
X0105733Y0113512D02*
X0105733Y0119512D01*
X0095733Y0119512D02*
X0095733Y0113512D01*
X0085733Y0113512D02*
X0085733Y0119512D01*
X0075733Y0119512D02*
X0075733Y0113512D01*
X0065733Y0113512D02*
X0065733Y0119512D01*
X0055733Y0119512D02*
X0055733Y0113512D01*
X0045733Y0113512D02*
X0045733Y0119512D01*
X0035733Y0119512D02*
X0035733Y0113512D01*
X0025733Y0113512D02*
X0025733Y0119512D01*
X0022709Y0076787D02*
X0016709Y0076787D01*
X0016709Y0066787D02*
X0022709Y0066787D01*
X0022709Y0056787D02*
X0016709Y0056787D01*
X0026127Y0201307D02*
X0026127Y0207307D01*
X0016449Y0207929D02*
X0010449Y0207929D01*
X0010449Y0217929D02*
X0016449Y0217929D01*
X0016449Y0227929D02*
X0010449Y0227929D01*
X0010449Y0237929D02*
X0016449Y0237929D01*
X0016449Y0247929D02*
X0010449Y0247929D01*
X0010449Y0257929D02*
X0016449Y0257929D01*
X0036127Y0207307D02*
X0036127Y0201307D01*
X0046127Y0201307D02*
X0046127Y0207307D01*
X0056127Y0207307D02*
X0056127Y0201307D01*
X0066127Y0201307D02*
X0066127Y0207307D01*
X0076127Y0207307D02*
X0076127Y0201307D01*
X0086127Y0201307D02*
X0086127Y0207307D01*
X0190248Y0079265D02*
X0196248Y0079265D01*
X0215848Y0079265D02*
X0221848Y0079265D01*
X0221848Y0097065D02*
X0215848Y0097065D01*
X0186953Y0018409D02*
X0186953Y0012409D01*
X0176953Y0012409D02*
X0176953Y0018409D01*
X0166953Y0018409D02*
X0166953Y0012409D01*
X0156953Y0012409D02*
X0156953Y0018409D01*
X0146953Y0018409D02*
X0146953Y0012409D01*
X0136953Y0012409D02*
X0136953Y0018409D01*
D13*
X0221599Y0016748D03*
X0016875Y0016748D03*
X0016875Y0378953D03*
X0221599Y0378953D03*
D14*
X0103922Y0097846D02*
X0103922Y0093446D01*
X0083922Y0093446D02*
X0083922Y0097846D01*
D15*
X0215890Y0131276D03*
D16*
X0205890Y0131276D03*
X0195890Y0131276D03*
X0185890Y0131276D03*
X0175890Y0131276D03*
X0165890Y0131276D03*
X0155890Y0131276D03*
X0145890Y0131276D03*
X0135890Y0131276D03*
X0125890Y0131276D03*
X0115890Y0131276D03*
X0105890Y0131276D03*
X0095890Y0131276D03*
X0085890Y0131276D03*
X0075890Y0131276D03*
X0065890Y0131276D03*
X0055890Y0131276D03*
X0045890Y0131276D03*
X0035890Y0131276D03*
X0025890Y0131276D03*
X0025890Y0191276D03*
X0035890Y0191276D03*
X0045890Y0191276D03*
X0055890Y0191276D03*
X0065890Y0191276D03*
X0075890Y0191276D03*
X0085890Y0191276D03*
X0095890Y0191276D03*
X0105890Y0191276D03*
X0115890Y0191276D03*
X0125890Y0191276D03*
X0135890Y0191276D03*
X0145890Y0191276D03*
X0155890Y0191276D03*
X0165890Y0191276D03*
X0175890Y0191276D03*
X0185890Y0191276D03*
X0195890Y0191276D03*
X0205890Y0191276D03*
X0215890Y0191276D03*
D17*
X0112386Y0020646D03*
X0092701Y0020646D03*
X0070851Y0020606D03*
X0051166Y0020606D03*
X0020457Y0275764D03*
X0020457Y0295449D03*
D18*
X0047544Y0342811D03*
X0047544Y0352811D03*
X0057544Y0352811D03*
X0057544Y0342811D03*
X0081127Y0342811D03*
X0081127Y0352811D03*
X0091127Y0352811D03*
X0091127Y0342811D03*
X0114237Y0342811D03*
X0114237Y0352811D03*
X0124237Y0352811D03*
X0124237Y0342811D03*
X0147426Y0342811D03*
X0147426Y0352811D03*
X0157426Y0352811D03*
X0157426Y0342811D03*
X0180615Y0342811D03*
X0180615Y0352811D03*
X0190615Y0352811D03*
X0190615Y0342811D03*
X0214158Y0342811D03*
X0214158Y0352811D03*
X0224158Y0352811D03*
X0224158Y0342811D03*
D19*
X0192386Y0254346D03*
X0186166Y0253244D03*
X0195221Y0232575D03*
X0180339Y0222220D03*
X0161638Y0222220D03*
X0161835Y0214780D03*
X0150930Y0214425D03*
X0147819Y0222063D03*
X0134906Y0229110D03*
X0106087Y0225291D03*
X0101520Y0221118D03*
X0128174Y0181630D03*
X0124001Y0163638D03*
X0128371Y0147890D03*
X0144552Y0173992D03*
X0176166Y0096039D03*
X0183371Y0087496D03*
X0161756Y0081157D03*
X0149079Y0054150D03*
X0119512Y0083520D03*
X0111678Y0067929D03*
X0108056Y0073362D03*
X0115300Y0055567D03*
X0117662Y0046709D03*
X0107859Y0043598D03*
X0046560Y0063795D03*
X0029079Y0086591D03*
X0044749Y0101118D03*
X0011284Y0102181D03*
X0022741Y0042890D03*
X0036638Y0030370D03*
X0065221Y0166000D03*
X0042465Y0280803D03*
X0156008Y0273165D03*
X0215930Y0220213D03*
X0225378Y0198638D03*
X0217347Y0042890D03*
D20*
X0005926Y0027155D02*
X0005926Y0206828D01*
X0006550Y0205323D01*
X0007844Y0204029D01*
X0009534Y0203329D01*
X0017364Y0203329D01*
X0019055Y0204029D01*
X0020349Y0205323D01*
X0021049Y0207014D01*
X0021049Y0208844D01*
X0020349Y0210535D01*
X0019055Y0211829D01*
X0017364Y0212529D01*
X0009534Y0212529D01*
X0007844Y0211829D01*
X0006550Y0210535D01*
X0005926Y0209030D01*
X0005926Y0216828D01*
X0006550Y0215323D01*
X0007844Y0214029D01*
X0009534Y0213329D01*
X0017364Y0213329D01*
X0019055Y0214029D01*
X0020349Y0215323D01*
X0021049Y0217014D01*
X0021049Y0218844D01*
X0020349Y0220535D01*
X0019055Y0221829D01*
X0017364Y0222529D01*
X0009534Y0222529D01*
X0007844Y0221829D01*
X0006550Y0220535D01*
X0005926Y0219030D01*
X0005926Y0226316D01*
X0006001Y0226087D01*
X0006344Y0225413D01*
X0006788Y0224802D01*
X0007322Y0224268D01*
X0007934Y0223824D01*
X0008607Y0223481D01*
X0009325Y0223247D01*
X0010072Y0223129D01*
X0013249Y0223129D01*
X0013249Y0227729D01*
X0013649Y0227729D01*
X0013649Y0223129D01*
X0016827Y0223129D01*
X0017573Y0223247D01*
X0018292Y0223481D01*
X0018965Y0223824D01*
X0019576Y0224268D01*
X0020111Y0224802D01*
X0020555Y0225413D01*
X0020898Y0226087D01*
X0021131Y0226805D01*
X0021249Y0227551D01*
X0021249Y0227729D01*
X0013649Y0227729D01*
X0013649Y0228129D01*
X0013249Y0228129D01*
X0013249Y0232729D01*
X0010072Y0232729D01*
X0009325Y0232611D01*
X0008607Y0232377D01*
X0007934Y0232034D01*
X0007322Y0231590D01*
X0006788Y0231056D01*
X0006344Y0230445D01*
X0006001Y0229772D01*
X0005926Y0229542D01*
X0005926Y0236828D01*
X0006550Y0235323D01*
X0007844Y0234029D01*
X0009534Y0233329D01*
X0017364Y0233329D01*
X0019055Y0234029D01*
X0020349Y0235323D01*
X0021049Y0237014D01*
X0021049Y0238844D01*
X0020349Y0240535D01*
X0019055Y0241829D01*
X0017364Y0242529D01*
X0009534Y0242529D01*
X0007844Y0241829D01*
X0006550Y0240535D01*
X0005926Y0239030D01*
X0005926Y0246828D01*
X0006550Y0245323D01*
X0007844Y0244029D01*
X0009534Y0243329D01*
X0017364Y0243329D01*
X0019055Y0244029D01*
X0020349Y0245323D01*
X0020434Y0245529D01*
X0033794Y0245529D01*
X0064081Y0215242D01*
X0064081Y0211439D01*
X0063521Y0211207D01*
X0062227Y0209913D01*
X0061527Y0208222D01*
X0061527Y0200392D01*
X0062227Y0198701D01*
X0063521Y0197407D01*
X0065211Y0196707D01*
X0067041Y0196707D01*
X0068732Y0197407D01*
X0070026Y0198701D01*
X0070726Y0200392D01*
X0070726Y0208222D01*
X0070026Y0209913D01*
X0068881Y0211058D01*
X0068881Y0216714D01*
X0068515Y0217596D01*
X0067840Y0218271D01*
X0036147Y0249964D01*
X0035265Y0250329D01*
X0020434Y0250329D01*
X0020349Y0250535D01*
X0019055Y0251829D01*
X0017364Y0252529D01*
X0009534Y0252529D01*
X0007844Y0251829D01*
X0006550Y0250535D01*
X0005926Y0249030D01*
X0005926Y0256828D01*
X0006550Y0255323D01*
X0007844Y0254029D01*
X0009534Y0253329D01*
X0017364Y0253329D01*
X0019055Y0254029D01*
X0020349Y0255323D01*
X0020434Y0255529D01*
X0035605Y0255529D01*
X0073884Y0217250D01*
X0073884Y0211357D01*
X0073521Y0211207D01*
X0072227Y0209913D01*
X0071527Y0208222D01*
X0071527Y0200392D01*
X0072227Y0198701D01*
X0073521Y0197407D01*
X0075211Y0196707D01*
X0077041Y0196707D01*
X0078732Y0197407D01*
X0080026Y0198701D01*
X0080726Y0200392D01*
X0080726Y0208222D01*
X0080026Y0209913D01*
X0078732Y0211207D01*
X0078684Y0211227D01*
X0078684Y0218721D01*
X0078319Y0219604D01*
X0077643Y0220279D01*
X0037958Y0259964D01*
X0037076Y0260329D01*
X0020434Y0260329D01*
X0020349Y0260535D01*
X0019055Y0261829D01*
X0017364Y0262529D01*
X0009534Y0262529D01*
X0007844Y0261829D01*
X0006550Y0260535D01*
X0005926Y0259030D01*
X0005926Y0368546D01*
X0007603Y0366870D01*
X0011046Y0364882D01*
X0014887Y0363853D01*
X0018862Y0363853D01*
X0022703Y0364882D01*
X0026146Y0366870D01*
X0028958Y0369681D01*
X0030945Y0373124D01*
X0031975Y0376965D01*
X0031975Y0380941D01*
X0030945Y0384781D01*
X0028958Y0388224D01*
X0027281Y0389901D01*
X0211192Y0389901D01*
X0209516Y0388224D01*
X0207528Y0384781D01*
X0206499Y0380941D01*
X0206499Y0376965D01*
X0207528Y0373124D01*
X0209516Y0369681D01*
X0212327Y0366870D01*
X0215771Y0364882D01*
X0219611Y0363853D01*
X0223587Y0363853D01*
X0227427Y0364882D01*
X0230871Y0366870D01*
X0232547Y0368546D01*
X0232547Y0262056D01*
X0232394Y0262528D01*
X0232051Y0263201D01*
X0231607Y0263812D01*
X0231072Y0264346D01*
X0230461Y0264790D01*
X0229788Y0265133D01*
X0229069Y0265367D01*
X0228323Y0265485D01*
X0225145Y0265485D01*
X0225145Y0260885D01*
X0224745Y0260885D01*
X0224745Y0260485D01*
X0217145Y0260485D01*
X0217145Y0260307D01*
X0217264Y0259561D01*
X0217497Y0258842D01*
X0217840Y0258169D01*
X0218284Y0257558D01*
X0218818Y0257024D01*
X0219430Y0256580D01*
X0220103Y0256237D01*
X0220821Y0256003D01*
X0221568Y0255885D01*
X0224745Y0255885D01*
X0224745Y0260485D01*
X0225145Y0260485D01*
X0225145Y0255885D01*
X0228323Y0255885D01*
X0229069Y0256003D01*
X0229788Y0256237D01*
X0230461Y0256580D01*
X0231072Y0257024D01*
X0231607Y0257558D01*
X0232051Y0258169D01*
X0232394Y0258842D01*
X0232547Y0259314D01*
X0232547Y0027155D01*
X0230871Y0028831D01*
X0227427Y0030819D01*
X0223587Y0031848D01*
X0219611Y0031848D01*
X0215771Y0030819D01*
X0212327Y0028831D01*
X0209516Y0026020D01*
X0207528Y0022576D01*
X0206499Y0018736D01*
X0206499Y0014760D01*
X0207528Y0010920D01*
X0209516Y0007476D01*
X0211192Y0005800D01*
X0027281Y0005800D01*
X0028958Y0007476D01*
X0030945Y0010920D01*
X0031975Y0014760D01*
X0031975Y0018736D01*
X0030945Y0022576D01*
X0028958Y0026020D01*
X0026146Y0028831D01*
X0022703Y0030819D01*
X0018862Y0031848D01*
X0014887Y0031848D01*
X0011046Y0030819D01*
X0007603Y0028831D01*
X0005926Y0027155D01*
X0005926Y0028175D02*
X0006947Y0028175D01*
X0005926Y0029773D02*
X0009235Y0029773D01*
X0005926Y0031372D02*
X0013109Y0031372D01*
X0005926Y0032970D02*
X0122753Y0032970D01*
X0122753Y0031372D02*
X0020640Y0031372D01*
X0024514Y0029773D02*
X0122980Y0029773D01*
X0122753Y0030320D02*
X0123393Y0028777D01*
X0124574Y0027595D01*
X0126118Y0026956D01*
X0127789Y0026956D01*
X0129332Y0027595D01*
X0130514Y0028777D01*
X0131153Y0030320D01*
X0131153Y0037191D01*
X0130514Y0038735D01*
X0129332Y0039916D01*
X0127789Y0040556D01*
X0126118Y0040556D01*
X0124574Y0039916D01*
X0123393Y0038735D01*
X0122753Y0037191D01*
X0122753Y0030320D01*
X0123995Y0028175D02*
X0026802Y0028175D01*
X0028401Y0026576D02*
X0139593Y0026576D01*
X0139332Y0027595D02*
X0139593Y0027856D01*
X0139593Y0025011D01*
X0139958Y0024129D01*
X0140633Y0023454D01*
X0140830Y0023257D01*
X0141712Y0022891D01*
X0145753Y0022891D01*
X0144348Y0022309D01*
X0143054Y0021015D01*
X0142353Y0019324D01*
X0142353Y0011494D01*
X0143054Y0009804D01*
X0144348Y0008510D01*
X0146038Y0007809D01*
X0147868Y0007809D01*
X0149559Y0008510D01*
X0150853Y0009804D01*
X0151553Y0011494D01*
X0151553Y0019324D01*
X0150853Y0021015D01*
X0149559Y0022309D01*
X0148153Y0022891D01*
X0155753Y0022891D01*
X0154348Y0022309D01*
X0153054Y0021015D01*
X0152353Y0019324D01*
X0152353Y0011494D01*
X0153054Y0009804D01*
X0154348Y0008510D01*
X0156038Y0007809D01*
X0157868Y0007809D01*
X0159559Y0008510D01*
X0160853Y0009804D01*
X0161553Y0011494D01*
X0161553Y0019324D01*
X0160853Y0021015D01*
X0159559Y0022309D01*
X0158153Y0022891D01*
X0164227Y0022891D01*
X0164553Y0022565D01*
X0164553Y0022394D01*
X0164348Y0022309D01*
X0163054Y0021015D01*
X0162353Y0019324D01*
X0162353Y0011494D01*
X0163054Y0009804D01*
X0164348Y0008510D01*
X0166038Y0007809D01*
X0167868Y0007809D01*
X0169559Y0008510D01*
X0170853Y0009804D01*
X0171553Y0011494D01*
X0171553Y0019324D01*
X0170853Y0021015D01*
X0169559Y0022309D01*
X0169353Y0022394D01*
X0169353Y0024036D01*
X0168988Y0024919D01*
X0167256Y0026651D01*
X0167151Y0026756D01*
X0167300Y0026756D01*
X0167984Y0026864D01*
X0168642Y0027078D01*
X0169259Y0027393D01*
X0169820Y0027800D01*
X0170309Y0028289D01*
X0170716Y0028850D01*
X0171031Y0029467D01*
X0171245Y0030126D01*
X0171353Y0030810D01*
X0171353Y0033756D01*
X0171353Y0036702D01*
X0171245Y0037386D01*
X0171031Y0038045D01*
X0170716Y0038662D01*
X0170309Y0039222D01*
X0169820Y0039712D01*
X0169259Y0040119D01*
X0168642Y0040434D01*
X0167984Y0040648D01*
X0167300Y0040756D01*
X0166953Y0040756D01*
X0166607Y0040756D01*
X0165923Y0040648D01*
X0165264Y0040434D01*
X0164647Y0040119D01*
X0164087Y0039712D01*
X0163597Y0039222D01*
X0163190Y0038662D01*
X0162876Y0038045D01*
X0162662Y0037386D01*
X0162553Y0036702D01*
X0162553Y0033756D01*
X0166953Y0033756D01*
X0166953Y0033756D01*
X0166953Y0040756D01*
X0166953Y0033756D01*
X0166953Y0033756D01*
X0162553Y0033756D01*
X0162553Y0030810D01*
X0162662Y0030126D01*
X0162876Y0029467D01*
X0163190Y0028850D01*
X0163597Y0028289D01*
X0164087Y0027800D01*
X0164236Y0027691D01*
X0159670Y0027691D01*
X0159820Y0027800D01*
X0160309Y0028289D01*
X0160716Y0028850D01*
X0161031Y0029467D01*
X0161245Y0030126D01*
X0161353Y0030810D01*
X0161353Y0033756D01*
X0161353Y0036702D01*
X0161245Y0037386D01*
X0161031Y0038045D01*
X0160716Y0038662D01*
X0160309Y0039222D01*
X0159820Y0039712D01*
X0159259Y0040119D01*
X0158642Y0040434D01*
X0157984Y0040648D01*
X0157300Y0040756D01*
X0156953Y0040756D01*
X0156607Y0040756D01*
X0155923Y0040648D01*
X0155264Y0040434D01*
X0154647Y0040119D01*
X0154087Y0039712D01*
X0153597Y0039222D01*
X0153190Y0038662D01*
X0152876Y0038045D01*
X0152662Y0037386D01*
X0152553Y0036702D01*
X0152553Y0033756D01*
X0156953Y0033756D01*
X0156953Y0033756D01*
X0156953Y0040756D01*
X0156953Y0033756D01*
X0156953Y0033756D01*
X0152553Y0033756D01*
X0152553Y0030810D01*
X0152662Y0030126D01*
X0152876Y0029467D01*
X0153190Y0028850D01*
X0153597Y0028289D01*
X0154087Y0027800D01*
X0154236Y0027691D01*
X0149428Y0027691D01*
X0150514Y0028777D01*
X0151153Y0030320D01*
X0151153Y0037191D01*
X0150514Y0038735D01*
X0149332Y0039916D01*
X0147789Y0040556D01*
X0146118Y0040556D01*
X0144574Y0039916D01*
X0144393Y0039735D01*
X0144393Y0046084D01*
X0144196Y0046559D01*
X0144196Y0057604D01*
X0144380Y0057789D01*
X0144574Y0057595D01*
X0146118Y0056956D01*
X0146821Y0056956D01*
X0146043Y0056178D01*
X0145498Y0054862D01*
X0145498Y0053437D01*
X0146043Y0052121D01*
X0147051Y0051114D01*
X0148367Y0050569D01*
X0149792Y0050569D01*
X0151108Y0051114D01*
X0151671Y0051677D01*
X0161871Y0051397D01*
X0162331Y0051378D01*
X0162347Y0051384D01*
X0162364Y0051383D01*
X0162795Y0051548D01*
X0163228Y0051706D01*
X0163240Y0051718D01*
X0163256Y0051724D01*
X0163591Y0052041D01*
X0163930Y0052353D01*
X0163937Y0052369D01*
X0163950Y0052380D01*
X0164138Y0052801D01*
X0164332Y0053219D01*
X0164332Y0053236D01*
X0164339Y0053252D01*
X0164352Y0053713D01*
X0164492Y0057108D01*
X0164518Y0057173D01*
X0164513Y0057490D01*
X0164647Y0057393D01*
X0165264Y0057078D01*
X0165923Y0056864D01*
X0166607Y0056756D01*
X0166953Y0056756D01*
X0166953Y0063756D01*
X0166953Y0070756D01*
X0166607Y0070756D01*
X0165923Y0070648D01*
X0165264Y0070434D01*
X0164647Y0070119D01*
X0164326Y0069886D01*
X0164196Y0078533D01*
X0164792Y0079129D01*
X0165338Y0080445D01*
X0165338Y0081870D01*
X0164792Y0083186D01*
X0163785Y0084193D01*
X0162469Y0084739D01*
X0161044Y0084739D01*
X0159728Y0084193D01*
X0158721Y0083186D01*
X0158175Y0081870D01*
X0158175Y0080445D01*
X0158721Y0079129D01*
X0159397Y0078453D01*
X0159525Y0069926D01*
X0159259Y0070119D01*
X0158642Y0070434D01*
X0157984Y0070648D01*
X0157300Y0070756D01*
X0156953Y0070756D01*
X0156607Y0070756D01*
X0155923Y0070648D01*
X0155264Y0070434D01*
X0154647Y0070119D01*
X0154087Y0069712D01*
X0153597Y0069222D01*
X0153190Y0068662D01*
X0152876Y0068045D01*
X0152662Y0067386D01*
X0152553Y0066702D01*
X0152553Y0063756D01*
X0156953Y0063756D01*
X0156953Y0063756D01*
X0156953Y0070756D01*
X0156953Y0063756D01*
X0156953Y0063756D01*
X0152553Y0063756D01*
X0152553Y0060810D01*
X0152662Y0060126D01*
X0152876Y0059467D01*
X0153190Y0058850D01*
X0153597Y0058289D01*
X0154087Y0057800D01*
X0154647Y0057393D01*
X0155264Y0057078D01*
X0155923Y0056864D01*
X0156607Y0056756D01*
X0156953Y0056756D01*
X0156953Y0063756D01*
X0156953Y0063756D01*
X0156953Y0056756D01*
X0157300Y0056756D01*
X0157984Y0056864D01*
X0158642Y0057078D01*
X0159259Y0057393D01*
X0159709Y0057719D01*
X0159710Y0057646D01*
X0159653Y0056259D01*
X0151818Y0056475D01*
X0151108Y0057186D01*
X0149792Y0057731D01*
X0149468Y0057731D01*
X0150514Y0058777D01*
X0151153Y0060320D01*
X0151153Y0067191D01*
X0150514Y0068735D01*
X0149332Y0069916D01*
X0147789Y0070556D01*
X0146118Y0070556D01*
X0144574Y0069916D01*
X0143393Y0068735D01*
X0142753Y0067191D01*
X0142753Y0062950D01*
X0141153Y0061350D01*
X0141153Y0067191D01*
X0140514Y0068735D01*
X0139332Y0069916D01*
X0137789Y0070556D01*
X0136118Y0070556D01*
X0134574Y0069916D01*
X0133393Y0068735D01*
X0132753Y0067191D01*
X0132753Y0060320D01*
X0133393Y0058777D01*
X0134574Y0057595D01*
X0136118Y0056956D01*
X0137789Y0056956D01*
X0139332Y0057595D01*
X0139396Y0057659D01*
X0139396Y0045326D01*
X0139593Y0044851D01*
X0139593Y0039656D01*
X0139332Y0039916D01*
X0137789Y0040556D01*
X0136118Y0040556D01*
X0134574Y0039916D01*
X0133393Y0038735D01*
X0132753Y0037191D01*
X0132753Y0030320D01*
X0133393Y0028777D01*
X0134574Y0027595D01*
X0136118Y0026956D01*
X0137789Y0026956D01*
X0139332Y0027595D01*
X0139606Y0024978D02*
X0115885Y0024978D01*
X0114680Y0026183D02*
X0110093Y0026183D01*
X0106849Y0022939D01*
X0106849Y0018352D01*
X0110093Y0015109D01*
X0114680Y0015109D01*
X0117923Y0018352D01*
X0117923Y0022939D01*
X0114680Y0026183D01*
X0117483Y0023379D02*
X0140708Y0023379D01*
X0139559Y0022309D02*
X0140853Y0021015D01*
X0141553Y0019324D01*
X0141553Y0011494D01*
X0140853Y0009804D01*
X0139559Y0008510D01*
X0137868Y0007809D01*
X0136038Y0007809D01*
X0134348Y0008510D01*
X0133054Y0009804D01*
X0132353Y0011494D01*
X0132353Y0019324D01*
X0133054Y0021015D01*
X0134348Y0022309D01*
X0136038Y0023009D01*
X0137868Y0023009D01*
X0139559Y0022309D01*
X0140087Y0021781D02*
X0143819Y0021781D01*
X0142709Y0020182D02*
X0141198Y0020182D01*
X0141553Y0018584D02*
X0142353Y0018584D01*
X0142353Y0016985D02*
X0141553Y0016985D01*
X0141553Y0015387D02*
X0142353Y0015387D01*
X0142353Y0013788D02*
X0141553Y0013788D01*
X0141553Y0012190D02*
X0142353Y0012190D01*
X0142727Y0010591D02*
X0141179Y0010591D01*
X0140042Y0008993D02*
X0143865Y0008993D01*
X0150042Y0008993D02*
X0153865Y0008993D01*
X0152727Y0010591D02*
X0151179Y0010591D01*
X0151553Y0012190D02*
X0152353Y0012190D01*
X0152353Y0013788D02*
X0151553Y0013788D01*
X0151553Y0015387D02*
X0152353Y0015387D01*
X0152353Y0016985D02*
X0151553Y0016985D01*
X0151553Y0018584D02*
X0152353Y0018584D01*
X0152709Y0020182D02*
X0151198Y0020182D01*
X0150087Y0021781D02*
X0153819Y0021781D01*
X0153712Y0028175D02*
X0149912Y0028175D01*
X0150927Y0029773D02*
X0152776Y0029773D01*
X0152553Y0031372D02*
X0151153Y0031372D01*
X0151153Y0032970D02*
X0152553Y0032970D01*
X0152553Y0034569D02*
X0151153Y0034569D01*
X0151153Y0036167D02*
X0152553Y0036167D01*
X0152785Y0037766D02*
X0150915Y0037766D01*
X0149885Y0039364D02*
X0153739Y0039364D01*
X0156953Y0039364D02*
X0156953Y0039364D01*
X0156953Y0037766D02*
X0156953Y0037766D01*
X0156953Y0036167D02*
X0156953Y0036167D01*
X0156953Y0034569D02*
X0156953Y0034569D01*
X0156953Y0033756D02*
X0161353Y0033756D01*
X0156953Y0033756D01*
X0156953Y0033756D01*
X0161353Y0032970D02*
X0162553Y0032970D01*
X0162553Y0031372D02*
X0161353Y0031372D01*
X0161130Y0029773D02*
X0162776Y0029773D01*
X0163712Y0028175D02*
X0160195Y0028175D01*
X0161353Y0034569D02*
X0162553Y0034569D01*
X0162553Y0036167D02*
X0161353Y0036167D01*
X0161122Y0037766D02*
X0162785Y0037766D01*
X0163739Y0039364D02*
X0160167Y0039364D01*
X0166953Y0039364D02*
X0166953Y0039364D01*
X0166953Y0037766D02*
X0166953Y0037766D01*
X0166953Y0036167D02*
X0166953Y0036167D01*
X0166953Y0034569D02*
X0166953Y0034569D01*
X0166953Y0033756D02*
X0171353Y0033756D01*
X0166953Y0033756D01*
X0166953Y0033756D01*
X0171353Y0032970D02*
X0172753Y0032970D01*
X0172753Y0031372D02*
X0171353Y0031372D01*
X0171130Y0029773D02*
X0172980Y0029773D01*
X0172753Y0030320D02*
X0173393Y0028777D01*
X0174574Y0027595D01*
X0176118Y0026956D01*
X0177789Y0026956D01*
X0179332Y0027595D01*
X0180514Y0028777D01*
X0181153Y0030320D01*
X0181153Y0037191D01*
X0180514Y0038735D01*
X0179332Y0039916D01*
X0177789Y0040556D01*
X0176118Y0040556D01*
X0174574Y0039916D01*
X0173393Y0038735D01*
X0172753Y0037191D01*
X0172753Y0030320D01*
X0173995Y0028175D02*
X0170195Y0028175D01*
X0167330Y0026576D02*
X0210072Y0026576D01*
X0208914Y0024978D02*
X0168929Y0024978D01*
X0169353Y0023379D02*
X0207991Y0023379D01*
X0207315Y0021781D02*
X0190087Y0021781D01*
X0189559Y0022309D02*
X0187868Y0023009D01*
X0186038Y0023009D01*
X0184348Y0022309D01*
X0183054Y0021015D01*
X0182353Y0019324D01*
X0182353Y0011494D01*
X0183054Y0009804D01*
X0184348Y0008510D01*
X0186038Y0007809D01*
X0187868Y0007809D01*
X0189559Y0008510D01*
X0190853Y0009804D01*
X0191553Y0011494D01*
X0191553Y0019324D01*
X0190853Y0021015D01*
X0189559Y0022309D01*
X0191198Y0020182D02*
X0206886Y0020182D01*
X0206499Y0018584D02*
X0191553Y0018584D01*
X0191553Y0016985D02*
X0206499Y0016985D01*
X0206499Y0015387D02*
X0191553Y0015387D01*
X0191553Y0013788D02*
X0206759Y0013788D01*
X0207188Y0012190D02*
X0191553Y0012190D01*
X0191179Y0010591D02*
X0207718Y0010591D01*
X0208641Y0008993D02*
X0190042Y0008993D01*
X0183865Y0008993D02*
X0180042Y0008993D01*
X0179559Y0008510D02*
X0180853Y0009804D01*
X0181553Y0011494D01*
X0181553Y0019324D01*
X0180853Y0021015D01*
X0179559Y0022309D01*
X0177868Y0023009D01*
X0176038Y0023009D01*
X0174348Y0022309D01*
X0173054Y0021015D01*
X0172353Y0019324D01*
X0172353Y0011494D01*
X0173054Y0009804D01*
X0174348Y0008510D01*
X0176038Y0007809D01*
X0177868Y0007809D01*
X0179559Y0008510D01*
X0181179Y0010591D02*
X0182727Y0010591D01*
X0182353Y0012190D02*
X0181553Y0012190D01*
X0181553Y0013788D02*
X0182353Y0013788D01*
X0182353Y0015387D02*
X0181553Y0015387D01*
X0181553Y0016985D02*
X0182353Y0016985D01*
X0182353Y0018584D02*
X0181553Y0018584D01*
X0181198Y0020182D02*
X0182709Y0020182D01*
X0183819Y0021781D02*
X0180087Y0021781D01*
X0179912Y0028175D02*
X0183995Y0028175D01*
X0184574Y0027595D02*
X0186118Y0026956D01*
X0187789Y0026956D01*
X0189332Y0027595D01*
X0190514Y0028777D01*
X0191153Y0030320D01*
X0191153Y0037191D01*
X0190514Y0038735D01*
X0189332Y0039916D01*
X0187789Y0040556D01*
X0186118Y0040556D01*
X0184574Y0039916D01*
X0183393Y0038735D01*
X0182753Y0037191D01*
X0182753Y0030320D01*
X0183393Y0028777D01*
X0184574Y0027595D01*
X0182980Y0029773D02*
X0180927Y0029773D01*
X0181153Y0031372D02*
X0182753Y0031372D01*
X0182753Y0032970D02*
X0181153Y0032970D01*
X0181153Y0034569D02*
X0182753Y0034569D01*
X0182753Y0036167D02*
X0181153Y0036167D01*
X0180915Y0037766D02*
X0182991Y0037766D01*
X0184022Y0039364D02*
X0179885Y0039364D01*
X0174022Y0039364D02*
X0170167Y0039364D01*
X0171122Y0037766D02*
X0172991Y0037766D01*
X0172753Y0036167D02*
X0171353Y0036167D01*
X0171353Y0034569D02*
X0172753Y0034569D01*
X0165221Y0025291D02*
X0166953Y0023559D01*
X0166953Y0015409D01*
X0171553Y0015387D02*
X0172353Y0015387D01*
X0172353Y0016985D02*
X0171553Y0016985D01*
X0171553Y0018584D02*
X0172353Y0018584D01*
X0172709Y0020182D02*
X0171198Y0020182D01*
X0170087Y0021781D02*
X0173819Y0021781D01*
X0172353Y0013788D02*
X0171553Y0013788D01*
X0171553Y0012190D02*
X0172353Y0012190D01*
X0172727Y0010591D02*
X0171179Y0010591D01*
X0170042Y0008993D02*
X0173865Y0008993D01*
X0163865Y0008993D02*
X0160042Y0008993D01*
X0161179Y0010591D02*
X0162727Y0010591D01*
X0162353Y0012190D02*
X0161553Y0012190D01*
X0161553Y0013788D02*
X0162353Y0013788D01*
X0162353Y0015387D02*
X0161553Y0015387D01*
X0161553Y0016985D02*
X0162353Y0016985D01*
X0162353Y0018584D02*
X0161553Y0018584D01*
X0161198Y0020182D02*
X0162709Y0020182D01*
X0163819Y0021781D02*
X0160087Y0021781D01*
X0165221Y0025291D02*
X0142189Y0025291D01*
X0141993Y0025488D01*
X0141993Y0045606D01*
X0141796Y0045803D01*
X0141796Y0058598D01*
X0146953Y0063756D01*
X0143145Y0068137D02*
X0140761Y0068137D01*
X0141153Y0066539D02*
X0142753Y0066539D01*
X0142753Y0064940D02*
X0141153Y0064940D01*
X0141153Y0063342D02*
X0142753Y0063342D01*
X0141547Y0061743D02*
X0141153Y0061743D01*
X0139396Y0056948D02*
X0120075Y0056948D01*
X0120602Y0057475D02*
X0120967Y0058357D01*
X0120967Y0072186D01*
X0120602Y0073068D01*
X0119927Y0073743D01*
X0116637Y0077033D01*
X0116637Y0084337D01*
X0118634Y0086333D01*
X0118999Y0087216D01*
X0118999Y0105729D01*
X0118634Y0106611D01*
X0117958Y0107287D01*
X0117407Y0107838D01*
X0116525Y0108203D01*
X0059128Y0108203D01*
X0058133Y0109199D01*
X0058133Y0109527D01*
X0058338Y0109612D01*
X0059632Y0110906D01*
X0060333Y0112597D01*
X0060333Y0120427D01*
X0059632Y0122117D01*
X0058338Y0123411D01*
X0056648Y0124112D01*
X0054818Y0124112D01*
X0053127Y0123411D01*
X0051833Y0122117D01*
X0051133Y0120427D01*
X0051133Y0112597D01*
X0051833Y0110906D01*
X0053127Y0109612D01*
X0053333Y0109527D01*
X0053333Y0107727D01*
X0053698Y0106845D01*
X0056100Y0104444D01*
X0056775Y0103769D01*
X0057657Y0103403D01*
X0114199Y0103403D01*
X0114199Y0088687D01*
X0112877Y0087365D01*
X0112202Y0086690D01*
X0111837Y0085808D01*
X0111837Y0075562D01*
X0112202Y0074680D01*
X0116167Y0070715D01*
X0116167Y0059829D01*
X0115487Y0059148D01*
X0114587Y0059148D01*
X0113271Y0058603D01*
X0112264Y0057595D01*
X0111719Y0056279D01*
X0111719Y0054896D01*
X0099443Y0054896D01*
X0065714Y0088625D01*
X0064832Y0088991D01*
X0031744Y0088991D01*
X0031662Y0089072D01*
X0068439Y0089072D01*
X0085509Y0072003D01*
X0086184Y0071328D01*
X0087066Y0070962D01*
X0105391Y0070962D01*
X0106027Y0070326D01*
X0107343Y0069781D01*
X0108569Y0069781D01*
X0108097Y0068641D01*
X0108097Y0067217D01*
X0108642Y0065901D01*
X0109649Y0064893D01*
X0110965Y0064348D01*
X0112390Y0064348D01*
X0113706Y0064893D01*
X0114714Y0065901D01*
X0115259Y0067217D01*
X0115259Y0068641D01*
X0114714Y0069958D01*
X0113706Y0070965D01*
X0112390Y0071510D01*
X0111165Y0071510D01*
X0111637Y0072650D01*
X0111637Y0074075D01*
X0111092Y0075391D01*
X0110084Y0076398D01*
X0108768Y0076943D01*
X0107343Y0076943D01*
X0106027Y0076398D01*
X0105391Y0075762D01*
X0088538Y0075762D01*
X0070793Y0093507D01*
X0069911Y0093872D01*
X0019719Y0093872D01*
X0013879Y0099712D01*
X0014320Y0100153D01*
X0014865Y0101469D01*
X0014865Y0102893D01*
X0014320Y0104210D01*
X0013312Y0105217D01*
X0011996Y0105762D01*
X0010572Y0105762D01*
X0009255Y0105217D01*
X0008248Y0104210D01*
X0007703Y0102893D01*
X0007703Y0101469D01*
X0008248Y0100153D01*
X0008884Y0099517D01*
X0008884Y0098436D01*
X0009249Y0097554D01*
X0016690Y0090113D01*
X0017365Y0089438D01*
X0018248Y0089072D01*
X0026497Y0089072D01*
X0026043Y0088619D01*
X0025498Y0087303D01*
X0025498Y0085878D01*
X0026043Y0084562D01*
X0027051Y0083555D01*
X0028367Y0083009D01*
X0029792Y0083009D01*
X0031108Y0083555D01*
X0031744Y0084191D01*
X0063361Y0084191D01*
X0096415Y0051137D01*
X0097090Y0050461D01*
X0097972Y0050096D01*
X0110880Y0050096D01*
X0114081Y0046896D01*
X0114081Y0045996D01*
X0114626Y0044680D01*
X0115633Y0043673D01*
X0116950Y0043128D01*
X0118374Y0043128D01*
X0119690Y0043673D01*
X0120698Y0044680D01*
X0121243Y0045996D01*
X0121243Y0047421D01*
X0120698Y0048737D01*
X0119690Y0049745D01*
X0118374Y0050290D01*
X0117475Y0050290D01*
X0115779Y0051986D01*
X0116012Y0051986D01*
X0117328Y0052531D01*
X0118336Y0053538D01*
X0118881Y0054855D01*
X0118881Y0055754D01*
X0120602Y0057475D01*
X0120967Y0058546D02*
X0123623Y0058546D01*
X0123393Y0058777D02*
X0124574Y0057595D01*
X0126118Y0056956D01*
X0127789Y0056956D01*
X0129332Y0057595D01*
X0130514Y0058777D01*
X0131153Y0060320D01*
X0131153Y0067191D01*
X0130514Y0068735D01*
X0129332Y0069916D01*
X0127789Y0070556D01*
X0126118Y0070556D01*
X0124574Y0069916D01*
X0123393Y0068735D01*
X0122753Y0067191D01*
X0122753Y0060320D01*
X0123393Y0058777D01*
X0122826Y0060145D02*
X0120967Y0060145D01*
X0120967Y0061743D02*
X0122753Y0061743D01*
X0122753Y0063342D02*
X0120967Y0063342D01*
X0120967Y0064940D02*
X0122753Y0064940D01*
X0122753Y0066539D02*
X0120967Y0066539D01*
X0120967Y0068137D02*
X0123145Y0068137D01*
X0124394Y0069736D02*
X0120967Y0069736D01*
X0120967Y0071334D02*
X0159504Y0071334D01*
X0159480Y0072933D02*
X0120658Y0072933D01*
X0119139Y0074532D02*
X0159456Y0074532D01*
X0159432Y0076130D02*
X0117540Y0076130D01*
X0116637Y0077729D02*
X0159408Y0077729D01*
X0158638Y0079327D02*
X0116637Y0079327D01*
X0116637Y0080926D02*
X0158175Y0080926D01*
X0158446Y0082524D02*
X0116637Y0082524D01*
X0116637Y0084123D02*
X0159657Y0084123D01*
X0161756Y0081157D02*
X0162111Y0057614D01*
X0161953Y0053795D01*
X0149079Y0054150D01*
X0145700Y0055349D02*
X0144196Y0055349D01*
X0144196Y0053751D02*
X0145498Y0053751D01*
X0146030Y0052152D02*
X0144196Y0052152D01*
X0144196Y0050554D02*
X0232547Y0050554D01*
X0232547Y0052152D02*
X0163712Y0052152D01*
X0164353Y0053751D02*
X0232547Y0053751D01*
X0232547Y0055349D02*
X0164419Y0055349D01*
X0164485Y0056948D02*
X0165665Y0056948D01*
X0166953Y0056948D02*
X0166953Y0056948D01*
X0166953Y0056756D02*
X0167300Y0056756D01*
X0167984Y0056864D01*
X0168642Y0057078D01*
X0169259Y0057393D01*
X0169820Y0057800D01*
X0170309Y0058289D01*
X0170716Y0058850D01*
X0171031Y0059467D01*
X0171245Y0060126D01*
X0171353Y0060810D01*
X0171353Y0063756D01*
X0171353Y0066702D01*
X0171245Y0067386D01*
X0171031Y0068045D01*
X0170716Y0068662D01*
X0170309Y0069222D01*
X0169820Y0069712D01*
X0169259Y0070119D01*
X0168642Y0070434D01*
X0167984Y0070648D01*
X0167300Y0070756D01*
X0166953Y0070756D01*
X0166953Y0063756D01*
X0166953Y0063756D01*
X0166953Y0063756D01*
X0171353Y0063756D01*
X0166953Y0063756D01*
X0166953Y0063756D01*
X0166953Y0056756D01*
X0168241Y0056948D02*
X0232547Y0056948D01*
X0232547Y0058546D02*
X0200283Y0058546D01*
X0200514Y0058777D02*
X0201153Y0060320D01*
X0201153Y0067191D01*
X0200514Y0068735D01*
X0199332Y0069916D01*
X0197789Y0070556D01*
X0196118Y0070556D01*
X0194574Y0069916D01*
X0193393Y0068735D01*
X0192753Y0067191D01*
X0192753Y0060320D01*
X0193393Y0058777D01*
X0194574Y0057595D01*
X0196118Y0056956D01*
X0197789Y0056956D01*
X0199332Y0057595D01*
X0200514Y0058777D01*
X0201081Y0060145D02*
X0232547Y0060145D01*
X0232547Y0061743D02*
X0201153Y0061743D01*
X0201153Y0063342D02*
X0232547Y0063342D01*
X0232547Y0064940D02*
X0201153Y0064940D01*
X0201153Y0066539D02*
X0232547Y0066539D01*
X0232547Y0068137D02*
X0200761Y0068137D01*
X0199513Y0069736D02*
X0232547Y0069736D01*
X0232547Y0071334D02*
X0164305Y0071334D01*
X0164280Y0072933D02*
X0232547Y0072933D01*
X0232547Y0074532D02*
X0164256Y0074532D01*
X0164232Y0076130D02*
X0186878Y0076130D01*
X0186348Y0076660D02*
X0187642Y0075366D01*
X0189333Y0074665D01*
X0197163Y0074665D01*
X0198853Y0075366D01*
X0200147Y0076660D01*
X0200848Y0078350D01*
X0200848Y0080180D01*
X0200147Y0081871D01*
X0198853Y0083165D01*
X0197163Y0083865D01*
X0189333Y0083865D01*
X0187642Y0083165D01*
X0186348Y0081871D01*
X0185648Y0080180D01*
X0185648Y0078350D01*
X0186348Y0076660D01*
X0185905Y0077729D02*
X0164208Y0077729D01*
X0164874Y0079327D02*
X0185648Y0079327D01*
X0185956Y0080926D02*
X0165338Y0080926D01*
X0165067Y0082524D02*
X0187001Y0082524D01*
X0185399Y0084460D02*
X0186406Y0085468D01*
X0186952Y0086784D01*
X0186952Y0087104D01*
X0199281Y0087104D01*
X0200163Y0087469D01*
X0200838Y0088144D01*
X0211302Y0098608D01*
X0211166Y0098189D01*
X0211048Y0097443D01*
X0211048Y0097265D01*
X0218648Y0097265D01*
X0218648Y0096865D01*
X0219048Y0096865D01*
X0219048Y0097265D01*
X0226648Y0097265D01*
X0226648Y0097443D01*
X0226530Y0098189D01*
X0226296Y0098908D01*
X0225953Y0099581D01*
X0225509Y0100192D01*
X0224975Y0100727D01*
X0224363Y0101171D01*
X0223690Y0101514D01*
X0222972Y0101747D01*
X0222226Y0101865D01*
X0219048Y0101865D01*
X0219048Y0097265D01*
X0218648Y0097265D01*
X0218648Y0101865D01*
X0215470Y0101865D01*
X0214724Y0101747D01*
X0214144Y0101559D01*
X0214432Y0102255D01*
X0214432Y0106477D01*
X0214067Y0107359D01*
X0213391Y0108035D01*
X0213172Y0108254D01*
X0213172Y0109593D01*
X0214818Y0108912D01*
X0216648Y0108912D01*
X0218338Y0109612D01*
X0219632Y0110906D01*
X0220333Y0112597D01*
X0220333Y0120427D01*
X0219632Y0122117D01*
X0218338Y0123411D01*
X0216648Y0124112D01*
X0214818Y0124112D01*
X0213172Y0123430D01*
X0213172Y0123887D01*
X0213219Y0124138D01*
X0213172Y0124360D01*
X0213172Y0124588D01*
X0213075Y0124823D01*
X0213015Y0125108D01*
X0213015Y0126726D01*
X0219503Y0126726D01*
X0220440Y0127663D01*
X0220440Y0134888D01*
X0219503Y0135826D01*
X0218290Y0135826D01*
X0218290Y0166935D01*
X0227059Y0175703D01*
X0227424Y0176586D01*
X0227424Y0195619D01*
X0228414Y0196609D01*
X0228960Y0197925D01*
X0228960Y0199350D01*
X0228414Y0200666D01*
X0227407Y0201674D01*
X0226091Y0202219D01*
X0224666Y0202219D01*
X0223350Y0201674D01*
X0222343Y0200666D01*
X0221797Y0199350D01*
X0221797Y0197925D01*
X0222343Y0196609D01*
X0222624Y0196328D01*
X0222624Y0178057D01*
X0214531Y0169964D01*
X0213856Y0169289D01*
X0213490Y0168407D01*
X0213490Y0135826D01*
X0213015Y0135826D01*
X0213015Y0142847D01*
X0213051Y0143202D01*
X0213015Y0143321D01*
X0213015Y0143446D01*
X0212878Y0143775D01*
X0212776Y0144116D01*
X0212697Y0144213D01*
X0212649Y0144328D01*
X0212397Y0144580D01*
X0208681Y0149134D01*
X0208634Y0149249D01*
X0208382Y0149501D01*
X0208157Y0149777D01*
X0208047Y0149836D01*
X0207958Y0149924D01*
X0207629Y0150061D01*
X0207316Y0150229D01*
X0207192Y0150242D01*
X0207076Y0150290D01*
X0206720Y0150290D01*
X0206366Y0150326D01*
X0206246Y0150290D01*
X0131035Y0150290D01*
X0130399Y0150926D01*
X0129083Y0151471D01*
X0127658Y0151471D01*
X0126342Y0150926D01*
X0125335Y0149918D01*
X0124789Y0148602D01*
X0124789Y0147177D01*
X0125335Y0145861D01*
X0126342Y0144854D01*
X0127658Y0144309D01*
X0129083Y0144309D01*
X0130399Y0144854D01*
X0131035Y0145490D01*
X0205460Y0145490D01*
X0208215Y0142114D01*
X0208215Y0135238D01*
X0206795Y0135826D01*
X0204985Y0135826D01*
X0203313Y0135133D01*
X0202033Y0133853D01*
X0201340Y0132181D01*
X0201340Y0130371D01*
X0202033Y0128698D01*
X0203313Y0127418D01*
X0204985Y0126726D01*
X0206795Y0126726D01*
X0208215Y0127314D01*
X0208215Y0125081D01*
X0208168Y0124831D01*
X0208215Y0124608D01*
X0208215Y0124381D01*
X0208312Y0124146D01*
X0208372Y0123860D01*
X0208372Y0123378D01*
X0208338Y0123411D01*
X0206648Y0124112D01*
X0204818Y0124112D01*
X0203127Y0123411D01*
X0201833Y0122117D01*
X0201133Y0120427D01*
X0201133Y0112597D01*
X0201833Y0110906D01*
X0203127Y0109612D01*
X0204818Y0108912D01*
X0206648Y0108912D01*
X0208338Y0109612D01*
X0208372Y0109646D01*
X0208372Y0106782D01*
X0208738Y0105900D01*
X0209632Y0105006D01*
X0209632Y0103726D01*
X0197810Y0091904D01*
X0184901Y0091904D01*
X0184019Y0091539D01*
X0183558Y0091077D01*
X0182658Y0091077D01*
X0181342Y0090532D01*
X0180335Y0089525D01*
X0179789Y0088208D01*
X0179789Y0086784D01*
X0180335Y0085468D01*
X0181342Y0084460D01*
X0182658Y0083915D01*
X0184083Y0083915D01*
X0185399Y0084460D01*
X0184584Y0084123D02*
X0232547Y0084123D01*
X0232547Y0085721D02*
X0186512Y0085721D01*
X0183371Y0087496D02*
X0185378Y0089504D01*
X0198804Y0089504D01*
X0212032Y0102732D01*
X0212032Y0106000D01*
X0210772Y0107260D01*
X0210772Y0124110D01*
X0210615Y0124858D01*
X0210615Y0142969D01*
X0206599Y0147890D01*
X0128371Y0147890D01*
X0125085Y0146465D02*
X0120418Y0146465D01*
X0122017Y0148063D02*
X0124789Y0148063D01*
X0125228Y0149662D02*
X0123615Y0149662D01*
X0125214Y0151260D02*
X0127149Y0151260D01*
X0126812Y0152859D02*
X0213490Y0152859D01*
X0213490Y0154457D02*
X0128411Y0154457D01*
X0130009Y0156056D02*
X0213490Y0156056D01*
X0213490Y0157654D02*
X0131608Y0157654D01*
X0133206Y0159253D02*
X0213490Y0159253D01*
X0213490Y0160851D02*
X0134805Y0160851D01*
X0136403Y0162450D02*
X0213490Y0162450D01*
X0213490Y0164048D02*
X0138002Y0164048D01*
X0139600Y0165647D02*
X0213490Y0165647D01*
X0213490Y0167245D02*
X0141199Y0167245D01*
X0142797Y0168844D02*
X0213671Y0168844D01*
X0215009Y0170442D02*
X0145339Y0170442D01*
X0145264Y0170411D02*
X0146580Y0170956D01*
X0147588Y0171964D01*
X0148133Y0173280D01*
X0148133Y0174704D01*
X0147588Y0176021D01*
X0146580Y0177028D01*
X0145264Y0177573D01*
X0144365Y0177573D01*
X0138290Y0183648D01*
X0138290Y0187345D01*
X0138468Y0187418D01*
X0139748Y0188698D01*
X0140440Y0190371D01*
X0140440Y0192181D01*
X0139748Y0193853D01*
X0138468Y0195133D01*
X0136795Y0195826D01*
X0134985Y0195826D01*
X0133313Y0195133D01*
X0132033Y0193853D01*
X0131340Y0192181D01*
X0131340Y0190371D01*
X0132033Y0188698D01*
X0133313Y0187418D01*
X0133490Y0187345D01*
X0133490Y0182176D01*
X0133856Y0181294D01*
X0134531Y0180619D01*
X0140971Y0174179D01*
X0140971Y0173805D01*
X0113856Y0146690D01*
X0113490Y0145808D01*
X0113490Y0135206D01*
X0113313Y0135133D01*
X0112033Y0133853D01*
X0111340Y0132181D01*
X0111340Y0130371D01*
X0112033Y0128698D01*
X0113313Y0127418D01*
X0114985Y0126726D01*
X0116795Y0126726D01*
X0118468Y0127418D01*
X0119748Y0128698D01*
X0120440Y0130371D01*
X0120440Y0132181D01*
X0119748Y0133853D01*
X0118468Y0135133D01*
X0118290Y0135206D01*
X0118290Y0144337D01*
X0144365Y0170411D01*
X0145264Y0170411D01*
X0147620Y0172041D02*
X0216608Y0172041D01*
X0218206Y0173639D02*
X0148133Y0173639D01*
X0147912Y0175238D02*
X0219805Y0175238D01*
X0221403Y0176836D02*
X0146772Y0176836D01*
X0144552Y0173992D02*
X0115890Y0145331D01*
X0115890Y0131276D01*
X0113641Y0127282D02*
X0108475Y0127282D01*
X0108380Y0127213D02*
X0108985Y0127652D01*
X0109513Y0128181D01*
X0109953Y0128786D01*
X0110292Y0129452D01*
X0110523Y0130163D01*
X0110640Y0130902D01*
X0110640Y0131101D01*
X0106065Y0131101D01*
X0106065Y0131451D01*
X0105715Y0131451D01*
X0105715Y0136026D01*
X0105516Y0136026D01*
X0104778Y0135909D01*
X0104067Y0135678D01*
X0103401Y0135338D01*
X0102796Y0134899D01*
X0102267Y0134370D01*
X0101828Y0133765D01*
X0101488Y0133099D01*
X0101257Y0132388D01*
X0101140Y0131649D01*
X0101140Y0131451D01*
X0105715Y0131451D01*
X0105715Y0131101D01*
X0101140Y0131101D01*
X0101140Y0130902D01*
X0101257Y0130163D01*
X0101488Y0129452D01*
X0101828Y0128786D01*
X0102267Y0128181D01*
X0102796Y0127652D01*
X0103401Y0127213D01*
X0104067Y0126874D01*
X0104778Y0126643D01*
X0105516Y0126526D01*
X0105715Y0126526D01*
X0105715Y0131101D01*
X0106065Y0131101D01*
X0106065Y0126526D01*
X0106264Y0126526D01*
X0107003Y0126643D01*
X0107714Y0126874D01*
X0108380Y0127213D01*
X0106065Y0127282D02*
X0105715Y0127282D01*
X0105715Y0128881D02*
X0106065Y0128881D01*
X0106065Y0130479D02*
X0105715Y0130479D01*
X0106065Y0131451D02*
X0110640Y0131451D01*
X0110640Y0131649D01*
X0110523Y0132388D01*
X0110292Y0133099D01*
X0109953Y0133765D01*
X0109513Y0134370D01*
X0108985Y0134899D01*
X0108380Y0135338D01*
X0107714Y0135678D01*
X0107003Y0135909D01*
X0106264Y0136026D01*
X0106065Y0136026D01*
X0106065Y0131451D01*
X0106065Y0132078D02*
X0105715Y0132078D01*
X0105715Y0133676D02*
X0106065Y0133676D01*
X0106065Y0135275D02*
X0105715Y0135275D01*
X0103314Y0135275D02*
X0098125Y0135275D01*
X0098468Y0135133D02*
X0096795Y0135826D01*
X0094985Y0135826D01*
X0093313Y0135133D01*
X0092033Y0133853D01*
X0091340Y0132181D01*
X0091340Y0130371D01*
X0092033Y0128698D01*
X0093313Y0127418D01*
X0094985Y0126726D01*
X0096795Y0126726D01*
X0098468Y0127418D01*
X0099748Y0128698D01*
X0100440Y0130371D01*
X0100440Y0132181D01*
X0099748Y0133853D01*
X0098468Y0135133D01*
X0099821Y0133676D02*
X0101783Y0133676D01*
X0101208Y0132078D02*
X0100440Y0132078D01*
X0100440Y0130479D02*
X0101207Y0130479D01*
X0101779Y0128881D02*
X0099823Y0128881D01*
X0098140Y0127282D02*
X0103305Y0127282D01*
X0104276Y0124085D02*
X0096712Y0124085D01*
X0096648Y0124112D02*
X0094818Y0124112D01*
X0093127Y0123411D01*
X0091833Y0122117D01*
X0091133Y0120427D01*
X0091133Y0112597D01*
X0091833Y0110906D01*
X0093127Y0109612D01*
X0094818Y0108912D01*
X0096648Y0108912D01*
X0098338Y0109612D01*
X0099632Y0110906D01*
X0100333Y0112597D01*
X0100333Y0120427D01*
X0099632Y0122117D01*
X0098338Y0123411D01*
X0096648Y0124112D01*
X0094754Y0124085D02*
X0086712Y0124085D01*
X0086648Y0124112D02*
X0084818Y0124112D01*
X0083127Y0123411D01*
X0081833Y0122117D01*
X0081133Y0120427D01*
X0081133Y0112597D01*
X0081833Y0110906D01*
X0083127Y0109612D01*
X0084818Y0108912D01*
X0086648Y0108912D01*
X0088338Y0109612D01*
X0089632Y0110906D01*
X0090333Y0112597D01*
X0090333Y0120427D01*
X0089632Y0122117D01*
X0088338Y0123411D01*
X0086648Y0124112D01*
X0084754Y0124085D02*
X0076712Y0124085D01*
X0076648Y0124112D02*
X0074818Y0124112D01*
X0073127Y0123411D01*
X0071833Y0122117D01*
X0071133Y0120427D01*
X0071133Y0112597D01*
X0071833Y0110906D01*
X0073127Y0109612D01*
X0074818Y0108912D01*
X0076648Y0108912D01*
X0078338Y0109612D01*
X0079632Y0110906D01*
X0080333Y0112597D01*
X0080333Y0120427D01*
X0079632Y0122117D01*
X0078338Y0123411D01*
X0076648Y0124112D01*
X0074754Y0124085D02*
X0068133Y0124085D01*
X0068133Y0123497D02*
X0068133Y0127280D01*
X0068468Y0127418D01*
X0069748Y0128698D01*
X0070440Y0130371D01*
X0070440Y0132181D01*
X0069748Y0133853D01*
X0068468Y0135133D01*
X0068133Y0135272D01*
X0068133Y0137604D01*
X0084719Y0154191D01*
X0102549Y0154191D01*
X0103404Y0154545D01*
X0117785Y0154545D01*
X0118667Y0154910D01*
X0123814Y0160057D01*
X0124713Y0160057D01*
X0126029Y0160602D01*
X0127036Y0161609D01*
X0127582Y0162925D01*
X0127582Y0164350D01*
X0127036Y0165666D01*
X0126029Y0166674D01*
X0124713Y0167219D01*
X0123288Y0167219D01*
X0121972Y0166674D01*
X0120965Y0165666D01*
X0120419Y0164350D01*
X0120419Y0163451D01*
X0116313Y0159345D01*
X0101948Y0159345D01*
X0101093Y0158991D01*
X0083248Y0158991D01*
X0082365Y0158625D01*
X0081690Y0157950D01*
X0064373Y0140633D01*
X0063698Y0139958D01*
X0063333Y0139076D01*
X0063333Y0135141D01*
X0063313Y0135133D01*
X0062033Y0133853D01*
X0061340Y0132181D01*
X0061340Y0130371D01*
X0062033Y0128698D01*
X0063313Y0127418D01*
X0063333Y0127410D01*
X0063333Y0123497D01*
X0063127Y0123411D01*
X0061833Y0122117D01*
X0061133Y0120427D01*
X0061133Y0112597D01*
X0061833Y0110906D01*
X0063127Y0109612D01*
X0064818Y0108912D01*
X0066648Y0108912D01*
X0068338Y0109612D01*
X0069632Y0110906D01*
X0070333Y0112597D01*
X0070333Y0120427D01*
X0069632Y0122117D01*
X0068338Y0123411D01*
X0068133Y0123497D01*
X0069263Y0122487D02*
X0072202Y0122487D01*
X0071324Y0120888D02*
X0070142Y0120888D01*
X0070333Y0119290D02*
X0071133Y0119290D01*
X0071133Y0117691D02*
X0070333Y0117691D01*
X0070333Y0116093D02*
X0071133Y0116093D01*
X0071133Y0114494D02*
X0070333Y0114494D01*
X0070333Y0112896D02*
X0071133Y0112896D01*
X0071671Y0111297D02*
X0069795Y0111297D01*
X0068425Y0109699D02*
X0073040Y0109699D01*
X0078425Y0109699D02*
X0083040Y0109699D01*
X0081671Y0111297D02*
X0079795Y0111297D01*
X0080333Y0112896D02*
X0081133Y0112896D01*
X0081133Y0114494D02*
X0080333Y0114494D01*
X0080333Y0116093D02*
X0081133Y0116093D01*
X0081133Y0117691D02*
X0080333Y0117691D01*
X0080333Y0119290D02*
X0081133Y0119290D01*
X0081324Y0120888D02*
X0080142Y0120888D01*
X0079263Y0122487D02*
X0082202Y0122487D01*
X0083641Y0127282D02*
X0078140Y0127282D01*
X0078468Y0127418D02*
X0079748Y0128698D01*
X0080440Y0130371D01*
X0080440Y0132181D01*
X0079748Y0133853D01*
X0078468Y0135133D01*
X0076795Y0135826D01*
X0074985Y0135826D01*
X0073313Y0135133D01*
X0072033Y0133853D01*
X0071340Y0132181D01*
X0071340Y0130371D01*
X0072033Y0128698D01*
X0073313Y0127418D01*
X0074985Y0126726D01*
X0076795Y0126726D01*
X0078468Y0127418D01*
X0079823Y0128881D02*
X0081957Y0128881D01*
X0082033Y0128698D02*
X0083313Y0127418D01*
X0084985Y0126726D01*
X0086795Y0126726D01*
X0088468Y0127418D01*
X0089748Y0128698D01*
X0090440Y0130371D01*
X0090440Y0132181D01*
X0089748Y0133853D01*
X0088468Y0135133D01*
X0086795Y0135826D01*
X0084985Y0135826D01*
X0083313Y0135133D01*
X0082033Y0133853D01*
X0081340Y0132181D01*
X0081340Y0130371D01*
X0082033Y0128698D01*
X0081340Y0130479D02*
X0080440Y0130479D01*
X0080440Y0132078D02*
X0081340Y0132078D01*
X0081960Y0133676D02*
X0079821Y0133676D01*
X0078125Y0135275D02*
X0083656Y0135275D01*
X0088125Y0135275D02*
X0093656Y0135275D01*
X0091960Y0133676D02*
X0089821Y0133676D01*
X0090440Y0132078D02*
X0091340Y0132078D01*
X0091340Y0130479D02*
X0090440Y0130479D01*
X0089823Y0128881D02*
X0091957Y0128881D01*
X0093641Y0127282D02*
X0088140Y0127282D01*
X0089263Y0122487D02*
X0092202Y0122487D01*
X0091324Y0120888D02*
X0090142Y0120888D01*
X0090333Y0119290D02*
X0091133Y0119290D01*
X0091133Y0117691D02*
X0090333Y0117691D01*
X0090333Y0116093D02*
X0091133Y0116093D01*
X0091133Y0114494D02*
X0090333Y0114494D01*
X0090333Y0112896D02*
X0091133Y0112896D01*
X0091671Y0111297D02*
X0089795Y0111297D01*
X0088425Y0109699D02*
X0093040Y0109699D01*
X0098425Y0109699D02*
X0102815Y0109699D01*
X0102606Y0109851D02*
X0103217Y0109406D01*
X0103890Y0109063D01*
X0104609Y0108830D01*
X0105355Y0108712D01*
X0105533Y0108712D01*
X0105533Y0116312D01*
X0100933Y0116312D01*
X0100933Y0113134D01*
X0101051Y0112388D01*
X0101284Y0111669D01*
X0101627Y0110996D01*
X0102072Y0110385D01*
X0102606Y0109851D01*
X0101474Y0111297D02*
X0099795Y0111297D01*
X0100333Y0112896D02*
X0100971Y0112896D01*
X0100933Y0114494D02*
X0100333Y0114494D01*
X0100333Y0116093D02*
X0100933Y0116093D01*
X0100933Y0116712D02*
X0105533Y0116712D01*
X0105533Y0124312D01*
X0105355Y0124312D01*
X0104609Y0124194D01*
X0103890Y0123960D01*
X0103217Y0123617D01*
X0102606Y0123173D01*
X0102072Y0122639D01*
X0101627Y0122028D01*
X0101284Y0121354D01*
X0101051Y0120636D01*
X0100933Y0119890D01*
X0100933Y0116712D01*
X0100933Y0117691D02*
X0100333Y0117691D01*
X0100333Y0119290D02*
X0100933Y0119290D01*
X0101133Y0120888D02*
X0100142Y0120888D01*
X0099263Y0122487D02*
X0101961Y0122487D01*
X0105533Y0122487D02*
X0105933Y0122487D01*
X0105933Y0124085D02*
X0105533Y0124085D01*
X0105933Y0124312D02*
X0105933Y0116712D01*
X0105533Y0116712D01*
X0105533Y0116312D01*
X0105933Y0116312D01*
X0105933Y0116712D01*
X0110533Y0116712D01*
X0110533Y0119890D01*
X0110415Y0120636D01*
X0110181Y0121354D01*
X0109838Y0122028D01*
X0109394Y0122639D01*
X0108860Y0123173D01*
X0108249Y0123617D01*
X0107575Y0123960D01*
X0106857Y0124194D01*
X0106111Y0124312D01*
X0105933Y0124312D01*
X0107190Y0124085D02*
X0114754Y0124085D01*
X0114818Y0124112D02*
X0113127Y0123411D01*
X0111833Y0122117D01*
X0111133Y0120427D01*
X0111133Y0112597D01*
X0111833Y0110906D01*
X0113127Y0109612D01*
X0114818Y0108912D01*
X0116648Y0108912D01*
X0118338Y0109612D01*
X0119632Y0110906D01*
X0120333Y0112597D01*
X0120333Y0120427D01*
X0119632Y0122117D01*
X0118338Y0123411D01*
X0116648Y0124112D01*
X0114818Y0124112D01*
X0116712Y0124085D02*
X0124754Y0124085D01*
X0124818Y0124112D02*
X0123127Y0123411D01*
X0121833Y0122117D01*
X0121133Y0120427D01*
X0121133Y0112597D01*
X0121833Y0110906D01*
X0123127Y0109612D01*
X0124818Y0108912D01*
X0126648Y0108912D01*
X0128338Y0109612D01*
X0129632Y0110906D01*
X0130333Y0112597D01*
X0130333Y0120427D01*
X0129632Y0122117D01*
X0128338Y0123411D01*
X0126648Y0124112D01*
X0124818Y0124112D01*
X0126712Y0124085D02*
X0134754Y0124085D01*
X0134818Y0124112D02*
X0133127Y0123411D01*
X0131833Y0122117D01*
X0131133Y0120427D01*
X0131133Y0112597D01*
X0131833Y0110906D01*
X0133127Y0109612D01*
X0134818Y0108912D01*
X0136648Y0108912D01*
X0138338Y0109612D01*
X0139632Y0110906D01*
X0140333Y0112597D01*
X0140333Y0120427D01*
X0139632Y0122117D01*
X0138338Y0123411D01*
X0136648Y0124112D01*
X0134818Y0124112D01*
X0136712Y0124085D02*
X0144754Y0124085D01*
X0144818Y0124112D02*
X0143127Y0123411D01*
X0141833Y0122117D01*
X0141133Y0120427D01*
X0141133Y0112597D01*
X0141833Y0110906D01*
X0143127Y0109612D01*
X0144818Y0108912D01*
X0146648Y0108912D01*
X0148338Y0109612D01*
X0149632Y0110906D01*
X0150333Y0112597D01*
X0150333Y0120427D01*
X0149632Y0122117D01*
X0148338Y0123411D01*
X0146648Y0124112D01*
X0144818Y0124112D01*
X0146712Y0124085D02*
X0154754Y0124085D01*
X0154818Y0124112D02*
X0153127Y0123411D01*
X0151833Y0122117D01*
X0151133Y0120427D01*
X0151133Y0112597D01*
X0151833Y0110906D01*
X0153127Y0109612D01*
X0154818Y0108912D01*
X0156648Y0108912D01*
X0158338Y0109612D01*
X0159632Y0110906D01*
X0160333Y0112597D01*
X0160333Y0120427D01*
X0159632Y0122117D01*
X0158338Y0123411D01*
X0156648Y0124112D01*
X0154818Y0124112D01*
X0156712Y0124085D02*
X0164754Y0124085D01*
X0164818Y0124112D02*
X0163127Y0123411D01*
X0161833Y0122117D01*
X0161133Y0120427D01*
X0161133Y0112597D01*
X0161833Y0110906D01*
X0163127Y0109612D01*
X0164818Y0108912D01*
X0166648Y0108912D01*
X0168338Y0109612D01*
X0169632Y0110906D01*
X0170333Y0112597D01*
X0170333Y0120427D01*
X0169632Y0122117D01*
X0168338Y0123411D01*
X0166648Y0124112D01*
X0164818Y0124112D01*
X0166712Y0124085D02*
X0174754Y0124085D01*
X0174818Y0124112D02*
X0173127Y0123411D01*
X0171833Y0122117D01*
X0171133Y0120427D01*
X0171133Y0112597D01*
X0171833Y0110906D01*
X0173127Y0109612D01*
X0174818Y0108912D01*
X0176648Y0108912D01*
X0178338Y0109612D01*
X0179632Y0110906D01*
X0180333Y0112597D01*
X0180333Y0120427D01*
X0179632Y0122117D01*
X0178338Y0123411D01*
X0176648Y0124112D01*
X0174818Y0124112D01*
X0176712Y0124085D02*
X0184754Y0124085D01*
X0184818Y0124112D02*
X0183127Y0123411D01*
X0181833Y0122117D01*
X0181133Y0120427D01*
X0181133Y0112597D01*
X0181833Y0110906D01*
X0183127Y0109612D01*
X0184818Y0108912D01*
X0186648Y0108912D01*
X0188338Y0109612D01*
X0189632Y0110906D01*
X0190333Y0112597D01*
X0190333Y0120427D01*
X0189632Y0122117D01*
X0188338Y0123411D01*
X0186648Y0124112D01*
X0184818Y0124112D01*
X0186712Y0124085D02*
X0194754Y0124085D01*
X0194818Y0124112D02*
X0193127Y0123411D01*
X0191833Y0122117D01*
X0191133Y0120427D01*
X0191133Y0112597D01*
X0191833Y0110906D01*
X0193127Y0109612D01*
X0194818Y0108912D01*
X0196648Y0108912D01*
X0198338Y0109612D01*
X0199632Y0110906D01*
X0200333Y0112597D01*
X0200333Y0120427D01*
X0199632Y0122117D01*
X0198338Y0123411D01*
X0196648Y0124112D01*
X0194818Y0124112D01*
X0196712Y0124085D02*
X0204754Y0124085D01*
X0206712Y0124085D02*
X0208325Y0124085D01*
X0208215Y0125684D02*
X0068133Y0125684D01*
X0068140Y0127282D02*
X0073641Y0127282D01*
X0071957Y0128881D02*
X0069823Y0128881D01*
X0070440Y0130479D02*
X0071340Y0130479D01*
X0071340Y0132078D02*
X0070440Y0132078D01*
X0069821Y0133676D02*
X0071960Y0133676D01*
X0073656Y0135275D02*
X0068133Y0135275D01*
X0068133Y0136873D02*
X0113490Y0136873D01*
X0113490Y0135275D02*
X0108467Y0135275D01*
X0109998Y0133676D02*
X0111960Y0133676D01*
X0111340Y0132078D02*
X0110572Y0132078D01*
X0110573Y0130479D02*
X0111340Y0130479D01*
X0111957Y0128881D02*
X0110001Y0128881D01*
X0109504Y0122487D02*
X0112202Y0122487D01*
X0111324Y0120888D02*
X0110333Y0120888D01*
X0110533Y0119290D02*
X0111133Y0119290D01*
X0111133Y0117691D02*
X0110533Y0117691D01*
X0110533Y0116312D02*
X0105933Y0116312D01*
X0105933Y0108712D01*
X0106111Y0108712D01*
X0106857Y0108830D01*
X0107575Y0109063D01*
X0108249Y0109406D01*
X0108860Y0109851D01*
X0109394Y0110385D01*
X0109838Y0110996D01*
X0110181Y0111669D01*
X0110415Y0112388D01*
X0110533Y0113134D01*
X0110533Y0116312D01*
X0110533Y0116093D02*
X0111133Y0116093D01*
X0111133Y0114494D02*
X0110533Y0114494D01*
X0110495Y0112896D02*
X0111133Y0112896D01*
X0111671Y0111297D02*
X0109992Y0111297D01*
X0108651Y0109699D02*
X0113040Y0109699D01*
X0116774Y0108100D02*
X0208372Y0108100D01*
X0208488Y0106502D02*
X0118679Y0106502D01*
X0118999Y0104903D02*
X0209632Y0104903D01*
X0209210Y0103305D02*
X0118999Y0103305D01*
X0118999Y0101706D02*
X0207612Y0101706D01*
X0206013Y0100108D02*
X0199711Y0100108D01*
X0200147Y0099671D02*
X0198853Y0100965D01*
X0197163Y0101665D01*
X0189333Y0101665D01*
X0187642Y0100965D01*
X0186348Y0099671D01*
X0185648Y0097980D01*
X0185648Y0096150D01*
X0186348Y0094460D01*
X0187642Y0093166D01*
X0189333Y0092465D01*
X0197163Y0092465D01*
X0198853Y0093166D01*
X0200147Y0094460D01*
X0200848Y0096150D01*
X0200848Y0097980D01*
X0200147Y0099671D01*
X0200629Y0098509D02*
X0204415Y0098509D01*
X0202816Y0096911D02*
X0200848Y0096911D01*
X0200501Y0095312D02*
X0201218Y0095312D01*
X0199619Y0093714D02*
X0199401Y0093714D01*
X0198021Y0092115D02*
X0118999Y0092115D01*
X0118999Y0090517D02*
X0181327Y0090517D01*
X0180083Y0088918D02*
X0118999Y0088918D01*
X0118999Y0087320D02*
X0179789Y0087320D01*
X0180230Y0085721D02*
X0118021Y0085721D01*
X0116599Y0087693D02*
X0114237Y0085331D01*
X0114237Y0076039D01*
X0118567Y0071709D01*
X0118567Y0058835D01*
X0115300Y0055567D01*
X0118881Y0055349D02*
X0139396Y0055349D01*
X0139396Y0053751D02*
X0118424Y0053751D01*
X0116414Y0052152D02*
X0139396Y0052152D01*
X0139396Y0050554D02*
X0117211Y0050554D01*
X0120480Y0048955D02*
X0139396Y0048955D01*
X0139396Y0047357D02*
X0121243Y0047357D01*
X0121144Y0045758D02*
X0139396Y0045758D01*
X0139593Y0044160D02*
X0120178Y0044160D01*
X0117662Y0046709D02*
X0111875Y0052496D01*
X0098449Y0052496D01*
X0064355Y0086591D01*
X0029079Y0086591D01*
X0026483Y0084123D02*
X0005926Y0084123D01*
X0005926Y0085721D02*
X0025563Y0085721D01*
X0025505Y0087320D02*
X0005926Y0087320D01*
X0005926Y0088918D02*
X0026342Y0088918D01*
X0031676Y0084123D02*
X0063429Y0084123D01*
X0065027Y0082524D02*
X0005926Y0082524D01*
X0005926Y0080926D02*
X0014679Y0080926D01*
X0014103Y0080687D02*
X0015794Y0081387D01*
X0023624Y0081387D01*
X0025315Y0080687D01*
X0026609Y0079393D01*
X0027309Y0077702D01*
X0027309Y0075872D01*
X0026609Y0074182D01*
X0025315Y0072888D01*
X0023624Y0072187D01*
X0015794Y0072187D01*
X0014103Y0072888D01*
X0012809Y0074182D01*
X0012109Y0075872D01*
X0012109Y0077702D01*
X0012809Y0079393D01*
X0014103Y0080687D01*
X0012782Y0079327D02*
X0005926Y0079327D01*
X0005926Y0077729D02*
X0012120Y0077729D01*
X0012109Y0076130D02*
X0005926Y0076130D01*
X0005926Y0074532D02*
X0012665Y0074532D01*
X0014058Y0072933D02*
X0005926Y0072933D01*
X0005926Y0071334D02*
X0015666Y0071334D01*
X0015794Y0071387D02*
X0014103Y0070687D01*
X0012809Y0069393D01*
X0012109Y0067702D01*
X0012109Y0065872D01*
X0012809Y0064182D01*
X0014103Y0062888D01*
X0015794Y0062187D01*
X0023624Y0062187D01*
X0025315Y0062888D01*
X0026609Y0064182D01*
X0027309Y0065872D01*
X0027309Y0067702D01*
X0026609Y0069393D01*
X0025315Y0070687D01*
X0023624Y0071387D01*
X0015794Y0071387D01*
X0013152Y0069736D02*
X0005926Y0069736D01*
X0005926Y0068137D02*
X0012289Y0068137D01*
X0012109Y0066539D02*
X0005926Y0066539D01*
X0005926Y0064940D02*
X0012495Y0064940D01*
X0013649Y0063342D02*
X0005926Y0063342D01*
X0005926Y0061743D02*
X0085808Y0061743D01*
X0087406Y0060145D02*
X0026140Y0060145D01*
X0026370Y0059914D02*
X0025836Y0060449D01*
X0025225Y0060893D01*
X0024552Y0061236D01*
X0023833Y0061469D01*
X0023087Y0061587D01*
X0019909Y0061587D01*
X0019909Y0056987D01*
X0027509Y0056987D01*
X0027509Y0057165D01*
X0027391Y0057911D01*
X0027158Y0058630D01*
X0026814Y0059303D01*
X0026370Y0059914D01*
X0027185Y0058546D02*
X0089005Y0058546D01*
X0090603Y0056948D02*
X0077381Y0056948D01*
X0077552Y0056877D02*
X0075568Y0057699D01*
X0065819Y0057699D01*
X0063835Y0056877D01*
X0062316Y0055358D01*
X0061493Y0053373D01*
X0061493Y0051225D01*
X0062316Y0049240D01*
X0063835Y0047721D01*
X0065819Y0046899D01*
X0075568Y0046899D01*
X0077552Y0047721D01*
X0079071Y0049240D01*
X0079893Y0051225D01*
X0079893Y0053373D01*
X0079071Y0055358D01*
X0077552Y0056877D01*
X0079075Y0055349D02*
X0092202Y0055349D01*
X0093800Y0053751D02*
X0079737Y0053751D01*
X0079893Y0052152D02*
X0095399Y0052152D01*
X0096997Y0050554D02*
X0079615Y0050554D01*
X0078786Y0048955D02*
X0112021Y0048955D01*
X0113620Y0047357D02*
X0076672Y0047357D01*
X0064715Y0047357D02*
X0046672Y0047357D01*
X0047552Y0047721D02*
X0045568Y0046899D01*
X0035819Y0046899D01*
X0033835Y0047721D01*
X0032316Y0049240D01*
X0031493Y0051225D01*
X0031493Y0053373D01*
X0032316Y0055358D01*
X0033835Y0056877D01*
X0035819Y0057699D01*
X0045568Y0057699D01*
X0047552Y0056877D01*
X0049071Y0055358D01*
X0049893Y0053373D01*
X0049893Y0051225D01*
X0049071Y0049240D01*
X0047552Y0047721D01*
X0048786Y0048955D02*
X0062601Y0048955D01*
X0061771Y0050554D02*
X0049615Y0050554D01*
X0049893Y0052152D02*
X0061493Y0052152D01*
X0061650Y0053751D02*
X0049737Y0053751D01*
X0049075Y0055349D02*
X0062312Y0055349D01*
X0064005Y0056948D02*
X0047381Y0056948D01*
X0034005Y0056948D02*
X0019909Y0056948D01*
X0019909Y0056987D02*
X0019909Y0056587D01*
X0019909Y0051987D01*
X0023087Y0051987D01*
X0023833Y0052106D01*
X0024552Y0052339D01*
X0025225Y0052682D01*
X0025836Y0053126D01*
X0026370Y0053660D01*
X0026814Y0054272D01*
X0027158Y0054945D01*
X0027391Y0055663D01*
X0027509Y0056410D01*
X0027509Y0056587D01*
X0019909Y0056587D01*
X0019509Y0056587D01*
X0019509Y0051987D01*
X0016331Y0051987D01*
X0015585Y0052106D01*
X0014867Y0052339D01*
X0014193Y0052682D01*
X0013582Y0053126D01*
X0013048Y0053660D01*
X0012604Y0054272D01*
X0012261Y0054945D01*
X0012027Y0055663D01*
X0011909Y0056410D01*
X0011909Y0056587D01*
X0019509Y0056587D01*
X0019509Y0056987D01*
X0011909Y0056987D01*
X0011909Y0057165D01*
X0012027Y0057911D01*
X0012261Y0058630D01*
X0012604Y0059303D01*
X0013048Y0059914D01*
X0013582Y0060449D01*
X0014193Y0060893D01*
X0014867Y0061236D01*
X0015585Y0061469D01*
X0016331Y0061587D01*
X0019509Y0061587D01*
X0019509Y0056987D01*
X0019909Y0056987D01*
X0019509Y0056948D02*
X0005926Y0056948D01*
X0005926Y0058546D02*
X0012234Y0058546D01*
X0013278Y0060145D02*
X0005926Y0060145D01*
X0005926Y0055349D02*
X0012129Y0055349D01*
X0012982Y0053751D02*
X0005926Y0053751D01*
X0005926Y0052152D02*
X0015441Y0052152D01*
X0019509Y0052152D02*
X0019909Y0052152D01*
X0019909Y0053751D02*
X0019509Y0053751D01*
X0019509Y0055349D02*
X0019909Y0055349D01*
X0019909Y0058546D02*
X0019509Y0058546D01*
X0019509Y0060145D02*
X0019909Y0060145D01*
X0025769Y0063342D02*
X0084209Y0063342D01*
X0082611Y0064940D02*
X0026923Y0064940D01*
X0027309Y0066539D02*
X0081012Y0066539D01*
X0079414Y0068137D02*
X0027129Y0068137D01*
X0026266Y0069736D02*
X0077815Y0069736D01*
X0076217Y0071334D02*
X0023752Y0071334D01*
X0025360Y0072933D02*
X0074618Y0072933D01*
X0073020Y0074532D02*
X0026754Y0074532D01*
X0027309Y0076130D02*
X0071421Y0076130D01*
X0069823Y0077729D02*
X0027298Y0077729D01*
X0026636Y0079327D02*
X0068224Y0079327D01*
X0066626Y0080926D02*
X0024739Y0080926D01*
X0018725Y0091472D02*
X0069434Y0091472D01*
X0087544Y0073362D01*
X0108056Y0073362D01*
X0111447Y0074532D02*
X0112350Y0074532D01*
X0111837Y0076130D02*
X0110352Y0076130D01*
X0111837Y0077729D02*
X0086572Y0077729D01*
X0084973Y0079327D02*
X0111837Y0079327D01*
X0111837Y0080926D02*
X0083375Y0080926D01*
X0081776Y0082524D02*
X0111837Y0082524D01*
X0111837Y0084123D02*
X0080178Y0084123D01*
X0078579Y0085721D02*
X0111837Y0085721D01*
X0112832Y0087320D02*
X0076981Y0087320D01*
X0075382Y0088918D02*
X0114199Y0088918D01*
X0114199Y0090517D02*
X0106367Y0090517D01*
X0106074Y0090224D02*
X0107143Y0091293D01*
X0107722Y0092690D01*
X0107722Y0098602D01*
X0107143Y0099998D01*
X0106074Y0101067D01*
X0104678Y0101646D01*
X0103166Y0101646D01*
X0101769Y0101067D01*
X0100700Y0099998D01*
X0100122Y0098602D01*
X0100122Y0092690D01*
X0100700Y0091293D01*
X0101769Y0090224D01*
X0103166Y0089646D01*
X0104678Y0089646D01*
X0106074Y0090224D01*
X0107484Y0092115D02*
X0114199Y0092115D01*
X0114199Y0093714D02*
X0107722Y0093714D01*
X0107722Y0095312D02*
X0114199Y0095312D01*
X0114199Y0096911D02*
X0107722Y0096911D01*
X0107722Y0098509D02*
X0114199Y0098509D01*
X0114199Y0100108D02*
X0107034Y0100108D01*
X0100810Y0100108D02*
X0087034Y0100108D01*
X0087143Y0099998D02*
X0086074Y0101067D01*
X0084678Y0101646D01*
X0083166Y0101646D01*
X0081769Y0101067D01*
X0080700Y0099998D01*
X0080122Y0098602D01*
X0080122Y0092690D01*
X0080700Y0091293D01*
X0081769Y0090224D01*
X0083166Y0089646D01*
X0084678Y0089646D01*
X0086074Y0090224D01*
X0087143Y0091293D01*
X0087722Y0092690D01*
X0087722Y0098602D01*
X0087143Y0099998D01*
X0087722Y0098509D02*
X0100122Y0098509D01*
X0100122Y0096911D02*
X0087722Y0096911D01*
X0087722Y0095312D02*
X0100122Y0095312D01*
X0100122Y0093714D02*
X0087722Y0093714D01*
X0087484Y0092115D02*
X0100360Y0092115D01*
X0101477Y0090517D02*
X0086367Y0090517D01*
X0081477Y0090517D02*
X0073783Y0090517D01*
X0072185Y0092115D02*
X0080360Y0092115D01*
X0080122Y0093714D02*
X0070294Y0093714D01*
X0068594Y0088918D02*
X0065007Y0088918D01*
X0067020Y0087320D02*
X0070192Y0087320D01*
X0068618Y0085721D02*
X0071791Y0085721D01*
X0070217Y0084123D02*
X0073389Y0084123D01*
X0071815Y0082524D02*
X0074988Y0082524D01*
X0073414Y0080926D02*
X0076586Y0080926D01*
X0075012Y0079327D02*
X0078185Y0079327D01*
X0076611Y0077729D02*
X0079783Y0077729D01*
X0078209Y0076130D02*
X0081382Y0076130D01*
X0079808Y0074532D02*
X0082980Y0074532D01*
X0081406Y0072933D02*
X0084579Y0072933D01*
X0083005Y0071334D02*
X0086177Y0071334D01*
X0084604Y0069736D02*
X0108550Y0069736D01*
X0108097Y0068137D02*
X0086202Y0068137D01*
X0087801Y0066539D02*
X0108377Y0066539D01*
X0109602Y0064940D02*
X0089399Y0064940D01*
X0090998Y0063342D02*
X0116167Y0063342D01*
X0116167Y0064940D02*
X0113753Y0064940D01*
X0114978Y0066539D02*
X0116167Y0066539D01*
X0116167Y0068137D02*
X0115259Y0068137D01*
X0114805Y0069736D02*
X0116167Y0069736D01*
X0115547Y0071334D02*
X0112814Y0071334D01*
X0113949Y0072933D02*
X0111637Y0072933D01*
X0105759Y0076130D02*
X0088170Y0076130D01*
X0092596Y0061743D02*
X0116167Y0061743D01*
X0116167Y0060145D02*
X0094195Y0060145D01*
X0095793Y0058546D02*
X0113215Y0058546D01*
X0111996Y0056948D02*
X0097392Y0056948D01*
X0098990Y0055349D02*
X0111719Y0055349D01*
X0108571Y0047180D02*
X0107146Y0047180D01*
X0105830Y0046634D01*
X0104823Y0045627D01*
X0104683Y0045290D01*
X0025405Y0045290D01*
X0024769Y0045926D01*
X0023453Y0046471D01*
X0022028Y0046471D01*
X0020712Y0045926D01*
X0019705Y0044918D01*
X0019160Y0043602D01*
X0019160Y0042177D01*
X0019705Y0040861D01*
X0020712Y0039854D01*
X0022028Y0039309D01*
X0023453Y0039309D01*
X0024769Y0039854D01*
X0025405Y0040490D01*
X0106006Y0040490D01*
X0107146Y0040017D01*
X0108571Y0040017D01*
X0109887Y0040563D01*
X0110895Y0041570D01*
X0111440Y0042886D01*
X0111440Y0044311D01*
X0110895Y0045627D01*
X0109887Y0046634D01*
X0108571Y0047180D01*
X0110763Y0045758D02*
X0114179Y0045758D01*
X0115146Y0044160D02*
X0111440Y0044160D01*
X0111305Y0042561D02*
X0139593Y0042561D01*
X0139593Y0040963D02*
X0110288Y0040963D01*
X0107859Y0043598D02*
X0107150Y0042890D01*
X0022741Y0042890D01*
X0019391Y0044160D02*
X0005926Y0044160D01*
X0005926Y0045758D02*
X0020545Y0045758D01*
X0019160Y0042561D02*
X0005926Y0042561D01*
X0005926Y0040963D02*
X0019663Y0040963D01*
X0021894Y0039364D02*
X0005926Y0039364D01*
X0005926Y0037766D02*
X0122991Y0037766D01*
X0122753Y0036167D02*
X0005926Y0036167D01*
X0005926Y0034569D02*
X0122753Y0034569D01*
X0124022Y0039364D02*
X0023587Y0039364D01*
X0024937Y0045758D02*
X0104954Y0045758D01*
X0108888Y0024978D02*
X0096483Y0024978D01*
X0095078Y0026383D02*
X0098438Y0023022D01*
X0098438Y0020830D01*
X0092886Y0020830D01*
X0092886Y0020461D01*
X0098438Y0020461D01*
X0098438Y0018269D01*
X0095078Y0014909D01*
X0092886Y0014909D01*
X0092886Y0020461D01*
X0092517Y0020461D01*
X0092517Y0014909D01*
X0090325Y0014909D01*
X0086964Y0018269D01*
X0086964Y0020461D01*
X0092517Y0020461D01*
X0092517Y0020830D01*
X0092517Y0026383D01*
X0090325Y0026383D01*
X0086964Y0023022D01*
X0086964Y0020830D01*
X0092517Y0020830D01*
X0092886Y0020830D01*
X0092886Y0026383D01*
X0095078Y0026383D01*
X0092886Y0024978D02*
X0092517Y0024978D01*
X0092517Y0023379D02*
X0092886Y0023379D01*
X0092886Y0021781D02*
X0092517Y0021781D01*
X0092517Y0020182D02*
X0092886Y0020182D01*
X0092886Y0018584D02*
X0092517Y0018584D01*
X0092517Y0016985D02*
X0092886Y0016985D01*
X0092886Y0015387D02*
X0092517Y0015387D01*
X0089847Y0015387D02*
X0073462Y0015387D01*
X0073144Y0015069D02*
X0076388Y0018313D01*
X0076388Y0022900D01*
X0073144Y0026143D01*
X0068557Y0026143D01*
X0065314Y0022900D01*
X0065314Y0018313D01*
X0068557Y0015069D01*
X0073144Y0015069D01*
X0075060Y0016985D02*
X0088248Y0016985D01*
X0086964Y0018584D02*
X0076388Y0018584D01*
X0076388Y0020182D02*
X0086964Y0020182D01*
X0086964Y0021781D02*
X0076388Y0021781D01*
X0075909Y0023379D02*
X0087321Y0023379D01*
X0088920Y0024978D02*
X0074310Y0024978D01*
X0067392Y0024978D02*
X0054908Y0024978D01*
X0053542Y0026343D02*
X0056903Y0022983D01*
X0056903Y0020791D01*
X0051350Y0020791D01*
X0050982Y0020791D01*
X0050982Y0026343D01*
X0048790Y0026343D01*
X0045429Y0022983D01*
X0045429Y0020791D01*
X0050982Y0020791D01*
X0050982Y0020422D01*
X0051350Y0020422D01*
X0051350Y0014869D01*
X0053542Y0014869D01*
X0056903Y0018230D01*
X0056903Y0020422D01*
X0051350Y0020422D01*
X0051350Y0020791D01*
X0051350Y0026343D01*
X0053542Y0026343D01*
X0051350Y0024978D02*
X0050982Y0024978D01*
X0050982Y0023379D02*
X0051350Y0023379D01*
X0051350Y0021781D02*
X0050982Y0021781D01*
X0050982Y0020422D02*
X0045429Y0020422D01*
X0045429Y0018230D01*
X0048790Y0014869D01*
X0050982Y0014869D01*
X0050982Y0020422D01*
X0050982Y0020182D02*
X0051350Y0020182D01*
X0051350Y0018584D02*
X0050982Y0018584D01*
X0050982Y0016985D02*
X0051350Y0016985D01*
X0051350Y0015387D02*
X0050982Y0015387D01*
X0048272Y0015387D02*
X0031975Y0015387D01*
X0031975Y0016985D02*
X0046674Y0016985D01*
X0045429Y0018584D02*
X0031975Y0018584D01*
X0031587Y0020182D02*
X0045429Y0020182D01*
X0045429Y0021781D02*
X0031159Y0021781D01*
X0030482Y0023379D02*
X0045825Y0023379D01*
X0047424Y0024978D02*
X0029559Y0024978D01*
X0031714Y0013788D02*
X0132353Y0013788D01*
X0132353Y0012190D02*
X0031286Y0012190D01*
X0030756Y0010591D02*
X0132727Y0010591D01*
X0133865Y0008993D02*
X0029833Y0008993D01*
X0028875Y0007394D02*
X0209598Y0007394D01*
X0199332Y0027595D02*
X0197789Y0026956D01*
X0196118Y0026956D01*
X0194574Y0027595D01*
X0193393Y0028777D01*
X0192753Y0030320D01*
X0192753Y0037191D01*
X0193393Y0038735D01*
X0194574Y0039916D01*
X0196118Y0040556D01*
X0197789Y0040556D01*
X0199332Y0039916D01*
X0200514Y0038735D01*
X0201153Y0037191D01*
X0201153Y0030320D01*
X0200514Y0028777D01*
X0199332Y0027595D01*
X0199912Y0028175D02*
X0211671Y0028175D01*
X0213959Y0029773D02*
X0200927Y0029773D01*
X0201153Y0031372D02*
X0217833Y0031372D01*
X0225365Y0031372D02*
X0232547Y0031372D01*
X0232547Y0032970D02*
X0201153Y0032970D01*
X0201153Y0034569D02*
X0232547Y0034569D01*
X0232547Y0036167D02*
X0201153Y0036167D01*
X0200915Y0037766D02*
X0232547Y0037766D01*
X0232547Y0039364D02*
X0199885Y0039364D01*
X0194022Y0039364D02*
X0189885Y0039364D01*
X0190915Y0037766D02*
X0192991Y0037766D01*
X0192753Y0036167D02*
X0191153Y0036167D01*
X0191153Y0034569D02*
X0192753Y0034569D01*
X0192753Y0032970D02*
X0191153Y0032970D01*
X0191153Y0031372D02*
X0192753Y0031372D01*
X0192980Y0029773D02*
X0190927Y0029773D01*
X0189912Y0028175D02*
X0193995Y0028175D01*
X0187789Y0056956D02*
X0189332Y0057595D01*
X0190514Y0058777D01*
X0191153Y0060320D01*
X0191153Y0067191D01*
X0190514Y0068735D01*
X0189332Y0069916D01*
X0187789Y0070556D01*
X0186118Y0070556D01*
X0184574Y0069916D01*
X0183393Y0068735D01*
X0182753Y0067191D01*
X0182753Y0060320D01*
X0183393Y0058777D01*
X0184574Y0057595D01*
X0186118Y0056956D01*
X0187789Y0056956D01*
X0190283Y0058546D02*
X0193623Y0058546D01*
X0192826Y0060145D02*
X0191081Y0060145D01*
X0191153Y0061743D02*
X0192753Y0061743D01*
X0192753Y0063342D02*
X0191153Y0063342D01*
X0191153Y0064940D02*
X0192753Y0064940D01*
X0192753Y0066539D02*
X0191153Y0066539D01*
X0190761Y0068137D02*
X0193145Y0068137D01*
X0194394Y0069736D02*
X0189513Y0069736D01*
X0184394Y0069736D02*
X0179513Y0069736D01*
X0179332Y0069916D02*
X0177789Y0070556D01*
X0176118Y0070556D01*
X0174574Y0069916D01*
X0173393Y0068735D01*
X0172753Y0067191D01*
X0172753Y0060320D01*
X0173393Y0058777D01*
X0174574Y0057595D01*
X0176118Y0056956D01*
X0177789Y0056956D01*
X0179332Y0057595D01*
X0180514Y0058777D01*
X0181153Y0060320D01*
X0181153Y0067191D01*
X0180514Y0068735D01*
X0179332Y0069916D01*
X0180761Y0068137D02*
X0183145Y0068137D01*
X0182753Y0066539D02*
X0181153Y0066539D01*
X0181153Y0064940D02*
X0182753Y0064940D01*
X0182753Y0063342D02*
X0181153Y0063342D01*
X0181153Y0061743D02*
X0182753Y0061743D01*
X0182826Y0060145D02*
X0181081Y0060145D01*
X0180283Y0058546D02*
X0183623Y0058546D01*
X0174394Y0069736D02*
X0169787Y0069736D01*
X0170984Y0068137D02*
X0173145Y0068137D01*
X0172753Y0066539D02*
X0171353Y0066539D01*
X0171353Y0064940D02*
X0172753Y0064940D01*
X0172753Y0063342D02*
X0171353Y0063342D01*
X0171353Y0061743D02*
X0172753Y0061743D01*
X0172826Y0060145D02*
X0171248Y0060145D01*
X0170496Y0058546D02*
X0173623Y0058546D01*
X0166953Y0058546D02*
X0166953Y0058546D01*
X0166953Y0060145D02*
X0166953Y0060145D01*
X0166953Y0061743D02*
X0166953Y0061743D01*
X0166953Y0063342D02*
X0166953Y0063342D01*
X0166953Y0064940D02*
X0166953Y0064940D01*
X0166953Y0066539D02*
X0166953Y0066539D01*
X0166953Y0068137D02*
X0166953Y0068137D01*
X0166953Y0069736D02*
X0166953Y0069736D01*
X0159681Y0056948D02*
X0158241Y0056948D01*
X0156953Y0056948D02*
X0156953Y0056948D01*
X0155665Y0056948D02*
X0151345Y0056948D01*
X0150283Y0058546D02*
X0153410Y0058546D01*
X0152659Y0060145D02*
X0151081Y0060145D01*
X0151153Y0061743D02*
X0152553Y0061743D01*
X0152553Y0063342D02*
X0151153Y0063342D01*
X0151153Y0064940D02*
X0152553Y0064940D01*
X0152553Y0066539D02*
X0151153Y0066539D01*
X0150761Y0068137D02*
X0152923Y0068137D01*
X0154120Y0069736D02*
X0149513Y0069736D01*
X0144394Y0069736D02*
X0139513Y0069736D01*
X0134394Y0069736D02*
X0129513Y0069736D01*
X0130761Y0068137D02*
X0133145Y0068137D01*
X0132753Y0066539D02*
X0131153Y0066539D01*
X0131153Y0064940D02*
X0132753Y0064940D01*
X0132753Y0063342D02*
X0131153Y0063342D01*
X0131153Y0061743D02*
X0132753Y0061743D01*
X0132826Y0060145D02*
X0131081Y0060145D01*
X0130283Y0058546D02*
X0133623Y0058546D01*
X0144196Y0056948D02*
X0146813Y0056948D01*
X0144196Y0048955D02*
X0232547Y0048955D01*
X0232547Y0047357D02*
X0144196Y0047357D01*
X0144393Y0045758D02*
X0232547Y0045758D01*
X0232547Y0044160D02*
X0144393Y0044160D01*
X0144393Y0042561D02*
X0232547Y0042561D01*
X0232547Y0040963D02*
X0144393Y0040963D01*
X0134022Y0039364D02*
X0129885Y0039364D01*
X0130915Y0037766D02*
X0132991Y0037766D01*
X0132753Y0036167D02*
X0131153Y0036167D01*
X0131153Y0034569D02*
X0132753Y0034569D01*
X0132753Y0032970D02*
X0131153Y0032970D01*
X0131153Y0031372D02*
X0132753Y0031372D01*
X0132980Y0029773D02*
X0130927Y0029773D01*
X0129912Y0028175D02*
X0133995Y0028175D01*
X0133819Y0021781D02*
X0117923Y0021781D01*
X0117923Y0020182D02*
X0132709Y0020182D01*
X0132353Y0018584D02*
X0117923Y0018584D01*
X0116556Y0016985D02*
X0132353Y0016985D01*
X0132353Y0015387D02*
X0114958Y0015387D01*
X0109815Y0015387D02*
X0095556Y0015387D01*
X0097154Y0016985D02*
X0108216Y0016985D01*
X0106849Y0018584D02*
X0098438Y0018584D01*
X0098438Y0020182D02*
X0106849Y0020182D01*
X0106849Y0021781D02*
X0098438Y0021781D01*
X0098081Y0023379D02*
X0107289Y0023379D01*
X0068240Y0015387D02*
X0054060Y0015387D01*
X0055658Y0016985D02*
X0066642Y0016985D01*
X0065314Y0018584D02*
X0056903Y0018584D01*
X0056903Y0020182D02*
X0065314Y0020182D01*
X0065314Y0021781D02*
X0056903Y0021781D01*
X0056506Y0023379D02*
X0065793Y0023379D01*
X0034715Y0047357D02*
X0005926Y0047357D01*
X0005926Y0048955D02*
X0032601Y0048955D01*
X0031771Y0050554D02*
X0005926Y0050554D01*
X0023977Y0052152D02*
X0031493Y0052152D01*
X0031650Y0053751D02*
X0026436Y0053751D01*
X0027289Y0055349D02*
X0032312Y0055349D01*
X0016287Y0090517D02*
X0005926Y0090517D01*
X0005926Y0092115D02*
X0014688Y0092115D01*
X0013090Y0093714D02*
X0005926Y0093714D01*
X0005926Y0095312D02*
X0011491Y0095312D01*
X0009893Y0096911D02*
X0005926Y0096911D01*
X0005926Y0098509D02*
X0008884Y0098509D01*
X0008293Y0100108D02*
X0005926Y0100108D01*
X0005926Y0101706D02*
X0007703Y0101706D01*
X0007873Y0103305D02*
X0005926Y0103305D01*
X0005926Y0104903D02*
X0008942Y0104903D01*
X0005926Y0106502D02*
X0054042Y0106502D01*
X0053333Y0108100D02*
X0005926Y0108100D01*
X0005926Y0109699D02*
X0023040Y0109699D01*
X0023127Y0109612D02*
X0024818Y0108912D01*
X0026648Y0108912D01*
X0028338Y0109612D01*
X0029632Y0110906D01*
X0030333Y0112597D01*
X0030333Y0120427D01*
X0029632Y0122117D01*
X0028338Y0123411D01*
X0026648Y0124112D01*
X0024818Y0124112D01*
X0023127Y0123411D01*
X0021833Y0122117D01*
X0021133Y0120427D01*
X0021133Y0112597D01*
X0021833Y0110906D01*
X0023127Y0109612D01*
X0021671Y0111297D02*
X0005926Y0111297D01*
X0005926Y0112896D02*
X0021133Y0112896D01*
X0021133Y0114494D02*
X0005926Y0114494D01*
X0005926Y0116093D02*
X0021133Y0116093D01*
X0021133Y0117691D02*
X0005926Y0117691D01*
X0005926Y0119290D02*
X0021133Y0119290D01*
X0021324Y0120888D02*
X0005926Y0120888D01*
X0005926Y0122487D02*
X0022202Y0122487D01*
X0024754Y0124085D02*
X0005926Y0124085D01*
X0005926Y0125684D02*
X0063333Y0125684D01*
X0063333Y0127282D02*
X0058140Y0127282D01*
X0058468Y0127418D02*
X0059748Y0128698D01*
X0060440Y0130371D01*
X0060440Y0132181D01*
X0059748Y0133853D01*
X0058468Y0135133D01*
X0056795Y0135826D01*
X0054985Y0135826D01*
X0053313Y0135133D01*
X0052033Y0133853D01*
X0051340Y0132181D01*
X0051340Y0130371D01*
X0052033Y0128698D01*
X0053313Y0127418D01*
X0054985Y0126726D01*
X0056795Y0126726D01*
X0058468Y0127418D01*
X0059823Y0128881D02*
X0061957Y0128881D01*
X0061340Y0130479D02*
X0060440Y0130479D01*
X0060440Y0132078D02*
X0061340Y0132078D01*
X0061960Y0133676D02*
X0059821Y0133676D01*
X0058125Y0135275D02*
X0063333Y0135275D01*
X0063333Y0136873D02*
X0005926Y0136873D01*
X0005926Y0135275D02*
X0023656Y0135275D01*
X0023313Y0135133D02*
X0022033Y0133853D01*
X0021340Y0132181D01*
X0021340Y0130371D01*
X0022033Y0128698D01*
X0023313Y0127418D01*
X0024985Y0126726D01*
X0026795Y0126726D01*
X0028468Y0127418D01*
X0029748Y0128698D01*
X0030440Y0130371D01*
X0030440Y0132181D01*
X0029748Y0133853D01*
X0028468Y0135133D01*
X0026795Y0135826D01*
X0024985Y0135826D01*
X0023313Y0135133D01*
X0021960Y0133676D02*
X0005926Y0133676D01*
X0005926Y0132078D02*
X0021340Y0132078D01*
X0021340Y0130479D02*
X0005926Y0130479D01*
X0005926Y0128881D02*
X0021957Y0128881D01*
X0023641Y0127282D02*
X0005926Y0127282D01*
X0005926Y0138472D02*
X0063333Y0138472D01*
X0063811Y0140070D02*
X0005926Y0140070D01*
X0005926Y0141669D02*
X0065409Y0141669D01*
X0064373Y0140633D02*
X0064373Y0140633D01*
X0065733Y0138598D02*
X0083725Y0156591D01*
X0102071Y0156591D01*
X0102426Y0156945D01*
X0117308Y0156945D01*
X0124001Y0163638D01*
X0127385Y0162450D02*
X0129615Y0162450D01*
X0131214Y0164048D02*
X0127582Y0164048D01*
X0127045Y0165647D02*
X0132812Y0165647D01*
X0134411Y0167245D02*
X0005926Y0167245D01*
X0005926Y0165647D02*
X0120956Y0165647D01*
X0120419Y0164048D02*
X0005926Y0164048D01*
X0005926Y0162450D02*
X0119418Y0162450D01*
X0117820Y0160851D02*
X0005926Y0160851D01*
X0005926Y0159253D02*
X0101726Y0159253D01*
X0103192Y0154457D02*
X0121623Y0154457D01*
X0123221Y0156056D02*
X0119812Y0156056D01*
X0121411Y0157654D02*
X0124820Y0157654D01*
X0126418Y0159253D02*
X0123009Y0159253D01*
X0126278Y0160851D02*
X0128017Y0160851D01*
X0129592Y0151260D02*
X0213490Y0151260D01*
X0213490Y0149662D02*
X0208251Y0149662D01*
X0209555Y0148063D02*
X0213490Y0148063D01*
X0213490Y0146465D02*
X0210860Y0146465D01*
X0212164Y0144866D02*
X0213490Y0144866D01*
X0213490Y0143268D02*
X0213031Y0143268D01*
X0213015Y0141669D02*
X0213490Y0141669D01*
X0213490Y0140070D02*
X0213015Y0140070D01*
X0213015Y0138472D02*
X0213490Y0138472D01*
X0213490Y0136873D02*
X0213015Y0136873D01*
X0215890Y0131276D02*
X0215890Y0167929D01*
X0225024Y0177063D01*
X0225024Y0198283D01*
X0225378Y0198638D01*
X0227823Y0196018D02*
X0232547Y0196018D01*
X0232547Y0194420D02*
X0227424Y0194420D01*
X0227424Y0192821D02*
X0232547Y0192821D01*
X0232547Y0191223D02*
X0227424Y0191223D01*
X0227424Y0189624D02*
X0232547Y0189624D01*
X0232547Y0188026D02*
X0227424Y0188026D01*
X0227424Y0186427D02*
X0232547Y0186427D01*
X0232547Y0184829D02*
X0227424Y0184829D01*
X0227424Y0183230D02*
X0232547Y0183230D01*
X0232547Y0181632D02*
X0227424Y0181632D01*
X0227424Y0180033D02*
X0232547Y0180033D01*
X0232547Y0178435D02*
X0227424Y0178435D01*
X0227424Y0176836D02*
X0232547Y0176836D01*
X0232547Y0175238D02*
X0226593Y0175238D01*
X0224994Y0173639D02*
X0232547Y0173639D01*
X0232547Y0172041D02*
X0223396Y0172041D01*
X0221797Y0170442D02*
X0232547Y0170442D01*
X0232547Y0168844D02*
X0220199Y0168844D01*
X0218600Y0167245D02*
X0232547Y0167245D01*
X0232547Y0165647D02*
X0218290Y0165647D01*
X0218290Y0164048D02*
X0232547Y0164048D01*
X0232547Y0162450D02*
X0218290Y0162450D01*
X0218290Y0160851D02*
X0232547Y0160851D01*
X0232547Y0159253D02*
X0218290Y0159253D01*
X0218290Y0157654D02*
X0232547Y0157654D01*
X0232547Y0156056D02*
X0218290Y0156056D01*
X0218290Y0154457D02*
X0232547Y0154457D01*
X0232547Y0152859D02*
X0218290Y0152859D01*
X0218290Y0151260D02*
X0232547Y0151260D01*
X0232547Y0149662D02*
X0218290Y0149662D01*
X0218290Y0148063D02*
X0232547Y0148063D01*
X0232547Y0146465D02*
X0218290Y0146465D01*
X0218290Y0144866D02*
X0232547Y0144866D01*
X0232547Y0143268D02*
X0218290Y0143268D01*
X0218290Y0141669D02*
X0232547Y0141669D01*
X0232547Y0140070D02*
X0218290Y0140070D01*
X0218290Y0138472D02*
X0232547Y0138472D01*
X0232547Y0136873D02*
X0218290Y0136873D01*
X0220054Y0135275D02*
X0232547Y0135275D01*
X0232547Y0133676D02*
X0220440Y0133676D01*
X0220440Y0132078D02*
X0232547Y0132078D01*
X0232547Y0130479D02*
X0220440Y0130479D01*
X0220440Y0128881D02*
X0232547Y0128881D01*
X0232547Y0127282D02*
X0220060Y0127282D01*
X0216712Y0124085D02*
X0232547Y0124085D01*
X0232547Y0122487D02*
X0219263Y0122487D01*
X0220142Y0120888D02*
X0232547Y0120888D01*
X0232547Y0119290D02*
X0220333Y0119290D01*
X0220333Y0117691D02*
X0232547Y0117691D01*
X0232547Y0116093D02*
X0220333Y0116093D01*
X0220333Y0114494D02*
X0232547Y0114494D01*
X0232547Y0112896D02*
X0220333Y0112896D01*
X0219795Y0111297D02*
X0232547Y0111297D01*
X0232547Y0109699D02*
X0218425Y0109699D01*
X0214422Y0106502D02*
X0232547Y0106502D01*
X0232547Y0108100D02*
X0213326Y0108100D01*
X0214432Y0104903D02*
X0232547Y0104903D01*
X0232547Y0103305D02*
X0214432Y0103305D01*
X0214598Y0101706D02*
X0214205Y0101706D01*
X0211270Y0098509D02*
X0211203Y0098509D01*
X0211048Y0096865D02*
X0211048Y0096688D01*
X0211166Y0095941D01*
X0211399Y0095223D01*
X0211742Y0094550D01*
X0212187Y0093938D01*
X0212721Y0093404D01*
X0213332Y0092960D01*
X0214005Y0092617D01*
X0214724Y0092384D01*
X0215470Y0092265D01*
X0218648Y0092265D01*
X0218648Y0096865D01*
X0211048Y0096865D01*
X0209605Y0096911D02*
X0218648Y0096911D01*
X0219048Y0096911D02*
X0232547Y0096911D01*
X0232547Y0098509D02*
X0226426Y0098509D01*
X0226648Y0096865D02*
X0219048Y0096865D01*
X0219048Y0092265D01*
X0222226Y0092265D01*
X0222972Y0092384D01*
X0223690Y0092617D01*
X0224363Y0092960D01*
X0224975Y0093404D01*
X0225509Y0093938D01*
X0225953Y0094550D01*
X0226296Y0095223D01*
X0226530Y0095941D01*
X0226648Y0096688D01*
X0226648Y0096865D01*
X0226325Y0095312D02*
X0232547Y0095312D01*
X0232547Y0093714D02*
X0225284Y0093714D01*
X0225570Y0100108D02*
X0232547Y0100108D01*
X0232547Y0101706D02*
X0223098Y0101706D01*
X0219048Y0101706D02*
X0218648Y0101706D01*
X0218648Y0100108D02*
X0219048Y0100108D01*
X0219048Y0098509D02*
X0218648Y0098509D01*
X0218648Y0095312D02*
X0219048Y0095312D01*
X0219048Y0093714D02*
X0218648Y0093714D01*
X0212411Y0093714D02*
X0206407Y0093714D01*
X0204809Y0092115D02*
X0232547Y0092115D01*
X0232547Y0090517D02*
X0203210Y0090517D01*
X0201612Y0088918D02*
X0232547Y0088918D01*
X0232547Y0087320D02*
X0199802Y0087320D01*
X0199494Y0082524D02*
X0212601Y0082524D01*
X0213242Y0083165D02*
X0211948Y0081871D01*
X0211248Y0080180D01*
X0211248Y0078350D01*
X0211948Y0076660D01*
X0213242Y0075366D01*
X0214933Y0074665D01*
X0222763Y0074665D01*
X0224453Y0075366D01*
X0225747Y0076660D01*
X0226448Y0078350D01*
X0226448Y0080180D01*
X0225747Y0081871D01*
X0224453Y0083165D01*
X0222763Y0083865D01*
X0214933Y0083865D01*
X0213242Y0083165D01*
X0211556Y0080926D02*
X0200539Y0080926D01*
X0200848Y0079327D02*
X0211248Y0079327D01*
X0211505Y0077729D02*
X0200590Y0077729D01*
X0199618Y0076130D02*
X0212478Y0076130D01*
X0225218Y0076130D02*
X0232547Y0076130D01*
X0232547Y0077729D02*
X0226190Y0077729D01*
X0226448Y0079327D02*
X0232547Y0079327D01*
X0232547Y0080926D02*
X0226139Y0080926D01*
X0225094Y0082524D02*
X0232547Y0082524D01*
X0211370Y0095312D02*
X0208006Y0095312D01*
X0203040Y0109699D02*
X0198425Y0109699D01*
X0199795Y0111297D02*
X0201671Y0111297D01*
X0201133Y0112896D02*
X0200333Y0112896D01*
X0200333Y0114494D02*
X0201133Y0114494D01*
X0201133Y0116093D02*
X0200333Y0116093D01*
X0200333Y0117691D02*
X0201133Y0117691D01*
X0201133Y0119290D02*
X0200333Y0119290D01*
X0200142Y0120888D02*
X0201324Y0120888D01*
X0202202Y0122487D02*
X0199263Y0122487D01*
X0196795Y0126726D02*
X0194985Y0126726D01*
X0193313Y0127418D01*
X0192033Y0128698D01*
X0191340Y0130371D01*
X0191340Y0132181D01*
X0192033Y0133853D01*
X0193313Y0135133D01*
X0194985Y0135826D01*
X0196795Y0135826D01*
X0198468Y0135133D01*
X0199748Y0133853D01*
X0200440Y0132181D01*
X0200440Y0130371D01*
X0199748Y0128698D01*
X0198468Y0127418D01*
X0196795Y0126726D01*
X0198140Y0127282D02*
X0203641Y0127282D01*
X0201957Y0128881D02*
X0199823Y0128881D01*
X0200440Y0130479D02*
X0201340Y0130479D01*
X0201340Y0132078D02*
X0200440Y0132078D01*
X0199821Y0133676D02*
X0201960Y0133676D01*
X0203656Y0135275D02*
X0198125Y0135275D01*
X0193656Y0135275D02*
X0188125Y0135275D01*
X0188468Y0135133D02*
X0186795Y0135826D01*
X0184985Y0135826D01*
X0183313Y0135133D01*
X0182033Y0133853D01*
X0181340Y0132181D01*
X0181340Y0130371D01*
X0182033Y0128698D01*
X0183313Y0127418D01*
X0184985Y0126726D01*
X0186795Y0126726D01*
X0188468Y0127418D01*
X0189748Y0128698D01*
X0190440Y0130371D01*
X0190440Y0132181D01*
X0189748Y0133853D01*
X0188468Y0135133D01*
X0189821Y0133676D02*
X0191960Y0133676D01*
X0191340Y0132078D02*
X0190440Y0132078D01*
X0190440Y0130479D02*
X0191340Y0130479D01*
X0191957Y0128881D02*
X0189823Y0128881D01*
X0188140Y0127282D02*
X0193641Y0127282D01*
X0192202Y0122487D02*
X0189263Y0122487D01*
X0190142Y0120888D02*
X0191324Y0120888D01*
X0191133Y0119290D02*
X0190333Y0119290D01*
X0190333Y0117691D02*
X0191133Y0117691D01*
X0191133Y0116093D02*
X0190333Y0116093D01*
X0190333Y0114494D02*
X0191133Y0114494D01*
X0191133Y0112896D02*
X0190333Y0112896D01*
X0189795Y0111297D02*
X0191671Y0111297D01*
X0193040Y0109699D02*
X0188425Y0109699D01*
X0186785Y0100108D02*
X0118999Y0100108D01*
X0118999Y0098509D02*
X0185867Y0098509D01*
X0185648Y0096911D02*
X0118999Y0096911D01*
X0118999Y0095312D02*
X0185995Y0095312D01*
X0187094Y0093714D02*
X0118999Y0093714D01*
X0116599Y0087693D02*
X0116599Y0105252D01*
X0116048Y0105803D01*
X0058134Y0105803D01*
X0055733Y0108205D01*
X0055733Y0116512D01*
X0059263Y0122487D02*
X0062202Y0122487D01*
X0061324Y0120888D02*
X0060142Y0120888D01*
X0060333Y0119290D02*
X0061133Y0119290D01*
X0061133Y0117691D02*
X0060333Y0117691D01*
X0060333Y0116093D02*
X0061133Y0116093D01*
X0061133Y0114494D02*
X0060333Y0114494D01*
X0060333Y0112896D02*
X0061133Y0112896D01*
X0061671Y0111297D02*
X0059795Y0111297D01*
X0058425Y0109699D02*
X0063040Y0109699D01*
X0065733Y0116512D02*
X0065733Y0138598D01*
X0069000Y0138472D02*
X0113490Y0138472D01*
X0113490Y0140070D02*
X0070599Y0140070D01*
X0072197Y0141669D02*
X0113490Y0141669D01*
X0113490Y0143268D02*
X0073796Y0143268D01*
X0075394Y0144866D02*
X0113490Y0144866D01*
X0113762Y0146465D02*
X0076993Y0146465D01*
X0078592Y0148063D02*
X0115229Y0148063D01*
X0116827Y0149662D02*
X0080190Y0149662D01*
X0081789Y0151260D02*
X0118426Y0151260D01*
X0120024Y0152859D02*
X0083387Y0152859D01*
X0079796Y0156056D02*
X0005926Y0156056D01*
X0005926Y0157654D02*
X0081394Y0157654D01*
X0081690Y0157950D02*
X0081690Y0157950D01*
X0078197Y0154457D02*
X0005926Y0154457D01*
X0005926Y0152859D02*
X0076599Y0152859D01*
X0075000Y0151260D02*
X0005926Y0151260D01*
X0005926Y0149662D02*
X0073402Y0149662D01*
X0071803Y0148063D02*
X0005926Y0148063D01*
X0005926Y0146465D02*
X0070205Y0146465D01*
X0068606Y0144866D02*
X0005926Y0144866D01*
X0005926Y0143268D02*
X0067008Y0143268D01*
X0063333Y0124085D02*
X0056712Y0124085D01*
X0054754Y0124085D02*
X0046712Y0124085D01*
X0046648Y0124112D02*
X0044818Y0124112D01*
X0043127Y0123411D01*
X0041833Y0122117D01*
X0041133Y0120427D01*
X0041133Y0112597D01*
X0041833Y0110906D01*
X0043127Y0109612D01*
X0044818Y0108912D01*
X0046648Y0108912D01*
X0048338Y0109612D01*
X0049632Y0110906D01*
X0050333Y0112597D01*
X0050333Y0120427D01*
X0049632Y0122117D01*
X0048338Y0123411D01*
X0046648Y0124112D01*
X0044754Y0124085D02*
X0036712Y0124085D01*
X0036648Y0124112D02*
X0034818Y0124112D01*
X0033127Y0123411D01*
X0031833Y0122117D01*
X0031133Y0120427D01*
X0031133Y0112597D01*
X0031833Y0110906D01*
X0033127Y0109612D01*
X0034818Y0108912D01*
X0036648Y0108912D01*
X0038338Y0109612D01*
X0039632Y0110906D01*
X0040333Y0112597D01*
X0040333Y0120427D01*
X0039632Y0122117D01*
X0038338Y0123411D01*
X0036648Y0124112D01*
X0034754Y0124085D02*
X0026712Y0124085D01*
X0029263Y0122487D02*
X0032202Y0122487D01*
X0031324Y0120888D02*
X0030142Y0120888D01*
X0030333Y0119290D02*
X0031133Y0119290D01*
X0031133Y0117691D02*
X0030333Y0117691D01*
X0030333Y0116093D02*
X0031133Y0116093D01*
X0031133Y0114494D02*
X0030333Y0114494D01*
X0030333Y0112896D02*
X0031133Y0112896D01*
X0031671Y0111297D02*
X0029795Y0111297D01*
X0028425Y0109699D02*
X0033040Y0109699D01*
X0038425Y0109699D02*
X0043040Y0109699D01*
X0041671Y0111297D02*
X0039795Y0111297D01*
X0040333Y0112896D02*
X0041133Y0112896D01*
X0041133Y0114494D02*
X0040333Y0114494D01*
X0040333Y0116093D02*
X0041133Y0116093D01*
X0041133Y0117691D02*
X0040333Y0117691D01*
X0040333Y0119290D02*
X0041133Y0119290D01*
X0041324Y0120888D02*
X0040142Y0120888D01*
X0039263Y0122487D02*
X0042202Y0122487D01*
X0043641Y0127282D02*
X0038140Y0127282D01*
X0038468Y0127418D02*
X0039748Y0128698D01*
X0040440Y0130371D01*
X0040440Y0132181D01*
X0039748Y0133853D01*
X0038468Y0135133D01*
X0036795Y0135826D01*
X0034985Y0135826D01*
X0033313Y0135133D01*
X0032033Y0133853D01*
X0031340Y0132181D01*
X0031340Y0130371D01*
X0032033Y0128698D01*
X0033313Y0127418D01*
X0034985Y0126726D01*
X0036795Y0126726D01*
X0038468Y0127418D01*
X0039823Y0128881D02*
X0041957Y0128881D01*
X0042033Y0128698D02*
X0043313Y0127418D01*
X0044985Y0126726D01*
X0046795Y0126726D01*
X0048468Y0127418D01*
X0049748Y0128698D01*
X0050440Y0130371D01*
X0050440Y0132181D01*
X0049748Y0133853D01*
X0048468Y0135133D01*
X0046795Y0135826D01*
X0044985Y0135826D01*
X0043313Y0135133D01*
X0042033Y0133853D01*
X0041340Y0132181D01*
X0041340Y0130371D01*
X0042033Y0128698D01*
X0041340Y0130479D02*
X0040440Y0130479D01*
X0040440Y0132078D02*
X0041340Y0132078D01*
X0041960Y0133676D02*
X0039821Y0133676D01*
X0038125Y0135275D02*
X0043656Y0135275D01*
X0048125Y0135275D02*
X0053656Y0135275D01*
X0051960Y0133676D02*
X0049821Y0133676D01*
X0050440Y0132078D02*
X0051340Y0132078D01*
X0051340Y0130479D02*
X0050440Y0130479D01*
X0049823Y0128881D02*
X0051957Y0128881D01*
X0053641Y0127282D02*
X0048140Y0127282D01*
X0049263Y0122487D02*
X0052202Y0122487D01*
X0051324Y0120888D02*
X0050142Y0120888D01*
X0050333Y0119290D02*
X0051133Y0119290D01*
X0051133Y0117691D02*
X0050333Y0117691D01*
X0050333Y0116093D02*
X0051133Y0116093D01*
X0051133Y0114494D02*
X0050333Y0114494D01*
X0050333Y0112896D02*
X0051133Y0112896D01*
X0051671Y0111297D02*
X0049795Y0111297D01*
X0048425Y0109699D02*
X0053040Y0109699D01*
X0055640Y0104903D02*
X0013626Y0104903D01*
X0014695Y0103305D02*
X0114199Y0103305D01*
X0114199Y0101706D02*
X0014865Y0101706D01*
X0014275Y0100108D02*
X0080810Y0100108D01*
X0080122Y0098509D02*
X0015082Y0098509D01*
X0016681Y0096911D02*
X0080122Y0096911D01*
X0080122Y0095312D02*
X0018279Y0095312D01*
X0018725Y0091472D02*
X0011284Y0098913D01*
X0011284Y0102181D01*
X0028140Y0127282D02*
X0033641Y0127282D01*
X0031957Y0128881D02*
X0029823Y0128881D01*
X0030440Y0130479D02*
X0031340Y0130479D01*
X0031340Y0132078D02*
X0030440Y0132078D01*
X0029821Y0133676D02*
X0031960Y0133676D01*
X0033656Y0135275D02*
X0028125Y0135275D01*
X0005926Y0168844D02*
X0136009Y0168844D01*
X0137608Y0170442D02*
X0005926Y0170442D01*
X0005926Y0172041D02*
X0139206Y0172041D01*
X0140805Y0173639D02*
X0005926Y0173639D01*
X0005926Y0175238D02*
X0139912Y0175238D01*
X0138313Y0176836D02*
X0005926Y0176836D01*
X0005926Y0178435D02*
X0136715Y0178435D01*
X0135116Y0180033D02*
X0005926Y0180033D01*
X0005926Y0181632D02*
X0133716Y0181632D01*
X0133490Y0183230D02*
X0005926Y0183230D01*
X0005926Y0184829D02*
X0133490Y0184829D01*
X0133490Y0186427D02*
X0005926Y0186427D01*
X0005926Y0188026D02*
X0022705Y0188026D01*
X0023313Y0187418D02*
X0024985Y0186726D01*
X0026795Y0186726D01*
X0028468Y0187418D01*
X0029748Y0188698D01*
X0030440Y0190371D01*
X0030440Y0192181D01*
X0029748Y0193853D01*
X0028468Y0195133D01*
X0026795Y0195826D01*
X0024985Y0195826D01*
X0023313Y0195133D01*
X0022033Y0193853D01*
X0021340Y0192181D01*
X0021340Y0190371D01*
X0022033Y0188698D01*
X0023313Y0187418D01*
X0021649Y0189624D02*
X0005926Y0189624D01*
X0005926Y0191223D02*
X0021340Y0191223D01*
X0021606Y0192821D02*
X0005926Y0192821D01*
X0005926Y0194420D02*
X0022600Y0194420D01*
X0023521Y0197407D02*
X0025211Y0196707D01*
X0027041Y0196707D01*
X0028732Y0197407D01*
X0030026Y0198701D01*
X0030726Y0200392D01*
X0030726Y0208222D01*
X0030026Y0209913D01*
X0028732Y0211207D01*
X0027041Y0211907D01*
X0025211Y0211907D01*
X0023521Y0211207D01*
X0022227Y0209913D01*
X0021527Y0208222D01*
X0021527Y0200392D01*
X0022227Y0198701D01*
X0023521Y0197407D01*
X0023311Y0197617D02*
X0005926Y0197617D01*
X0005926Y0199215D02*
X0022014Y0199215D01*
X0021527Y0200814D02*
X0005926Y0200814D01*
X0005926Y0202412D02*
X0021527Y0202412D01*
X0021527Y0204011D02*
X0019010Y0204011D01*
X0020467Y0205609D02*
X0021527Y0205609D01*
X0021527Y0207208D02*
X0021049Y0207208D01*
X0021049Y0208806D02*
X0021769Y0208806D01*
X0022719Y0210405D02*
X0020403Y0210405D01*
X0018633Y0212003D02*
X0064081Y0212003D01*
X0064081Y0213602D02*
X0018023Y0213602D01*
X0020226Y0215201D02*
X0064081Y0215201D01*
X0062524Y0216799D02*
X0020960Y0216799D01*
X0021049Y0218398D02*
X0060925Y0218398D01*
X0059327Y0219996D02*
X0020572Y0219996D01*
X0019289Y0221595D02*
X0057728Y0221595D01*
X0056130Y0223193D02*
X0017231Y0223193D01*
X0020100Y0224792D02*
X0054531Y0224792D01*
X0052933Y0226390D02*
X0020996Y0226390D01*
X0021249Y0228129D02*
X0021249Y0228307D01*
X0021131Y0229053D01*
X0020898Y0229772D01*
X0020555Y0230445D01*
X0020111Y0231056D01*
X0019576Y0231590D01*
X0018965Y0232034D01*
X0018292Y0232377D01*
X0017573Y0232611D01*
X0016827Y0232729D01*
X0013649Y0232729D01*
X0013649Y0228129D01*
X0021249Y0228129D01*
X0020958Y0229587D02*
X0049736Y0229587D01*
X0051334Y0227989D02*
X0013649Y0227989D01*
X0013649Y0229587D02*
X0013249Y0229587D01*
X0013249Y0231186D02*
X0013649Y0231186D01*
X0013649Y0226390D02*
X0013249Y0226390D01*
X0013249Y0224792D02*
X0013649Y0224792D01*
X0013649Y0223193D02*
X0013249Y0223193D01*
X0009668Y0223193D02*
X0005926Y0223193D01*
X0005926Y0221595D02*
X0007609Y0221595D01*
X0006326Y0219996D02*
X0005926Y0219996D01*
X0005926Y0216799D02*
X0005938Y0216799D01*
X0005926Y0215201D02*
X0006673Y0215201D01*
X0005926Y0213602D02*
X0008876Y0213602D01*
X0008265Y0212003D02*
X0005926Y0212003D01*
X0005926Y0210405D02*
X0006496Y0210405D01*
X0006431Y0205609D02*
X0005926Y0205609D01*
X0005926Y0204011D02*
X0007888Y0204011D01*
X0005926Y0196018D02*
X0125471Y0196018D01*
X0125516Y0196026D02*
X0124778Y0195909D01*
X0124067Y0195678D01*
X0123401Y0195338D01*
X0122796Y0194899D01*
X0122267Y0194370D01*
X0121828Y0193765D01*
X0121488Y0193099D01*
X0121257Y0192388D01*
X0121140Y0191649D01*
X0121140Y0191451D01*
X0125715Y0191451D01*
X0125715Y0196026D01*
X0125516Y0196026D01*
X0125715Y0196018D02*
X0126065Y0196018D01*
X0126065Y0196026D02*
X0126065Y0191451D01*
X0125715Y0191451D01*
X0125715Y0191101D01*
X0121140Y0191101D01*
X0121140Y0190902D01*
X0121257Y0190163D01*
X0121488Y0189452D01*
X0121828Y0188786D01*
X0122267Y0188181D01*
X0122796Y0187652D01*
X0123401Y0187213D01*
X0124067Y0186874D01*
X0124778Y0186643D01*
X0125516Y0186526D01*
X0125715Y0186526D01*
X0125715Y0191101D01*
X0126065Y0191101D01*
X0126065Y0191451D01*
X0130640Y0191451D01*
X0130640Y0191649D01*
X0130523Y0192388D01*
X0130292Y0193099D01*
X0129953Y0193765D01*
X0129513Y0194370D01*
X0128985Y0194899D01*
X0128380Y0195338D01*
X0127714Y0195678D01*
X0127003Y0195909D01*
X0126264Y0196026D01*
X0126065Y0196026D01*
X0126310Y0196018D02*
X0222624Y0196018D01*
X0222624Y0194420D02*
X0219181Y0194420D01*
X0219748Y0193853D02*
X0218468Y0195133D01*
X0216795Y0195826D01*
X0214985Y0195826D01*
X0213313Y0195133D01*
X0212033Y0193853D01*
X0211340Y0192181D01*
X0211340Y0190371D01*
X0212033Y0188698D01*
X0213313Y0187418D01*
X0214985Y0186726D01*
X0216795Y0186726D01*
X0218468Y0187418D01*
X0219748Y0188698D01*
X0220440Y0190371D01*
X0220440Y0192181D01*
X0219748Y0193853D01*
X0220175Y0192821D02*
X0222624Y0192821D01*
X0222624Y0191223D02*
X0220440Y0191223D01*
X0220131Y0189624D02*
X0222624Y0189624D01*
X0222624Y0188026D02*
X0219075Y0188026D01*
X0222624Y0186427D02*
X0138290Y0186427D01*
X0138290Y0184829D02*
X0222624Y0184829D01*
X0222624Y0183230D02*
X0138708Y0183230D01*
X0140306Y0181632D02*
X0222624Y0181632D01*
X0222624Y0180033D02*
X0141905Y0180033D01*
X0143503Y0178435D02*
X0222624Y0178435D01*
X0212705Y0188026D02*
X0209075Y0188026D01*
X0208468Y0187418D02*
X0209748Y0188698D01*
X0210440Y0190371D01*
X0210440Y0192181D01*
X0209748Y0193853D01*
X0208468Y0195133D01*
X0206795Y0195826D01*
X0204985Y0195826D01*
X0203313Y0195133D01*
X0202033Y0193853D01*
X0201340Y0192181D01*
X0201340Y0190371D01*
X0202033Y0188698D01*
X0203313Y0187418D01*
X0204985Y0186726D01*
X0206795Y0186726D01*
X0208468Y0187418D01*
X0210131Y0189624D02*
X0211649Y0189624D01*
X0211340Y0191223D02*
X0210440Y0191223D01*
X0210175Y0192821D02*
X0211606Y0192821D01*
X0212600Y0194420D02*
X0209181Y0194420D01*
X0208732Y0197407D02*
X0210026Y0198701D01*
X0210726Y0200392D01*
X0210726Y0208222D01*
X0210026Y0209913D01*
X0208732Y0211207D01*
X0208526Y0211292D01*
X0208526Y0220872D01*
X0217369Y0229714D01*
X0218046Y0228079D01*
X0219340Y0226785D01*
X0221030Y0226085D01*
X0228860Y0226085D01*
X0230551Y0226785D01*
X0231845Y0228079D01*
X0232545Y0229770D01*
X0232545Y0231600D01*
X0231845Y0233291D01*
X0230551Y0234585D01*
X0228860Y0235285D01*
X0222939Y0235285D01*
X0223739Y0236085D01*
X0228860Y0236085D01*
X0230551Y0236785D01*
X0231845Y0238079D01*
X0232545Y0239770D01*
X0232545Y0241600D01*
X0231845Y0243291D01*
X0230551Y0244585D01*
X0228860Y0245285D01*
X0221030Y0245285D01*
X0219340Y0244585D01*
X0218046Y0243291D01*
X0217345Y0241600D01*
X0217345Y0239770D01*
X0218046Y0238079D01*
X0218496Y0237629D01*
X0204767Y0223901D01*
X0204092Y0223226D01*
X0203727Y0222344D01*
X0203727Y0211292D01*
X0203521Y0211207D01*
X0202227Y0209913D01*
X0201527Y0208222D01*
X0201527Y0200392D01*
X0202227Y0198701D01*
X0203521Y0197407D01*
X0205211Y0196707D01*
X0207041Y0196707D01*
X0208732Y0197407D01*
X0208942Y0197617D02*
X0213311Y0197617D01*
X0213521Y0197407D02*
X0215211Y0196707D01*
X0217041Y0196707D01*
X0218732Y0197407D01*
X0220026Y0198701D01*
X0220726Y0200392D01*
X0220726Y0208222D01*
X0220026Y0209913D01*
X0218732Y0211207D01*
X0218526Y0211292D01*
X0218526Y0217745D01*
X0218966Y0218184D01*
X0219511Y0219500D01*
X0219511Y0220925D01*
X0218966Y0222241D01*
X0217958Y0223248D01*
X0216642Y0223794D01*
X0215217Y0223794D01*
X0213901Y0223248D01*
X0212894Y0222241D01*
X0212349Y0220925D01*
X0212349Y0219500D01*
X0212894Y0218184D01*
X0213727Y0217351D01*
X0213727Y0211292D01*
X0213521Y0211207D01*
X0212227Y0209913D01*
X0211527Y0208222D01*
X0211527Y0200392D01*
X0212227Y0198701D01*
X0213521Y0197407D01*
X0212014Y0199215D02*
X0210239Y0199215D01*
X0210726Y0200814D02*
X0211527Y0200814D01*
X0211527Y0202412D02*
X0210726Y0202412D01*
X0210726Y0204011D02*
X0211527Y0204011D01*
X0211527Y0205609D02*
X0210726Y0205609D01*
X0210726Y0207208D02*
X0211527Y0207208D01*
X0211769Y0208806D02*
X0210484Y0208806D01*
X0209534Y0210405D02*
X0212719Y0210405D01*
X0213727Y0212003D02*
X0208526Y0212003D01*
X0208526Y0213602D02*
X0213727Y0213602D01*
X0213727Y0215201D02*
X0208526Y0215201D01*
X0208526Y0216799D02*
X0213727Y0216799D01*
X0212805Y0218398D02*
X0208526Y0218398D01*
X0208526Y0219996D02*
X0212349Y0219996D01*
X0212626Y0221595D02*
X0209249Y0221595D01*
X0210848Y0223193D02*
X0213846Y0223193D01*
X0212446Y0224792D02*
X0232547Y0224792D01*
X0232547Y0226390D02*
X0229597Y0226390D01*
X0231754Y0227989D02*
X0232547Y0227989D01*
X0232547Y0229587D02*
X0232470Y0229587D01*
X0232545Y0231186D02*
X0232547Y0231186D01*
X0232547Y0232784D02*
X0232055Y0232784D01*
X0232547Y0234383D02*
X0230753Y0234383D01*
X0232547Y0235981D02*
X0223636Y0235981D01*
X0224945Y0240685D02*
X0206127Y0221866D01*
X0206127Y0204307D01*
X0201527Y0204011D02*
X0200726Y0204011D01*
X0200726Y0205609D02*
X0201527Y0205609D01*
X0201527Y0207208D02*
X0200726Y0207208D01*
X0200726Y0208222D02*
X0200026Y0209913D01*
X0198732Y0211207D01*
X0197041Y0211907D01*
X0195211Y0211907D01*
X0193521Y0211207D01*
X0192227Y0209913D01*
X0191527Y0208222D01*
X0191527Y0200392D01*
X0192227Y0198701D01*
X0193521Y0197407D01*
X0195211Y0196707D01*
X0197041Y0196707D01*
X0198732Y0197407D01*
X0200026Y0198701D01*
X0200726Y0200392D01*
X0200726Y0208222D01*
X0200484Y0208806D02*
X0201769Y0208806D01*
X0202719Y0210405D02*
X0199534Y0210405D01*
X0203727Y0212003D02*
X0188526Y0212003D01*
X0188526Y0211292D02*
X0188526Y0250540D01*
X0189202Y0251216D01*
X0189747Y0252532D01*
X0189747Y0253956D01*
X0189202Y0255273D01*
X0188194Y0256280D01*
X0186878Y0256825D01*
X0185454Y0256825D01*
X0184137Y0256280D01*
X0183130Y0255273D01*
X0182585Y0253956D01*
X0182585Y0252532D01*
X0183130Y0251216D01*
X0183727Y0250619D01*
X0183727Y0223400D01*
X0183375Y0224249D01*
X0182368Y0225256D01*
X0181051Y0225802D01*
X0179627Y0225802D01*
X0178311Y0225256D01*
X0177320Y0224266D01*
X0164657Y0224266D01*
X0163667Y0225256D01*
X0162351Y0225802D01*
X0160926Y0225802D01*
X0159610Y0225256D01*
X0158602Y0224249D01*
X0158526Y0224066D01*
X0158526Y0270619D01*
X0159044Y0271137D01*
X0159589Y0272453D01*
X0159589Y0273878D01*
X0159044Y0275194D01*
X0158037Y0276201D01*
X0156721Y0276746D01*
X0155296Y0276746D01*
X0153980Y0276201D01*
X0152972Y0275194D01*
X0152427Y0273878D01*
X0152427Y0272453D01*
X0152972Y0271137D01*
X0153727Y0270383D01*
X0153727Y0216693D01*
X0152958Y0217461D01*
X0151642Y0218006D01*
X0150217Y0218006D01*
X0148901Y0217461D01*
X0148265Y0216825D01*
X0109207Y0216825D01*
X0105101Y0220931D01*
X0105101Y0221824D01*
X0105375Y0221710D01*
X0106274Y0221710D01*
X0107281Y0220703D01*
X0107956Y0220028D01*
X0108838Y0219663D01*
X0145155Y0219663D01*
X0145791Y0219027D01*
X0147107Y0218482D01*
X0148532Y0218482D01*
X0149848Y0219027D01*
X0150855Y0220034D01*
X0151401Y0221351D01*
X0151401Y0222775D01*
X0150855Y0224092D01*
X0149848Y0225099D01*
X0148532Y0225644D01*
X0147107Y0225644D01*
X0145791Y0225099D01*
X0145155Y0224463D01*
X0110310Y0224463D01*
X0109668Y0225104D01*
X0109668Y0226004D01*
X0109123Y0227320D01*
X0108116Y0228327D01*
X0106799Y0228872D01*
X0105375Y0228872D01*
X0104059Y0228327D01*
X0103051Y0227320D01*
X0102506Y0226004D01*
X0102506Y0224586D01*
X0102233Y0224699D01*
X0100808Y0224699D01*
X0099492Y0224154D01*
X0098484Y0223147D01*
X0097939Y0221830D01*
X0097939Y0220406D01*
X0098484Y0219090D01*
X0099492Y0218082D01*
X0100808Y0217537D01*
X0101707Y0217537D01*
X0106178Y0213066D01*
X0106854Y0212391D01*
X0107736Y0212025D01*
X0125232Y0212025D01*
X0125002Y0211989D01*
X0124284Y0211755D01*
X0123611Y0211412D01*
X0123000Y0210968D01*
X0122465Y0210434D01*
X0122021Y0209823D01*
X0121678Y0209150D01*
X0121445Y0208431D01*
X0121327Y0207685D01*
X0121326Y0204507D01*
X0125926Y0204507D01*
X0125926Y0204107D01*
X0121327Y0204107D01*
X0121327Y0200929D01*
X0121445Y0200183D01*
X0121678Y0199465D01*
X0122021Y0198791D01*
X0122465Y0198180D01*
X0123000Y0197646D01*
X0123611Y0197202D01*
X0124284Y0196859D01*
X0125002Y0196625D01*
X0125749Y0196507D01*
X0125926Y0196507D01*
X0125926Y0204107D01*
X0126327Y0204107D01*
X0126327Y0204507D01*
X0130926Y0204507D01*
X0130926Y0207685D01*
X0130808Y0208431D01*
X0130575Y0209150D01*
X0130232Y0209823D01*
X0129788Y0210434D01*
X0129253Y0210968D01*
X0128642Y0211412D01*
X0127969Y0211755D01*
X0127251Y0211989D01*
X0127021Y0212025D01*
X0148265Y0212025D01*
X0148901Y0211389D01*
X0150217Y0210844D01*
X0151642Y0210844D01*
X0152958Y0211389D01*
X0153727Y0212158D01*
X0153727Y0211292D01*
X0153521Y0211207D01*
X0152227Y0209913D01*
X0151527Y0208222D01*
X0151527Y0200392D01*
X0152227Y0198701D01*
X0153521Y0197407D01*
X0155211Y0196707D01*
X0157041Y0196707D01*
X0158732Y0197407D01*
X0160026Y0198701D01*
X0160726Y0200392D01*
X0160726Y0208222D01*
X0160026Y0209913D01*
X0158732Y0211207D01*
X0158526Y0211292D01*
X0158526Y0213410D01*
X0158799Y0212751D01*
X0159807Y0211744D01*
X0161123Y0211198D01*
X0162547Y0211198D01*
X0163864Y0211744D01*
X0164696Y0212576D01*
X0173727Y0212576D01*
X0173727Y0211292D01*
X0173521Y0211207D01*
X0172227Y0209913D01*
X0171527Y0208222D01*
X0171527Y0200392D01*
X0172227Y0198701D01*
X0173521Y0197407D01*
X0175211Y0196707D01*
X0177041Y0196707D01*
X0178732Y0197407D01*
X0180026Y0198701D01*
X0180726Y0200392D01*
X0180726Y0208222D01*
X0180026Y0209913D01*
X0178732Y0211207D01*
X0178526Y0211292D01*
X0178526Y0214404D01*
X0178566Y0214499D01*
X0178566Y0215454D01*
X0178200Y0216336D01*
X0177525Y0217011D01*
X0176643Y0217376D01*
X0164303Y0217376D01*
X0163864Y0217815D01*
X0162547Y0218361D01*
X0161123Y0218361D01*
X0159807Y0217815D01*
X0158799Y0216808D01*
X0158526Y0216150D01*
X0158526Y0220375D01*
X0158602Y0220192D01*
X0159610Y0219185D01*
X0160926Y0218639D01*
X0162351Y0218639D01*
X0163667Y0219185D01*
X0163948Y0219466D01*
X0178029Y0219466D01*
X0178311Y0219185D01*
X0179627Y0218639D01*
X0181051Y0218639D01*
X0182368Y0219185D01*
X0183375Y0220192D01*
X0183727Y0221041D01*
X0183727Y0211292D01*
X0183521Y0211207D01*
X0182227Y0209913D01*
X0181527Y0208222D01*
X0181527Y0200392D01*
X0182227Y0198701D01*
X0183521Y0197407D01*
X0185211Y0196707D01*
X0187041Y0196707D01*
X0188732Y0197407D01*
X0190026Y0198701D01*
X0190726Y0200392D01*
X0190726Y0208222D01*
X0190026Y0209913D01*
X0188732Y0211207D01*
X0188526Y0211292D01*
X0189534Y0210405D02*
X0192719Y0210405D01*
X0191769Y0208806D02*
X0190484Y0208806D01*
X0190726Y0207208D02*
X0191527Y0207208D01*
X0191527Y0205609D02*
X0190726Y0205609D01*
X0190726Y0204011D02*
X0191527Y0204011D01*
X0191527Y0202412D02*
X0190726Y0202412D01*
X0190726Y0200814D02*
X0191527Y0200814D01*
X0192014Y0199215D02*
X0190239Y0199215D01*
X0188942Y0197617D02*
X0193311Y0197617D01*
X0194985Y0195826D02*
X0193313Y0195133D01*
X0192033Y0193853D01*
X0191340Y0192181D01*
X0191340Y0190371D01*
X0192033Y0188698D01*
X0193313Y0187418D01*
X0194985Y0186726D01*
X0196795Y0186726D01*
X0198468Y0187418D01*
X0199748Y0188698D01*
X0200440Y0190371D01*
X0200440Y0192181D01*
X0199748Y0193853D01*
X0198468Y0195133D01*
X0196795Y0195826D01*
X0194985Y0195826D01*
X0192600Y0194420D02*
X0189181Y0194420D01*
X0189748Y0193853D02*
X0188468Y0195133D01*
X0186795Y0195826D01*
X0184985Y0195826D01*
X0183313Y0195133D01*
X0182033Y0193853D01*
X0181340Y0192181D01*
X0181340Y0190371D01*
X0182033Y0188698D01*
X0183313Y0187418D01*
X0184985Y0186726D01*
X0186795Y0186726D01*
X0188468Y0187418D01*
X0189748Y0188698D01*
X0190440Y0190371D01*
X0190440Y0192181D01*
X0189748Y0193853D01*
X0190175Y0192821D02*
X0191606Y0192821D01*
X0191340Y0191223D02*
X0190440Y0191223D01*
X0190131Y0189624D02*
X0191649Y0189624D01*
X0192705Y0188026D02*
X0189075Y0188026D01*
X0182705Y0188026D02*
X0179075Y0188026D01*
X0178468Y0187418D02*
X0179748Y0188698D01*
X0180440Y0190371D01*
X0180440Y0192181D01*
X0179748Y0193853D01*
X0178468Y0195133D01*
X0176795Y0195826D01*
X0174985Y0195826D01*
X0173313Y0195133D01*
X0172033Y0193853D01*
X0171340Y0192181D01*
X0171340Y0190371D01*
X0172033Y0188698D01*
X0173313Y0187418D01*
X0174985Y0186726D01*
X0176795Y0186726D01*
X0178468Y0187418D01*
X0180131Y0189624D02*
X0181649Y0189624D01*
X0181340Y0191223D02*
X0180440Y0191223D01*
X0180175Y0192821D02*
X0181606Y0192821D01*
X0182600Y0194420D02*
X0179181Y0194420D01*
X0178942Y0197617D02*
X0183311Y0197617D01*
X0182014Y0199215D02*
X0180239Y0199215D01*
X0180726Y0200814D02*
X0181527Y0200814D01*
X0181527Y0202412D02*
X0180726Y0202412D01*
X0180726Y0204011D02*
X0181527Y0204011D01*
X0181527Y0205609D02*
X0180726Y0205609D01*
X0180726Y0207208D02*
X0181527Y0207208D01*
X0181769Y0208806D02*
X0180484Y0208806D01*
X0179534Y0210405D02*
X0182719Y0210405D01*
X0183727Y0212003D02*
X0178526Y0212003D01*
X0178526Y0213602D02*
X0183727Y0213602D01*
X0183727Y0215201D02*
X0178566Y0215201D01*
X0177737Y0216799D02*
X0183727Y0216799D01*
X0183727Y0218398D02*
X0158526Y0218398D01*
X0158526Y0219996D02*
X0158798Y0219996D01*
X0158796Y0216799D02*
X0158526Y0216799D01*
X0161835Y0214780D02*
X0162032Y0214976D01*
X0176166Y0214976D01*
X0176127Y0214937D01*
X0176127Y0204307D01*
X0171769Y0208806D02*
X0170484Y0208806D01*
X0170726Y0208222D02*
X0170026Y0209913D01*
X0168732Y0211207D01*
X0167041Y0211907D01*
X0165211Y0211907D01*
X0163521Y0211207D01*
X0162227Y0209913D01*
X0161527Y0208222D01*
X0161527Y0200392D01*
X0162227Y0198701D01*
X0163521Y0197407D01*
X0165211Y0196707D01*
X0167041Y0196707D01*
X0168732Y0197407D01*
X0170026Y0198701D01*
X0170726Y0200392D01*
X0170726Y0208222D01*
X0170726Y0207208D02*
X0171527Y0207208D01*
X0171527Y0205609D02*
X0170726Y0205609D01*
X0170726Y0204011D02*
X0171527Y0204011D01*
X0171527Y0202412D02*
X0170726Y0202412D01*
X0170726Y0200814D02*
X0171527Y0200814D01*
X0172014Y0199215D02*
X0170239Y0199215D01*
X0168942Y0197617D02*
X0173311Y0197617D01*
X0172600Y0194420D02*
X0169181Y0194420D01*
X0169748Y0193853D02*
X0168468Y0195133D01*
X0166795Y0195826D01*
X0164985Y0195826D01*
X0163313Y0195133D01*
X0162033Y0193853D01*
X0161340Y0192181D01*
X0161340Y0190371D01*
X0162033Y0188698D01*
X0163313Y0187418D01*
X0164985Y0186726D01*
X0166795Y0186726D01*
X0168468Y0187418D01*
X0169748Y0188698D01*
X0170440Y0190371D01*
X0170440Y0192181D01*
X0169748Y0193853D01*
X0170175Y0192821D02*
X0171606Y0192821D01*
X0171340Y0191223D02*
X0170440Y0191223D01*
X0170131Y0189624D02*
X0171649Y0189624D01*
X0172705Y0188026D02*
X0169075Y0188026D01*
X0162705Y0188026D02*
X0159075Y0188026D01*
X0158468Y0187418D02*
X0159748Y0188698D01*
X0160440Y0190371D01*
X0160440Y0192181D01*
X0159748Y0193853D01*
X0158468Y0195133D01*
X0156795Y0195826D01*
X0154985Y0195826D01*
X0153313Y0195133D01*
X0152033Y0193853D01*
X0151340Y0192181D01*
X0151340Y0190371D01*
X0152033Y0188698D01*
X0153313Y0187418D01*
X0154985Y0186726D01*
X0156795Y0186726D01*
X0158468Y0187418D01*
X0160131Y0189624D02*
X0161649Y0189624D01*
X0161340Y0191223D02*
X0160440Y0191223D01*
X0160175Y0192821D02*
X0161606Y0192821D01*
X0162600Y0194420D02*
X0159181Y0194420D01*
X0158942Y0197617D02*
X0163311Y0197617D01*
X0162014Y0199215D02*
X0160239Y0199215D01*
X0160726Y0200814D02*
X0161527Y0200814D01*
X0161527Y0202412D02*
X0160726Y0202412D01*
X0160726Y0204011D02*
X0161527Y0204011D01*
X0161527Y0205609D02*
X0160726Y0205609D01*
X0160726Y0207208D02*
X0161527Y0207208D01*
X0161769Y0208806D02*
X0160484Y0208806D01*
X0159534Y0210405D02*
X0162719Y0210405D01*
X0164124Y0212003D02*
X0173727Y0212003D01*
X0172719Y0210405D02*
X0169534Y0210405D01*
X0164132Y0224792D02*
X0177846Y0224792D01*
X0180339Y0222220D02*
X0180693Y0222220D01*
X0181048Y0221866D01*
X0161993Y0221866D01*
X0161638Y0222220D01*
X0159145Y0224792D02*
X0158526Y0224792D01*
X0158526Y0226390D02*
X0183727Y0226390D01*
X0183727Y0224792D02*
X0182832Y0224792D01*
X0183727Y0227989D02*
X0158526Y0227989D01*
X0158526Y0229587D02*
X0183727Y0229587D01*
X0183727Y0231186D02*
X0158526Y0231186D01*
X0158526Y0232784D02*
X0183727Y0232784D01*
X0183727Y0234383D02*
X0158526Y0234383D01*
X0158526Y0235981D02*
X0183727Y0235981D01*
X0183727Y0237580D02*
X0158526Y0237580D01*
X0158526Y0239178D02*
X0183727Y0239178D01*
X0183727Y0240777D02*
X0158526Y0240777D01*
X0158526Y0242375D02*
X0183727Y0242375D01*
X0183727Y0243974D02*
X0158526Y0243974D01*
X0158526Y0245572D02*
X0183727Y0245572D01*
X0183727Y0247171D02*
X0158526Y0247171D01*
X0158526Y0248769D02*
X0183727Y0248769D01*
X0183727Y0250368D02*
X0158526Y0250368D01*
X0158526Y0251966D02*
X0182819Y0251966D01*
X0182585Y0253565D02*
X0158526Y0253565D01*
X0158526Y0255163D02*
X0183085Y0255163D01*
X0185301Y0256762D02*
X0158526Y0256762D01*
X0158526Y0258360D02*
X0196286Y0258360D01*
X0196286Y0256762D02*
X0187031Y0256762D01*
X0189247Y0255163D02*
X0196286Y0255163D01*
X0196286Y0253565D02*
X0189747Y0253565D01*
X0189513Y0251966D02*
X0196286Y0251966D01*
X0196286Y0250368D02*
X0188526Y0250368D01*
X0188526Y0248769D02*
X0196286Y0248769D01*
X0196286Y0247171D02*
X0188526Y0247171D01*
X0188526Y0245572D02*
X0196286Y0245572D01*
X0196286Y0243974D02*
X0188526Y0243974D01*
X0188526Y0242375D02*
X0196286Y0242375D01*
X0196286Y0241364D02*
X0193186Y0238265D01*
X0192821Y0237383D01*
X0192821Y0235239D01*
X0192185Y0234603D01*
X0191640Y0233287D01*
X0191640Y0231862D01*
X0192185Y0230546D01*
X0193192Y0229539D01*
X0194509Y0228994D01*
X0195933Y0228994D01*
X0197250Y0229539D01*
X0198257Y0230546D01*
X0198802Y0231862D01*
X0198802Y0233287D01*
X0198257Y0234603D01*
X0197621Y0235239D01*
X0197621Y0235911D01*
X0200045Y0238335D01*
X0200720Y0239011D01*
X0201086Y0239893D01*
X0201086Y0261856D01*
X0217278Y0278049D01*
X0218076Y0278049D01*
X0219340Y0276785D01*
X0221030Y0276085D01*
X0228860Y0276085D01*
X0230551Y0276785D01*
X0231845Y0278079D01*
X0232545Y0279770D01*
X0232545Y0281600D01*
X0231845Y0283291D01*
X0230551Y0284585D01*
X0228860Y0285285D01*
X0221030Y0285285D01*
X0219340Y0284585D01*
X0218046Y0283291D01*
X0217863Y0282849D01*
X0215807Y0282849D01*
X0214924Y0282483D01*
X0214249Y0281808D01*
X0196651Y0264210D01*
X0196286Y0263328D01*
X0196286Y0241364D01*
X0195698Y0240777D02*
X0188526Y0240777D01*
X0188526Y0239178D02*
X0194100Y0239178D01*
X0192902Y0237580D02*
X0188526Y0237580D01*
X0188526Y0235981D02*
X0192821Y0235981D01*
X0192094Y0234383D02*
X0188526Y0234383D01*
X0188526Y0232784D02*
X0191640Y0232784D01*
X0191920Y0231186D02*
X0188526Y0231186D01*
X0188526Y0229587D02*
X0193144Y0229587D01*
X0195221Y0232575D02*
X0195221Y0236906D01*
X0198686Y0240370D01*
X0198686Y0262850D01*
X0216284Y0280449D01*
X0224709Y0280449D01*
X0224945Y0280685D01*
X0221030Y0275285D02*
X0219340Y0274585D01*
X0218046Y0273291D01*
X0217345Y0271600D01*
X0217345Y0269770D01*
X0218046Y0268079D01*
X0219340Y0266785D01*
X0221030Y0266085D01*
X0228860Y0266085D01*
X0230551Y0266785D01*
X0231845Y0268079D01*
X0232545Y0269770D01*
X0232545Y0271600D01*
X0231845Y0273291D01*
X0230551Y0274585D01*
X0228860Y0275285D01*
X0221030Y0275285D01*
X0219100Y0274345D02*
X0213575Y0274345D01*
X0211976Y0272747D02*
X0217820Y0272747D01*
X0217345Y0271148D02*
X0210378Y0271148D01*
X0208779Y0269550D02*
X0217437Y0269550D01*
X0218174Y0267951D02*
X0207181Y0267951D01*
X0205582Y0266353D02*
X0220384Y0266353D01*
X0220821Y0265367D02*
X0220103Y0265133D01*
X0219430Y0264790D01*
X0218818Y0264346D01*
X0218284Y0263812D01*
X0217840Y0263201D01*
X0217497Y0262528D01*
X0217264Y0261809D01*
X0217145Y0261063D01*
X0217145Y0260885D01*
X0224745Y0260885D01*
X0224745Y0265485D01*
X0221568Y0265485D01*
X0220821Y0265367D01*
X0219380Y0264754D02*
X0203984Y0264754D01*
X0202385Y0263156D02*
X0217817Y0263156D01*
X0217224Y0261557D02*
X0201086Y0261557D01*
X0201086Y0259959D02*
X0217201Y0259959D01*
X0217743Y0258360D02*
X0201086Y0258360D01*
X0201086Y0256762D02*
X0219179Y0256762D01*
X0219340Y0254585D02*
X0218046Y0253291D01*
X0217345Y0251600D01*
X0217345Y0249770D01*
X0218046Y0248079D01*
X0219340Y0246785D01*
X0221030Y0246085D01*
X0228860Y0246085D01*
X0230551Y0246785D01*
X0231845Y0248079D01*
X0232545Y0249770D01*
X0232545Y0251600D01*
X0231845Y0253291D01*
X0230551Y0254585D01*
X0228860Y0255285D01*
X0221030Y0255285D01*
X0219340Y0254585D01*
X0218320Y0253565D02*
X0201086Y0253565D01*
X0201086Y0255163D02*
X0220737Y0255163D01*
X0217497Y0251966D02*
X0201086Y0251966D01*
X0201086Y0250368D02*
X0217345Y0250368D01*
X0217760Y0248769D02*
X0201086Y0248769D01*
X0201086Y0247171D02*
X0218954Y0247171D01*
X0218729Y0243974D02*
X0201086Y0243974D01*
X0201086Y0245572D02*
X0232547Y0245572D01*
X0232547Y0243974D02*
X0231162Y0243974D01*
X0232224Y0242375D02*
X0232547Y0242375D01*
X0232545Y0240777D02*
X0232547Y0240777D01*
X0232547Y0239178D02*
X0232300Y0239178D01*
X0232547Y0237580D02*
X0231345Y0237580D01*
X0230936Y0247171D02*
X0232547Y0247171D01*
X0232547Y0248769D02*
X0232131Y0248769D01*
X0232545Y0250368D02*
X0232547Y0250368D01*
X0232547Y0251966D02*
X0232394Y0251966D01*
X0232547Y0253565D02*
X0231571Y0253565D01*
X0232547Y0255163D02*
X0229154Y0255163D01*
X0230712Y0256762D02*
X0232547Y0256762D01*
X0232547Y0258360D02*
X0232148Y0258360D01*
X0232074Y0263156D02*
X0232547Y0263156D01*
X0232547Y0264754D02*
X0230511Y0264754D01*
X0229507Y0266353D02*
X0232547Y0266353D01*
X0232547Y0267951D02*
X0231717Y0267951D01*
X0232454Y0269550D02*
X0232547Y0269550D01*
X0232545Y0271148D02*
X0232547Y0271148D01*
X0232547Y0272747D02*
X0232070Y0272747D01*
X0232547Y0274345D02*
X0230790Y0274345D01*
X0232547Y0275944D02*
X0215173Y0275944D01*
X0216772Y0277542D02*
X0218583Y0277542D01*
X0214779Y0282338D02*
X0157189Y0282338D01*
X0158784Y0283937D02*
X0218691Y0283937D01*
X0213181Y0280739D02*
X0155593Y0280739D01*
X0153998Y0279141D02*
X0211582Y0279141D01*
X0209984Y0277542D02*
X0152402Y0277542D01*
X0153723Y0275944D02*
X0150806Y0275944D01*
X0149211Y0274345D02*
X0152621Y0274345D01*
X0152427Y0272747D02*
X0147615Y0272747D01*
X0146020Y0271148D02*
X0152968Y0271148D01*
X0153727Y0269550D02*
X0144424Y0269550D01*
X0142829Y0267951D02*
X0153727Y0267951D01*
X0153727Y0266353D02*
X0141233Y0266353D01*
X0139638Y0264754D02*
X0153727Y0264754D01*
X0153727Y0263156D02*
X0138042Y0263156D01*
X0136447Y0261557D02*
X0153727Y0261557D01*
X0153727Y0259959D02*
X0134851Y0259959D01*
X0133256Y0258360D02*
X0153727Y0258360D01*
X0153727Y0256762D02*
X0131660Y0256762D01*
X0131525Y0256626D02*
X0131862Y0256963D01*
X0131862Y0256964D01*
X0213457Y0338711D01*
X0214974Y0338711D01*
X0216480Y0339335D01*
X0217634Y0340489D01*
X0218258Y0341995D01*
X0218258Y0343627D01*
X0217634Y0345133D01*
X0216480Y0346287D01*
X0214974Y0346911D01*
X0213342Y0346911D01*
X0211836Y0346287D01*
X0210682Y0345133D01*
X0210058Y0343627D01*
X0210058Y0342101D01*
X0132021Y0263918D01*
X0132021Y0264237D01*
X0131382Y0265781D01*
X0130200Y0266962D01*
X0128656Y0267602D01*
X0121786Y0267602D01*
X0120242Y0266962D01*
X0119060Y0265781D01*
X0118421Y0264237D01*
X0118421Y0262566D01*
X0118877Y0261466D01*
X0114226Y0265192D01*
X0113982Y0265436D01*
X0113857Y0265488D01*
X0113751Y0265573D01*
X0113419Y0265669D01*
X0113100Y0265802D01*
X0112964Y0265802D01*
X0112834Y0265839D01*
X0112491Y0265802D01*
X0101361Y0265802D01*
X0100200Y0266962D01*
X0098656Y0267602D01*
X0091786Y0267602D01*
X0090242Y0266962D01*
X0089060Y0265781D01*
X0088421Y0264237D01*
X0088421Y0262566D01*
X0089060Y0261022D01*
X0090242Y0259841D01*
X0091786Y0259202D01*
X0098656Y0259202D01*
X0100200Y0259841D01*
X0101361Y0261002D01*
X0111780Y0261002D01*
X0117357Y0256532D01*
X0117602Y0256288D01*
X0117727Y0256236D01*
X0117833Y0256151D01*
X0118165Y0256055D01*
X0118484Y0255923D01*
X0118620Y0255923D01*
X0118750Y0255885D01*
X0119093Y0255923D01*
X0119203Y0255923D01*
X0119081Y0255802D01*
X0109185Y0255802D01*
X0108775Y0255824D01*
X0108710Y0255802D01*
X0108641Y0255802D01*
X0108262Y0255644D01*
X0107874Y0255508D01*
X0107823Y0255463D01*
X0107759Y0255436D01*
X0107469Y0255146D01*
X0102965Y0251117D01*
X0101421Y0251117D01*
X0102021Y0252566D01*
X0102021Y0254237D01*
X0101382Y0255781D01*
X0100200Y0256962D01*
X0098656Y0257602D01*
X0091786Y0257602D01*
X0090242Y0256962D01*
X0089060Y0255781D01*
X0088421Y0254237D01*
X0088421Y0252566D01*
X0089021Y0251117D01*
X0085413Y0251117D01*
X0060731Y0275277D01*
X0060731Y0332501D01*
X0060366Y0333383D01*
X0051644Y0342105D01*
X0051644Y0343627D01*
X0051020Y0345133D01*
X0049866Y0346287D01*
X0048359Y0346911D01*
X0046728Y0346911D01*
X0045221Y0346287D01*
X0044068Y0345133D01*
X0043444Y0343627D01*
X0043444Y0341995D01*
X0044068Y0340489D01*
X0045221Y0339335D01*
X0046728Y0338711D01*
X0048250Y0338711D01*
X0055931Y0331030D01*
X0055931Y0274732D01*
X0055926Y0274719D01*
X0055931Y0274255D01*
X0055931Y0273790D01*
X0055936Y0273778D01*
X0055936Y0273765D01*
X0056119Y0273337D01*
X0056297Y0272908D01*
X0056306Y0272899D01*
X0056311Y0272887D01*
X0056643Y0272562D01*
X0056972Y0272233D01*
X0056984Y0272228D01*
X0082746Y0247010D01*
X0083074Y0246682D01*
X0083086Y0246677D01*
X0083096Y0246668D01*
X0083527Y0246494D01*
X0083956Y0246317D01*
X0083969Y0246317D01*
X0083982Y0246312D01*
X0084447Y0246317D01*
X0089596Y0246317D01*
X0089081Y0245802D01*
X0071136Y0245802D01*
X0050377Y0266561D01*
X0050377Y0318446D01*
X0050012Y0319328D01*
X0049336Y0320003D01*
X0034944Y0334396D01*
X0034944Y0353943D01*
X0040625Y0359624D01*
X0060920Y0359624D01*
X0077027Y0343517D01*
X0077027Y0341995D01*
X0077651Y0340489D01*
X0078804Y0339335D01*
X0080311Y0338711D01*
X0081942Y0338711D01*
X0083449Y0339335D01*
X0084602Y0340489D01*
X0085226Y0341995D01*
X0085226Y0343627D01*
X0084602Y0345133D01*
X0083449Y0346287D01*
X0081942Y0346911D01*
X0080421Y0346911D01*
X0063273Y0364058D01*
X0062391Y0364424D01*
X0039153Y0364424D01*
X0038271Y0364058D01*
X0037596Y0363383D01*
X0030509Y0356296D01*
X0030144Y0355414D01*
X0030144Y0332924D01*
X0030509Y0332042D01*
X0031184Y0331367D01*
X0031184Y0331367D01*
X0045577Y0316974D01*
X0045577Y0265090D01*
X0045942Y0264207D01*
X0046617Y0263532D01*
X0068783Y0241367D01*
X0069665Y0241002D01*
X0089081Y0241002D01*
X0090242Y0239841D01*
X0091786Y0239202D01*
X0098656Y0239202D01*
X0100200Y0239841D01*
X0101382Y0241022D01*
X0102021Y0242566D01*
X0102021Y0244237D01*
X0101382Y0245781D01*
X0100846Y0246317D01*
X0103816Y0246317D01*
X0104226Y0246294D01*
X0104291Y0246317D01*
X0104360Y0246317D01*
X0104739Y0246474D01*
X0105127Y0246610D01*
X0105178Y0246656D01*
X0105242Y0246682D01*
X0105532Y0246972D01*
X0110036Y0251002D01*
X0119081Y0251002D01*
X0120242Y0249841D01*
X0121786Y0249202D01*
X0128656Y0249202D01*
X0130200Y0249841D01*
X0131382Y0251022D01*
X0132021Y0252566D01*
X0132021Y0254237D01*
X0131382Y0255781D01*
X0130966Y0256197D01*
X0131187Y0256288D01*
X0131188Y0256289D01*
X0131189Y0256289D01*
X0131525Y0256626D01*
X0131637Y0255163D02*
X0153727Y0255163D01*
X0153727Y0253565D02*
X0132021Y0253565D01*
X0131773Y0251966D02*
X0153727Y0251966D01*
X0153727Y0250368D02*
X0130727Y0250368D01*
X0129697Y0247171D02*
X0153727Y0247171D01*
X0153727Y0248769D02*
X0107541Y0248769D01*
X0109327Y0250368D02*
X0119715Y0250368D01*
X0120745Y0247171D02*
X0105754Y0247171D01*
X0103882Y0248717D02*
X0084434Y0248717D01*
X0058331Y0274268D01*
X0058331Y0332024D01*
X0047544Y0342811D01*
X0044672Y0339884D02*
X0034944Y0339884D01*
X0034944Y0338286D02*
X0048675Y0338286D01*
X0050273Y0336687D02*
X0034944Y0336687D01*
X0034944Y0335089D02*
X0051872Y0335089D01*
X0053470Y0333490D02*
X0035849Y0333490D01*
X0037448Y0331892D02*
X0055069Y0331892D01*
X0055931Y0330293D02*
X0039046Y0330293D01*
X0040645Y0328695D02*
X0055931Y0328695D01*
X0055931Y0327096D02*
X0042243Y0327096D01*
X0043842Y0325498D02*
X0055931Y0325498D01*
X0055931Y0323899D02*
X0045440Y0323899D01*
X0047039Y0322301D02*
X0055931Y0322301D01*
X0055931Y0320702D02*
X0048637Y0320702D01*
X0049336Y0320003D02*
X0049336Y0320003D01*
X0050104Y0319104D02*
X0055931Y0319104D01*
X0055931Y0317505D02*
X0050377Y0317505D01*
X0050377Y0315907D02*
X0055931Y0315907D01*
X0055931Y0314308D02*
X0050377Y0314308D01*
X0050377Y0312710D02*
X0055931Y0312710D01*
X0055931Y0311111D02*
X0050377Y0311111D01*
X0050377Y0309513D02*
X0055931Y0309513D01*
X0055931Y0307914D02*
X0050377Y0307914D01*
X0050377Y0306316D02*
X0055931Y0306316D01*
X0055931Y0304717D02*
X0050377Y0304717D01*
X0050377Y0303119D02*
X0055931Y0303119D01*
X0055931Y0301520D02*
X0050377Y0301520D01*
X0050377Y0299922D02*
X0055931Y0299922D01*
X0055931Y0298323D02*
X0050377Y0298323D01*
X0050377Y0296725D02*
X0055931Y0296725D01*
X0055931Y0295126D02*
X0050377Y0295126D01*
X0050377Y0293528D02*
X0055931Y0293528D01*
X0055931Y0291929D02*
X0050377Y0291929D01*
X0050377Y0290331D02*
X0055931Y0290331D01*
X0055931Y0288732D02*
X0050377Y0288732D01*
X0050377Y0287134D02*
X0055931Y0287134D01*
X0055931Y0285535D02*
X0050377Y0285535D01*
X0050377Y0283937D02*
X0055931Y0283937D01*
X0055931Y0282338D02*
X0050377Y0282338D01*
X0050377Y0280739D02*
X0055931Y0280739D01*
X0055931Y0279141D02*
X0050377Y0279141D01*
X0050377Y0277542D02*
X0055931Y0277542D01*
X0055931Y0275944D02*
X0050377Y0275944D01*
X0050377Y0274345D02*
X0055930Y0274345D01*
X0056454Y0272747D02*
X0050377Y0272747D01*
X0050377Y0271148D02*
X0058087Y0271148D01*
X0059720Y0269550D02*
X0050377Y0269550D01*
X0050377Y0267951D02*
X0061353Y0267951D01*
X0062986Y0266353D02*
X0050585Y0266353D01*
X0052184Y0264754D02*
X0064619Y0264754D01*
X0066252Y0263156D02*
X0053782Y0263156D01*
X0055381Y0261557D02*
X0067885Y0261557D01*
X0069518Y0259959D02*
X0056979Y0259959D01*
X0058578Y0258360D02*
X0071151Y0258360D01*
X0072784Y0256762D02*
X0060176Y0256762D01*
X0061775Y0255163D02*
X0074417Y0255163D01*
X0076050Y0253565D02*
X0063373Y0253565D01*
X0064972Y0251966D02*
X0077683Y0251966D01*
X0079316Y0250368D02*
X0066570Y0250368D01*
X0068169Y0248769D02*
X0080949Y0248769D01*
X0082582Y0247171D02*
X0069767Y0247171D01*
X0070142Y0243402D02*
X0047977Y0265567D01*
X0047977Y0317969D01*
X0032544Y0333402D01*
X0032544Y0354937D01*
X0039630Y0362024D01*
X0061914Y0362024D01*
X0081127Y0342811D01*
X0083998Y0339884D02*
X0087972Y0339884D01*
X0087847Y0340010D02*
X0088325Y0339531D01*
X0088873Y0339133D01*
X0089476Y0338826D01*
X0090120Y0338617D01*
X0090788Y0338511D01*
X0091126Y0338511D01*
X0091126Y0342811D01*
X0086827Y0342811D01*
X0086827Y0342473D01*
X0086932Y0341804D01*
X0087142Y0341160D01*
X0087449Y0340557D01*
X0087847Y0340010D01*
X0087037Y0341483D02*
X0085014Y0341483D01*
X0085226Y0343081D02*
X0086827Y0343081D01*
X0086827Y0343149D02*
X0086827Y0342811D01*
X0091126Y0342811D01*
X0091126Y0342811D01*
X0091127Y0342811D01*
X0095426Y0342811D01*
X0091127Y0342811D01*
X0091127Y0342811D01*
X0091126Y0342811D01*
X0091126Y0347111D01*
X0090788Y0347111D01*
X0090120Y0347005D01*
X0089476Y0346796D01*
X0088873Y0346489D01*
X0088325Y0346091D01*
X0087847Y0345612D01*
X0087449Y0345065D01*
X0087142Y0344462D01*
X0086932Y0343818D01*
X0086827Y0343149D01*
X0087253Y0344680D02*
X0084790Y0344680D01*
X0083457Y0346278D02*
X0088583Y0346278D01*
X0091126Y0346278D02*
X0091127Y0346278D01*
X0091127Y0347111D02*
X0091127Y0342811D01*
X0091127Y0338511D01*
X0091465Y0338511D01*
X0092133Y0338617D01*
X0092777Y0338826D01*
X0093380Y0339133D01*
X0093928Y0339531D01*
X0094406Y0340010D01*
X0094804Y0340557D01*
X0095111Y0341160D01*
X0095321Y0341804D01*
X0095426Y0342473D01*
X0095426Y0342811D01*
X0095426Y0343149D01*
X0095321Y0343818D01*
X0095111Y0344462D01*
X0094804Y0345065D01*
X0094406Y0345612D01*
X0093928Y0346091D01*
X0093380Y0346489D01*
X0092777Y0346796D01*
X0092133Y0347005D01*
X0091465Y0347111D01*
X0091127Y0347111D01*
X0091942Y0348711D02*
X0090311Y0348711D01*
X0088804Y0349335D01*
X0087651Y0350489D01*
X0087027Y0351995D01*
X0087027Y0353627D01*
X0087651Y0355133D01*
X0088804Y0356287D01*
X0090311Y0356911D01*
X0091942Y0356911D01*
X0093449Y0356287D01*
X0094602Y0355133D01*
X0095226Y0353627D01*
X0095226Y0351995D01*
X0094602Y0350489D01*
X0093449Y0349335D01*
X0091942Y0348711D01*
X0093589Y0349475D02*
X0111512Y0349475D01*
X0111435Y0349531D02*
X0111983Y0349133D01*
X0112586Y0348826D01*
X0113230Y0348617D01*
X0113898Y0348511D01*
X0114237Y0348511D01*
X0114575Y0348511D01*
X0115244Y0348617D01*
X0115887Y0348826D01*
X0116490Y0349133D01*
X0117038Y0349531D01*
X0117517Y0350010D01*
X0117914Y0350557D01*
X0118222Y0351160D01*
X0118431Y0351804D01*
X0118537Y0352473D01*
X0118537Y0352811D01*
X0118537Y0353149D01*
X0118431Y0353818D01*
X0118222Y0354462D01*
X0117914Y0355065D01*
X0117517Y0355612D01*
X0117038Y0356091D01*
X0116490Y0356489D01*
X0115887Y0356796D01*
X0115244Y0357005D01*
X0114575Y0357111D01*
X0114237Y0357111D01*
X0114237Y0352811D01*
X0114237Y0352811D01*
X0118537Y0352811D01*
X0114237Y0352811D01*
X0114237Y0348511D01*
X0114237Y0352811D01*
X0114237Y0352811D01*
X0114237Y0352811D01*
X0114237Y0357111D01*
X0113898Y0357111D01*
X0113230Y0357005D01*
X0112586Y0356796D01*
X0111983Y0356489D01*
X0111435Y0356091D01*
X0110957Y0355612D01*
X0110559Y0355065D01*
X0110252Y0354462D01*
X0110043Y0353818D01*
X0109937Y0353149D01*
X0109937Y0352811D01*
X0109937Y0352473D01*
X0110043Y0351804D01*
X0110252Y0351160D01*
X0110559Y0350557D01*
X0110957Y0350010D01*
X0111435Y0349531D01*
X0110296Y0351074D02*
X0094845Y0351074D01*
X0095226Y0352672D02*
X0109937Y0352672D01*
X0109937Y0352811D02*
X0114237Y0352811D01*
X0114237Y0352811D01*
X0109937Y0352811D01*
X0110190Y0354271D02*
X0094960Y0354271D01*
X0093866Y0355870D02*
X0111214Y0355870D01*
X0114237Y0355870D02*
X0114237Y0355870D01*
X0114237Y0354271D02*
X0114237Y0354271D01*
X0114237Y0352672D02*
X0114237Y0352672D01*
X0114237Y0351074D02*
X0114237Y0351074D01*
X0114237Y0349475D02*
X0114237Y0349475D01*
X0115052Y0346911D02*
X0113421Y0346911D01*
X0111914Y0346287D01*
X0110761Y0345133D01*
X0110137Y0343627D01*
X0110137Y0341995D01*
X0110761Y0340489D01*
X0111837Y0339413D01*
X0111837Y0303411D01*
X0102021Y0293596D01*
X0102021Y0294237D01*
X0101382Y0295781D01*
X0100200Y0296962D01*
X0098656Y0297602D01*
X0091786Y0297602D01*
X0090242Y0296962D01*
X0089060Y0295781D01*
X0088421Y0294237D01*
X0088421Y0292566D01*
X0089060Y0291022D01*
X0090242Y0289841D01*
X0091786Y0289202D01*
X0097627Y0289202D01*
X0096027Y0287602D01*
X0091786Y0287602D01*
X0090242Y0286962D01*
X0089060Y0285781D01*
X0088421Y0284237D01*
X0088421Y0282566D01*
X0089060Y0281022D01*
X0090242Y0279841D01*
X0091786Y0279202D01*
X0098656Y0279202D01*
X0100200Y0279841D01*
X0101382Y0281022D01*
X0102021Y0282566D01*
X0102021Y0284237D01*
X0101382Y0285781D01*
X0101188Y0285974D01*
X0115596Y0300383D01*
X0116271Y0301058D01*
X0116637Y0301940D01*
X0116637Y0339413D01*
X0117713Y0340489D01*
X0118337Y0341995D01*
X0118337Y0343627D01*
X0117713Y0345133D01*
X0116559Y0346287D01*
X0115052Y0346911D01*
X0116568Y0346278D02*
X0121694Y0346278D01*
X0121435Y0346091D02*
X0121983Y0346489D01*
X0122586Y0346796D01*
X0123230Y0347005D01*
X0123898Y0347111D01*
X0124237Y0347111D01*
X0124237Y0342811D01*
X0124237Y0342811D01*
X0128537Y0342811D01*
X0128537Y0343149D01*
X0128431Y0343818D01*
X0128222Y0344462D01*
X0127914Y0345065D01*
X0127517Y0345612D01*
X0127038Y0346091D01*
X0126490Y0346489D01*
X0125887Y0346796D01*
X0125244Y0347005D01*
X0124575Y0347111D01*
X0124237Y0347111D01*
X0124237Y0342811D01*
X0128537Y0342811D01*
X0128537Y0342473D01*
X0128431Y0341804D01*
X0128222Y0341160D01*
X0127914Y0340557D01*
X0127517Y0340010D01*
X0127038Y0339531D01*
X0126490Y0339133D01*
X0125887Y0338826D01*
X0125244Y0338617D01*
X0124575Y0338511D01*
X0124237Y0338511D01*
X0124237Y0342811D01*
X0124237Y0342811D01*
X0124237Y0342811D01*
X0124237Y0338511D01*
X0123898Y0338511D01*
X0123230Y0338617D01*
X0122586Y0338826D01*
X0121983Y0339133D01*
X0121435Y0339531D01*
X0120957Y0340010D01*
X0120559Y0340557D01*
X0120252Y0341160D01*
X0120043Y0341804D01*
X0119937Y0342473D01*
X0119937Y0342811D01*
X0124237Y0342811D01*
X0124237Y0342811D01*
X0119937Y0342811D01*
X0119937Y0343149D01*
X0120043Y0343818D01*
X0120252Y0344462D01*
X0120559Y0345065D01*
X0120957Y0345612D01*
X0121435Y0346091D01*
X0120363Y0344680D02*
X0117900Y0344680D01*
X0118337Y0343081D02*
X0119937Y0343081D01*
X0120147Y0341483D02*
X0118124Y0341483D01*
X0117108Y0339884D02*
X0121082Y0339884D01*
X0124237Y0339884D02*
X0124237Y0339884D01*
X0124237Y0341483D02*
X0124237Y0341483D01*
X0124237Y0343081D02*
X0124237Y0343081D01*
X0124237Y0344680D02*
X0124237Y0344680D01*
X0124237Y0346278D02*
X0124237Y0346278D01*
X0126780Y0346278D02*
X0145095Y0346278D01*
X0145103Y0346287D02*
X0143950Y0345133D01*
X0143326Y0343627D01*
X0143326Y0342105D01*
X0129997Y0328777D01*
X0129632Y0327895D01*
X0129632Y0312782D01*
X0108226Y0291375D01*
X0107860Y0290493D01*
X0107860Y0283042D01*
X0108226Y0282160D01*
X0108901Y0281485D01*
X0118846Y0271540D01*
X0119060Y0271022D01*
X0120242Y0269841D01*
X0121786Y0269202D01*
X0128656Y0269202D01*
X0130200Y0269841D01*
X0131382Y0271022D01*
X0132021Y0272566D01*
X0132021Y0274237D01*
X0131382Y0275781D01*
X0130200Y0276962D01*
X0128656Y0277602D01*
X0121786Y0277602D01*
X0120242Y0276962D01*
X0120227Y0276947D01*
X0112660Y0284514D01*
X0112660Y0289022D01*
X0118807Y0295168D01*
X0118421Y0294237D01*
X0118421Y0292566D01*
X0119060Y0291022D01*
X0120242Y0289841D01*
X0121786Y0289202D01*
X0128656Y0289202D01*
X0130200Y0289841D01*
X0131361Y0291002D01*
X0131683Y0291002D01*
X0132565Y0291367D01*
X0179909Y0338711D01*
X0181430Y0338711D01*
X0182937Y0339335D01*
X0184090Y0340489D01*
X0184715Y0341995D01*
X0184715Y0343627D01*
X0184090Y0345133D01*
X0182937Y0346287D01*
X0181430Y0346911D01*
X0179799Y0346911D01*
X0178292Y0346287D01*
X0177139Y0345133D01*
X0176515Y0343627D01*
X0176515Y0342105D01*
X0130786Y0296376D01*
X0130200Y0296962D01*
X0128656Y0297602D01*
X0121786Y0297602D01*
X0120855Y0297216D01*
X0133391Y0309753D01*
X0134067Y0310428D01*
X0134432Y0311310D01*
X0134432Y0326423D01*
X0146720Y0338711D01*
X0148241Y0338711D01*
X0149748Y0339335D01*
X0150902Y0340489D01*
X0151526Y0341995D01*
X0151526Y0343627D01*
X0150902Y0345133D01*
X0149748Y0346287D01*
X0148241Y0346911D01*
X0146610Y0346911D01*
X0145103Y0346287D01*
X0143762Y0344680D02*
X0128110Y0344680D01*
X0128537Y0343081D02*
X0143326Y0343081D01*
X0142703Y0341483D02*
X0128326Y0341483D01*
X0127391Y0339884D02*
X0141105Y0339884D01*
X0139506Y0338286D02*
X0116637Y0338286D01*
X0116637Y0336687D02*
X0137908Y0336687D01*
X0136309Y0335089D02*
X0116637Y0335089D01*
X0116637Y0333490D02*
X0134711Y0333490D01*
X0133112Y0331892D02*
X0116637Y0331892D01*
X0116637Y0330293D02*
X0131514Y0330293D01*
X0129963Y0328695D02*
X0116637Y0328695D01*
X0116637Y0327096D02*
X0129632Y0327096D01*
X0129632Y0325498D02*
X0116637Y0325498D01*
X0116637Y0323899D02*
X0129632Y0323899D01*
X0129632Y0322301D02*
X0116637Y0322301D01*
X0116637Y0320702D02*
X0129632Y0320702D01*
X0129632Y0319104D02*
X0116637Y0319104D01*
X0116637Y0317505D02*
X0129632Y0317505D01*
X0129632Y0315907D02*
X0116637Y0315907D01*
X0116637Y0314308D02*
X0129632Y0314308D01*
X0129560Y0312710D02*
X0116637Y0312710D01*
X0116637Y0311111D02*
X0127962Y0311111D01*
X0126363Y0309513D02*
X0116637Y0309513D01*
X0116637Y0307914D02*
X0124765Y0307914D01*
X0123166Y0306316D02*
X0116637Y0306316D01*
X0116637Y0304717D02*
X0121568Y0304717D01*
X0119969Y0303119D02*
X0116637Y0303119D01*
X0116463Y0301520D02*
X0118371Y0301520D01*
X0116772Y0299922D02*
X0115135Y0299922D01*
X0115174Y0298323D02*
X0113537Y0298323D01*
X0113575Y0296725D02*
X0111938Y0296725D01*
X0111977Y0295126D02*
X0110340Y0295126D01*
X0110378Y0293528D02*
X0108741Y0293528D01*
X0108780Y0291929D02*
X0107143Y0291929D01*
X0107860Y0290331D02*
X0105544Y0290331D01*
X0103946Y0288732D02*
X0107860Y0288732D01*
X0107860Y0287134D02*
X0102347Y0287134D01*
X0101483Y0285535D02*
X0107860Y0285535D01*
X0107860Y0283937D02*
X0102021Y0283937D01*
X0101926Y0282338D02*
X0108152Y0282338D01*
X0109646Y0280739D02*
X0101099Y0280739D01*
X0100200Y0276962D02*
X0098656Y0277602D01*
X0091786Y0277602D01*
X0090242Y0276962D01*
X0089060Y0275781D01*
X0088421Y0274237D01*
X0088421Y0272566D01*
X0089060Y0271022D01*
X0090242Y0269841D01*
X0091786Y0269202D01*
X0098656Y0269202D01*
X0100200Y0269841D01*
X0101382Y0271022D01*
X0102021Y0272566D01*
X0102021Y0274237D01*
X0101382Y0275781D01*
X0100200Y0276962D01*
X0101218Y0275944D02*
X0114442Y0275944D01*
X0112843Y0277542D02*
X0098799Y0277542D01*
X0101976Y0274345D02*
X0116040Y0274345D01*
X0117639Y0272747D02*
X0102021Y0272747D01*
X0101434Y0271148D02*
X0119008Y0271148D01*
X0120945Y0269550D02*
X0099497Y0269550D01*
X0100809Y0266353D02*
X0119633Y0266353D01*
X0118635Y0264754D02*
X0114772Y0264754D01*
X0112623Y0263402D02*
X0118961Y0258323D01*
X0129827Y0258323D01*
X0214158Y0342811D01*
X0210058Y0343081D02*
X0194915Y0343081D01*
X0194915Y0343149D02*
X0194809Y0343818D01*
X0194600Y0344462D01*
X0194292Y0345065D01*
X0193895Y0345612D01*
X0193416Y0346091D01*
X0192868Y0346489D01*
X0192265Y0346796D01*
X0191622Y0347005D01*
X0190953Y0347111D01*
X0190615Y0347111D01*
X0190615Y0342811D01*
X0190615Y0342811D01*
X0194915Y0342811D01*
X0194915Y0343149D01*
X0194915Y0342811D02*
X0190615Y0342811D01*
X0190615Y0338511D01*
X0190953Y0338511D01*
X0191622Y0338617D01*
X0192265Y0338826D01*
X0192868Y0339133D01*
X0193416Y0339531D01*
X0193895Y0340010D01*
X0194292Y0340557D01*
X0194600Y0341160D01*
X0194809Y0341804D01*
X0194915Y0342473D01*
X0194915Y0342811D01*
X0194704Y0341483D02*
X0209441Y0341483D01*
X0207846Y0339884D02*
X0193769Y0339884D01*
X0190615Y0339884D02*
X0190615Y0339884D01*
X0190615Y0338511D02*
X0190615Y0342811D01*
X0190615Y0342811D01*
X0190615Y0342811D01*
X0190615Y0347111D01*
X0190276Y0347111D01*
X0189608Y0347005D01*
X0188964Y0346796D01*
X0188361Y0346489D01*
X0187813Y0346091D01*
X0187335Y0345612D01*
X0186937Y0345065D01*
X0186630Y0344462D01*
X0186421Y0343818D01*
X0186315Y0343149D01*
X0186315Y0342811D01*
X0186315Y0342473D01*
X0186421Y0341804D01*
X0186630Y0341160D01*
X0186937Y0340557D01*
X0187335Y0340010D01*
X0187813Y0339531D01*
X0188361Y0339133D01*
X0188964Y0338826D01*
X0189608Y0338617D01*
X0190276Y0338511D01*
X0190615Y0338511D01*
X0190615Y0341483D02*
X0190615Y0341483D01*
X0190615Y0342811D02*
X0186315Y0342811D01*
X0190615Y0342811D01*
X0190615Y0342811D01*
X0190615Y0343081D02*
X0190615Y0343081D01*
X0190615Y0344680D02*
X0190615Y0344680D01*
X0190615Y0346278D02*
X0190615Y0346278D01*
X0188072Y0346278D02*
X0182946Y0346278D01*
X0184278Y0344680D02*
X0186741Y0344680D01*
X0186315Y0343081D02*
X0184715Y0343081D01*
X0184502Y0341483D02*
X0186525Y0341483D01*
X0187460Y0339884D02*
X0183486Y0339884D01*
X0180615Y0342811D02*
X0131205Y0293402D01*
X0125221Y0293402D01*
X0121962Y0298323D02*
X0132733Y0298323D01*
X0134331Y0299922D02*
X0123560Y0299922D01*
X0125159Y0301520D02*
X0135930Y0301520D01*
X0137528Y0303119D02*
X0126757Y0303119D01*
X0128356Y0304717D02*
X0139127Y0304717D01*
X0140725Y0306316D02*
X0129954Y0306316D01*
X0131553Y0307914D02*
X0142324Y0307914D01*
X0143922Y0309513D02*
X0133151Y0309513D01*
X0134350Y0311111D02*
X0145521Y0311111D01*
X0147119Y0312710D02*
X0134432Y0312710D01*
X0134432Y0314308D02*
X0148718Y0314308D01*
X0150316Y0315907D02*
X0134432Y0315907D01*
X0134432Y0317505D02*
X0151915Y0317505D01*
X0153513Y0319104D02*
X0134432Y0319104D01*
X0134432Y0320702D02*
X0155112Y0320702D01*
X0156710Y0322301D02*
X0134432Y0322301D01*
X0134432Y0323899D02*
X0158309Y0323899D01*
X0159907Y0325498D02*
X0134432Y0325498D01*
X0135105Y0327096D02*
X0161506Y0327096D01*
X0163104Y0328695D02*
X0136704Y0328695D01*
X0138302Y0330293D02*
X0164703Y0330293D01*
X0166301Y0331892D02*
X0139901Y0331892D01*
X0141499Y0333490D02*
X0167900Y0333490D01*
X0169498Y0335089D02*
X0143098Y0335089D01*
X0144696Y0336687D02*
X0171097Y0336687D01*
X0172695Y0338286D02*
X0146295Y0338286D01*
X0147426Y0342811D02*
X0132032Y0327417D01*
X0132032Y0311787D01*
X0110260Y0290016D01*
X0110260Y0283520D01*
X0120378Y0273402D01*
X0125221Y0273402D01*
X0121643Y0277542D02*
X0119632Y0277542D01*
X0118033Y0279141D02*
X0147216Y0279141D01*
X0148811Y0280739D02*
X0131099Y0280739D01*
X0131382Y0281022D02*
X0132021Y0282566D01*
X0132021Y0284237D01*
X0131382Y0285781D01*
X0130200Y0286962D01*
X0128656Y0287602D01*
X0121786Y0287602D01*
X0120242Y0286962D01*
X0119060Y0285781D01*
X0118421Y0284237D01*
X0118421Y0282566D01*
X0119060Y0281022D01*
X0120242Y0279841D01*
X0121786Y0279202D01*
X0128656Y0279202D01*
X0130200Y0279841D01*
X0131382Y0281022D01*
X0131926Y0282338D02*
X0150407Y0282338D01*
X0152002Y0283937D02*
X0132021Y0283937D01*
X0131483Y0285535D02*
X0153598Y0285535D01*
X0155193Y0287134D02*
X0129786Y0287134D01*
X0130690Y0290331D02*
X0158384Y0290331D01*
X0159980Y0291929D02*
X0133127Y0291929D01*
X0134725Y0293528D02*
X0161575Y0293528D01*
X0163171Y0295126D02*
X0136324Y0295126D01*
X0137922Y0296725D02*
X0164767Y0296725D01*
X0166362Y0298323D02*
X0139521Y0298323D01*
X0141119Y0299922D02*
X0167958Y0299922D01*
X0169553Y0301520D02*
X0142718Y0301520D01*
X0144316Y0303119D02*
X0171149Y0303119D01*
X0172744Y0304717D02*
X0145915Y0304717D01*
X0147513Y0306316D02*
X0174340Y0306316D01*
X0175935Y0307914D02*
X0149112Y0307914D01*
X0150710Y0309513D02*
X0177531Y0309513D01*
X0179126Y0311111D02*
X0152309Y0311111D01*
X0153907Y0312710D02*
X0180722Y0312710D01*
X0182317Y0314308D02*
X0155506Y0314308D01*
X0157105Y0315907D02*
X0183913Y0315907D01*
X0185508Y0317505D02*
X0158703Y0317505D01*
X0160302Y0319104D02*
X0187104Y0319104D01*
X0188700Y0320702D02*
X0161900Y0320702D01*
X0163499Y0322301D02*
X0190295Y0322301D01*
X0191891Y0323899D02*
X0165097Y0323899D01*
X0166696Y0325498D02*
X0193486Y0325498D01*
X0195082Y0327096D02*
X0168294Y0327096D01*
X0169893Y0328695D02*
X0196677Y0328695D01*
X0198273Y0330293D02*
X0171491Y0330293D01*
X0173090Y0331892D02*
X0199868Y0331892D01*
X0201464Y0333490D02*
X0174688Y0333490D01*
X0176287Y0335089D02*
X0203059Y0335089D01*
X0204655Y0336687D02*
X0177885Y0336687D01*
X0179484Y0338286D02*
X0206250Y0338286D01*
X0208246Y0333490D02*
X0232547Y0333490D01*
X0232547Y0331892D02*
X0206650Y0331892D01*
X0205055Y0330293D02*
X0232547Y0330293D01*
X0232547Y0328695D02*
X0203459Y0328695D01*
X0201864Y0327096D02*
X0232547Y0327096D01*
X0232547Y0325498D02*
X0200268Y0325498D01*
X0198672Y0323899D02*
X0232547Y0323899D01*
X0232547Y0322301D02*
X0197077Y0322301D01*
X0195481Y0320702D02*
X0232547Y0320702D01*
X0232547Y0319104D02*
X0193886Y0319104D01*
X0192290Y0317505D02*
X0232547Y0317505D01*
X0232547Y0315907D02*
X0190695Y0315907D01*
X0189099Y0314308D02*
X0232547Y0314308D01*
X0232547Y0312710D02*
X0187504Y0312710D01*
X0185908Y0311111D02*
X0232547Y0311111D01*
X0232547Y0309513D02*
X0184313Y0309513D01*
X0182717Y0307914D02*
X0232547Y0307914D01*
X0232547Y0306316D02*
X0181122Y0306316D01*
X0179526Y0304717D02*
X0232547Y0304717D01*
X0232547Y0303119D02*
X0177931Y0303119D01*
X0176335Y0301520D02*
X0232547Y0301520D01*
X0232547Y0299922D02*
X0174739Y0299922D01*
X0173144Y0298323D02*
X0232547Y0298323D01*
X0232547Y0296725D02*
X0171548Y0296725D01*
X0169953Y0295126D02*
X0232547Y0295126D01*
X0232547Y0293528D02*
X0168357Y0293528D01*
X0166762Y0291929D02*
X0232547Y0291929D01*
X0232547Y0290331D02*
X0165166Y0290331D01*
X0163571Y0288732D02*
X0232547Y0288732D01*
X0232547Y0287134D02*
X0161975Y0287134D01*
X0160380Y0285535D02*
X0232547Y0285535D01*
X0232547Y0283937D02*
X0231199Y0283937D01*
X0232240Y0282338D02*
X0232547Y0282338D01*
X0232545Y0280739D02*
X0232547Y0280739D01*
X0232547Y0279141D02*
X0232285Y0279141D01*
X0232547Y0277542D02*
X0231308Y0277542D01*
X0225145Y0264754D02*
X0224745Y0264754D01*
X0224745Y0263156D02*
X0225145Y0263156D01*
X0225145Y0261557D02*
X0224745Y0261557D01*
X0224745Y0259959D02*
X0225145Y0259959D01*
X0225145Y0258360D02*
X0224745Y0258360D01*
X0224745Y0256762D02*
X0225145Y0256762D01*
X0217666Y0242375D02*
X0201086Y0242375D01*
X0201086Y0240777D02*
X0217345Y0240777D01*
X0217591Y0239178D02*
X0200790Y0239178D01*
X0199289Y0237580D02*
X0218446Y0237580D01*
X0216847Y0235981D02*
X0197691Y0235981D01*
X0198348Y0234383D02*
X0215249Y0234383D01*
X0213650Y0232784D02*
X0198802Y0232784D01*
X0198522Y0231186D02*
X0212052Y0231186D01*
X0210453Y0229587D02*
X0197298Y0229587D01*
X0188526Y0227989D02*
X0208855Y0227989D01*
X0207256Y0226390D02*
X0188526Y0226390D01*
X0188526Y0224792D02*
X0205658Y0224792D01*
X0204767Y0223901D02*
X0204767Y0223901D01*
X0204078Y0223193D02*
X0188526Y0223193D01*
X0188526Y0221595D02*
X0203727Y0221595D01*
X0203727Y0219996D02*
X0188526Y0219996D01*
X0188526Y0218398D02*
X0203727Y0218398D01*
X0203727Y0216799D02*
X0188526Y0216799D01*
X0188526Y0215201D02*
X0203727Y0215201D01*
X0203727Y0213602D02*
X0188526Y0213602D01*
X0183727Y0219996D02*
X0183179Y0219996D01*
X0186127Y0204307D02*
X0186127Y0253205D01*
X0186166Y0253244D01*
X0196286Y0259959D02*
X0158526Y0259959D01*
X0158526Y0261557D02*
X0196286Y0261557D01*
X0196286Y0263156D02*
X0158526Y0263156D01*
X0158526Y0264754D02*
X0197195Y0264754D01*
X0198794Y0266353D02*
X0158526Y0266353D01*
X0158526Y0267951D02*
X0200392Y0267951D01*
X0201991Y0269550D02*
X0158526Y0269550D01*
X0159049Y0271148D02*
X0203589Y0271148D01*
X0205188Y0272747D02*
X0159589Y0272747D01*
X0159396Y0274345D02*
X0206786Y0274345D01*
X0208385Y0275944D02*
X0158294Y0275944D01*
X0156008Y0273165D02*
X0156127Y0273047D01*
X0156127Y0204307D01*
X0151527Y0204011D02*
X0150726Y0204011D01*
X0150726Y0205609D02*
X0151527Y0205609D01*
X0151527Y0207208D02*
X0150726Y0207208D01*
X0150726Y0208222D02*
X0150026Y0209913D01*
X0148732Y0211207D01*
X0147041Y0211907D01*
X0145211Y0211907D01*
X0143521Y0211207D01*
X0142227Y0209913D01*
X0141527Y0208222D01*
X0141527Y0200392D01*
X0142227Y0198701D01*
X0143521Y0197407D01*
X0145211Y0196707D01*
X0147041Y0196707D01*
X0148732Y0197407D01*
X0150026Y0198701D01*
X0150726Y0200392D01*
X0150726Y0208222D01*
X0150484Y0208806D02*
X0151769Y0208806D01*
X0152719Y0210405D02*
X0149534Y0210405D01*
X0148287Y0212003D02*
X0127158Y0212003D01*
X0125095Y0212003D02*
X0078684Y0212003D01*
X0078684Y0213602D02*
X0105642Y0213602D01*
X0105211Y0211907D02*
X0103521Y0211207D01*
X0102227Y0209913D01*
X0101527Y0208222D01*
X0101527Y0200392D01*
X0102227Y0198701D01*
X0103521Y0197407D01*
X0105211Y0196707D01*
X0107041Y0196707D01*
X0108732Y0197407D01*
X0110026Y0198701D01*
X0110726Y0200392D01*
X0110726Y0208222D01*
X0110026Y0209913D01*
X0108732Y0211207D01*
X0107041Y0211907D01*
X0105211Y0211907D01*
X0102719Y0210405D02*
X0099534Y0210405D01*
X0100026Y0209913D02*
X0098732Y0211207D01*
X0097041Y0211907D01*
X0095211Y0211907D01*
X0093521Y0211207D01*
X0092227Y0209913D01*
X0091527Y0208222D01*
X0091527Y0200392D01*
X0092227Y0198701D01*
X0093521Y0197407D01*
X0095211Y0196707D01*
X0097041Y0196707D01*
X0098732Y0197407D01*
X0100026Y0198701D01*
X0100726Y0200392D01*
X0100726Y0208222D01*
X0100026Y0209913D01*
X0100484Y0208806D02*
X0101769Y0208806D01*
X0101527Y0207208D02*
X0100726Y0207208D01*
X0100726Y0205609D02*
X0101527Y0205609D01*
X0101527Y0204011D02*
X0100726Y0204011D01*
X0100726Y0202412D02*
X0101527Y0202412D01*
X0101527Y0200814D02*
X0100726Y0200814D01*
X0100239Y0199215D02*
X0102014Y0199215D01*
X0103311Y0197617D02*
X0098942Y0197617D01*
X0098468Y0195133D02*
X0096795Y0195826D01*
X0094985Y0195826D01*
X0093313Y0195133D01*
X0092033Y0193853D01*
X0091340Y0192181D01*
X0091340Y0190371D01*
X0092033Y0188698D01*
X0093313Y0187418D01*
X0094985Y0186726D01*
X0096795Y0186726D01*
X0098468Y0187418D01*
X0099748Y0188698D01*
X0100440Y0190371D01*
X0100440Y0192181D01*
X0099748Y0193853D01*
X0098468Y0195133D01*
X0099181Y0194420D02*
X0102600Y0194420D01*
X0102033Y0193853D02*
X0103313Y0195133D01*
X0104985Y0195826D01*
X0106795Y0195826D01*
X0108468Y0195133D01*
X0109748Y0193853D01*
X0110440Y0192181D01*
X0110440Y0190371D01*
X0109748Y0188698D01*
X0108468Y0187418D01*
X0106795Y0186726D01*
X0104985Y0186726D01*
X0103313Y0187418D01*
X0102033Y0188698D01*
X0101340Y0190371D01*
X0101340Y0192181D01*
X0102033Y0193853D01*
X0101606Y0192821D02*
X0100175Y0192821D01*
X0100440Y0191223D02*
X0101340Y0191223D01*
X0101649Y0189624D02*
X0100131Y0189624D01*
X0099075Y0188026D02*
X0102705Y0188026D01*
X0109075Y0188026D02*
X0112705Y0188026D01*
X0113313Y0187418D02*
X0114985Y0186726D01*
X0116795Y0186726D01*
X0118468Y0187418D01*
X0119748Y0188698D01*
X0120440Y0190371D01*
X0120440Y0192181D01*
X0119748Y0193853D01*
X0118468Y0195133D01*
X0116795Y0195826D01*
X0114985Y0195826D01*
X0113313Y0195133D01*
X0112033Y0193853D01*
X0111340Y0192181D01*
X0111340Y0190371D01*
X0112033Y0188698D01*
X0113313Y0187418D01*
X0111649Y0189624D02*
X0110131Y0189624D01*
X0110440Y0191223D02*
X0111340Y0191223D01*
X0111606Y0192821D02*
X0110175Y0192821D01*
X0109181Y0194420D02*
X0112600Y0194420D01*
X0113521Y0197407D02*
X0115211Y0196707D01*
X0117041Y0196707D01*
X0118732Y0197407D01*
X0120026Y0198701D01*
X0120726Y0200392D01*
X0120726Y0208222D01*
X0120026Y0209913D01*
X0118732Y0211207D01*
X0117041Y0211907D01*
X0115211Y0211907D01*
X0113521Y0211207D01*
X0112227Y0209913D01*
X0111527Y0208222D01*
X0111527Y0200392D01*
X0112227Y0198701D01*
X0113521Y0197407D01*
X0113311Y0197617D02*
X0108942Y0197617D01*
X0110239Y0199215D02*
X0112014Y0199215D01*
X0111527Y0200814D02*
X0110726Y0200814D01*
X0110726Y0202412D02*
X0111527Y0202412D01*
X0111527Y0204011D02*
X0110726Y0204011D01*
X0110726Y0205609D02*
X0111527Y0205609D01*
X0111527Y0207208D02*
X0110726Y0207208D01*
X0110484Y0208806D02*
X0111769Y0208806D01*
X0112719Y0210405D02*
X0109534Y0210405D01*
X0108213Y0214425D02*
X0150930Y0214425D01*
X0153572Y0212003D02*
X0153727Y0212003D01*
X0153727Y0216799D02*
X0153620Y0216799D01*
X0153727Y0218398D02*
X0107635Y0218398D01*
X0108034Y0219996D02*
X0106036Y0219996D01*
X0106390Y0221595D02*
X0105101Y0221595D01*
X0106087Y0225291D02*
X0109315Y0222063D01*
X0147819Y0222063D01*
X0151227Y0223193D02*
X0153727Y0223193D01*
X0153727Y0221595D02*
X0151401Y0221595D01*
X0150817Y0219996D02*
X0153727Y0219996D01*
X0153727Y0224792D02*
X0150155Y0224792D01*
X0145484Y0224792D02*
X0109981Y0224792D01*
X0109508Y0226390D02*
X0153727Y0226390D01*
X0153727Y0227989D02*
X0108454Y0227989D01*
X0103720Y0227989D02*
X0069934Y0227989D01*
X0071532Y0226390D02*
X0102666Y0226390D01*
X0102506Y0224792D02*
X0073131Y0224792D01*
X0074729Y0223193D02*
X0098531Y0223193D01*
X0097939Y0221595D02*
X0076328Y0221595D01*
X0077926Y0219996D02*
X0098109Y0219996D01*
X0099176Y0218398D02*
X0078684Y0218398D01*
X0078684Y0216799D02*
X0102445Y0216799D01*
X0104044Y0215201D02*
X0078684Y0215201D01*
X0076284Y0218244D02*
X0076284Y0204465D01*
X0076127Y0204307D01*
X0071527Y0204011D02*
X0070726Y0204011D01*
X0070726Y0205609D02*
X0071527Y0205609D01*
X0071527Y0207208D02*
X0070726Y0207208D01*
X0070484Y0208806D02*
X0071769Y0208806D01*
X0072719Y0210405D02*
X0069534Y0210405D01*
X0068881Y0212003D02*
X0073884Y0212003D01*
X0073884Y0213602D02*
X0068881Y0213602D01*
X0068881Y0215201D02*
X0073884Y0215201D01*
X0073884Y0216799D02*
X0068845Y0216799D01*
X0067714Y0218398D02*
X0072736Y0218398D01*
X0071138Y0219996D02*
X0066115Y0219996D01*
X0064517Y0221595D02*
X0069539Y0221595D01*
X0067941Y0223193D02*
X0062918Y0223193D01*
X0061320Y0224792D02*
X0066342Y0224792D01*
X0064744Y0226390D02*
X0059721Y0226390D01*
X0058123Y0227989D02*
X0063145Y0227989D01*
X0061547Y0229587D02*
X0056524Y0229587D01*
X0054926Y0231186D02*
X0059948Y0231186D01*
X0058350Y0232784D02*
X0053327Y0232784D01*
X0051728Y0234383D02*
X0056751Y0234383D01*
X0055153Y0235981D02*
X0050130Y0235981D01*
X0048531Y0237580D02*
X0053554Y0237580D01*
X0051956Y0239178D02*
X0046933Y0239178D01*
X0045334Y0240777D02*
X0050357Y0240777D01*
X0048759Y0242375D02*
X0043736Y0242375D01*
X0042137Y0243974D02*
X0047160Y0243974D01*
X0045562Y0245572D02*
X0040539Y0245572D01*
X0038940Y0247171D02*
X0043963Y0247171D01*
X0042365Y0248769D02*
X0037342Y0248769D01*
X0034788Y0247929D02*
X0066481Y0216236D01*
X0066481Y0204661D01*
X0066127Y0204307D01*
X0062014Y0199215D02*
X0060239Y0199215D01*
X0060026Y0198701D02*
X0060726Y0200392D01*
X0060726Y0208222D01*
X0060026Y0209913D01*
X0058732Y0211207D01*
X0057041Y0211907D01*
X0055211Y0211907D01*
X0053521Y0211207D01*
X0052227Y0209913D01*
X0051527Y0208222D01*
X0051527Y0200392D01*
X0052227Y0198701D01*
X0053521Y0197407D01*
X0055211Y0196707D01*
X0057041Y0196707D01*
X0058732Y0197407D01*
X0060026Y0198701D01*
X0058942Y0197617D02*
X0063311Y0197617D01*
X0064985Y0195826D02*
X0063313Y0195133D01*
X0062033Y0193853D01*
X0061340Y0192181D01*
X0061340Y0190371D01*
X0062033Y0188698D01*
X0063313Y0187418D01*
X0064985Y0186726D01*
X0066795Y0186726D01*
X0068468Y0187418D01*
X0069748Y0188698D01*
X0070440Y0190371D01*
X0070440Y0192181D01*
X0069748Y0193853D01*
X0068468Y0195133D01*
X0066795Y0195826D01*
X0064985Y0195826D01*
X0062600Y0194420D02*
X0059181Y0194420D01*
X0059748Y0193853D02*
X0058468Y0195133D01*
X0056795Y0195826D01*
X0054985Y0195826D01*
X0053313Y0195133D01*
X0052033Y0193853D01*
X0051340Y0192181D01*
X0051340Y0190371D01*
X0052033Y0188698D01*
X0053313Y0187418D01*
X0054985Y0186726D01*
X0056795Y0186726D01*
X0058468Y0187418D01*
X0059748Y0188698D01*
X0060440Y0190371D01*
X0060440Y0192181D01*
X0059748Y0193853D01*
X0060175Y0192821D02*
X0061606Y0192821D01*
X0061340Y0191223D02*
X0060440Y0191223D01*
X0060131Y0189624D02*
X0061649Y0189624D01*
X0062705Y0188026D02*
X0059075Y0188026D01*
X0052705Y0188026D02*
X0049075Y0188026D01*
X0048468Y0187418D02*
X0049748Y0188698D01*
X0050440Y0190371D01*
X0050440Y0192181D01*
X0049748Y0193853D01*
X0048468Y0195133D01*
X0046795Y0195826D01*
X0044985Y0195826D01*
X0043313Y0195133D01*
X0042033Y0193853D01*
X0041340Y0192181D01*
X0041340Y0190371D01*
X0042033Y0188698D01*
X0043313Y0187418D01*
X0044985Y0186726D01*
X0046795Y0186726D01*
X0048468Y0187418D01*
X0050131Y0189624D02*
X0051649Y0189624D01*
X0051340Y0191223D02*
X0050440Y0191223D01*
X0050175Y0192821D02*
X0051606Y0192821D01*
X0052600Y0194420D02*
X0049181Y0194420D01*
X0048732Y0197407D02*
X0050026Y0198701D01*
X0050726Y0200392D01*
X0050726Y0208222D01*
X0050026Y0209913D01*
X0048732Y0211207D01*
X0047041Y0211907D01*
X0045211Y0211907D01*
X0043521Y0211207D01*
X0042227Y0209913D01*
X0041527Y0208222D01*
X0041527Y0200392D01*
X0042227Y0198701D01*
X0043521Y0197407D01*
X0045211Y0196707D01*
X0047041Y0196707D01*
X0048732Y0197407D01*
X0048942Y0197617D02*
X0053311Y0197617D01*
X0052014Y0199215D02*
X0050239Y0199215D01*
X0050726Y0200814D02*
X0051527Y0200814D01*
X0051527Y0202412D02*
X0050726Y0202412D01*
X0050726Y0204011D02*
X0051527Y0204011D01*
X0051527Y0205609D02*
X0050726Y0205609D01*
X0050726Y0207208D02*
X0051527Y0207208D01*
X0051769Y0208806D02*
X0050484Y0208806D01*
X0049534Y0210405D02*
X0052719Y0210405D01*
X0059534Y0210405D02*
X0062719Y0210405D01*
X0061769Y0208806D02*
X0060484Y0208806D01*
X0060726Y0207208D02*
X0061527Y0207208D01*
X0061527Y0205609D02*
X0060726Y0205609D01*
X0060726Y0204011D02*
X0061527Y0204011D01*
X0061527Y0202412D02*
X0060726Y0202412D01*
X0060726Y0200814D02*
X0061527Y0200814D01*
X0068942Y0197617D02*
X0073311Y0197617D01*
X0072014Y0199215D02*
X0070239Y0199215D01*
X0070726Y0200814D02*
X0071527Y0200814D01*
X0071527Y0202412D02*
X0070726Y0202412D01*
X0073313Y0195133D02*
X0072033Y0193853D01*
X0071340Y0192181D01*
X0071340Y0190371D01*
X0072033Y0188698D01*
X0073313Y0187418D01*
X0074985Y0186726D01*
X0076795Y0186726D01*
X0078468Y0187418D01*
X0079748Y0188698D01*
X0080440Y0190371D01*
X0080440Y0192181D01*
X0079748Y0193853D01*
X0078468Y0195133D01*
X0076795Y0195826D01*
X0074985Y0195826D01*
X0073313Y0195133D01*
X0072600Y0194420D02*
X0069181Y0194420D01*
X0070175Y0192821D02*
X0071606Y0192821D01*
X0071340Y0191223D02*
X0070440Y0191223D01*
X0070131Y0189624D02*
X0071649Y0189624D01*
X0072705Y0188026D02*
X0069075Y0188026D01*
X0079075Y0188026D02*
X0082705Y0188026D01*
X0083313Y0187418D02*
X0084985Y0186726D01*
X0086795Y0186726D01*
X0088468Y0187418D01*
X0089748Y0188698D01*
X0090440Y0190371D01*
X0090440Y0192181D01*
X0089748Y0193853D01*
X0088468Y0195133D01*
X0086795Y0195826D01*
X0084985Y0195826D01*
X0083313Y0195133D01*
X0082033Y0193853D01*
X0081340Y0192181D01*
X0081340Y0190371D01*
X0082033Y0188698D01*
X0083313Y0187418D01*
X0081649Y0189624D02*
X0080131Y0189624D01*
X0080440Y0191223D02*
X0081340Y0191223D01*
X0081606Y0192821D02*
X0080175Y0192821D01*
X0079181Y0194420D02*
X0082600Y0194420D01*
X0083521Y0197407D02*
X0082227Y0198701D01*
X0081527Y0200392D01*
X0081527Y0208222D01*
X0082227Y0209913D01*
X0083521Y0211207D01*
X0085211Y0211907D01*
X0087041Y0211907D01*
X0088732Y0211207D01*
X0090026Y0209913D01*
X0090726Y0208222D01*
X0090726Y0200392D01*
X0090026Y0198701D01*
X0088732Y0197407D01*
X0087041Y0196707D01*
X0085211Y0196707D01*
X0083521Y0197407D01*
X0083311Y0197617D02*
X0078942Y0197617D01*
X0080239Y0199215D02*
X0082014Y0199215D01*
X0081527Y0200814D02*
X0080726Y0200814D01*
X0080726Y0202412D02*
X0081527Y0202412D01*
X0081527Y0204011D02*
X0080726Y0204011D01*
X0080726Y0205609D02*
X0081527Y0205609D01*
X0081527Y0207208D02*
X0080726Y0207208D01*
X0080484Y0208806D02*
X0081769Y0208806D01*
X0082719Y0210405D02*
X0079534Y0210405D01*
X0076284Y0218244D02*
X0036599Y0257929D01*
X0013449Y0257929D01*
X0008965Y0253565D02*
X0005926Y0253565D01*
X0005926Y0255163D02*
X0006710Y0255163D01*
X0005954Y0256762D02*
X0005926Y0256762D01*
X0005926Y0259959D02*
X0006311Y0259959D01*
X0005926Y0261557D02*
X0007572Y0261557D01*
X0005926Y0263156D02*
X0046994Y0263156D01*
X0045716Y0264754D02*
X0005926Y0264754D01*
X0005926Y0266353D02*
X0045577Y0266353D01*
X0045577Y0267951D02*
X0005926Y0267951D01*
X0005926Y0269550D02*
X0045577Y0269550D01*
X0045577Y0271148D02*
X0023955Y0271148D01*
X0022834Y0270027D02*
X0026194Y0273387D01*
X0026194Y0275580D01*
X0020642Y0275580D01*
X0020642Y0275948D01*
X0026194Y0275948D01*
X0026194Y0278140D01*
X0022834Y0281501D01*
X0020641Y0281501D01*
X0020641Y0275948D01*
X0020273Y0275948D01*
X0020273Y0275580D01*
X0014720Y0275580D01*
X0014720Y0273387D01*
X0018081Y0270027D01*
X0020273Y0270027D01*
X0020273Y0275579D01*
X0020641Y0275579D01*
X0020641Y0270027D01*
X0022834Y0270027D01*
X0020641Y0271148D02*
X0020273Y0271148D01*
X0020273Y0272747D02*
X0020641Y0272747D01*
X0020641Y0274345D02*
X0020273Y0274345D01*
X0020273Y0275944D02*
X0005926Y0275944D01*
X0005926Y0277542D02*
X0014720Y0277542D01*
X0014720Y0278140D02*
X0014720Y0275948D01*
X0020273Y0275948D01*
X0020273Y0281501D01*
X0018081Y0281501D01*
X0014720Y0278140D01*
X0015721Y0279141D02*
X0005926Y0279141D01*
X0005926Y0280739D02*
X0017320Y0280739D01*
X0020273Y0280739D02*
X0020641Y0280739D01*
X0020641Y0279141D02*
X0020273Y0279141D01*
X0020273Y0277542D02*
X0020641Y0277542D01*
X0020642Y0275944D02*
X0045577Y0275944D01*
X0045577Y0277542D02*
X0026194Y0277542D01*
X0025193Y0279141D02*
X0045577Y0279141D01*
X0045577Y0280739D02*
X0023595Y0280739D01*
X0026194Y0274345D02*
X0045577Y0274345D01*
X0045577Y0272747D02*
X0025554Y0272747D01*
X0019326Y0261557D02*
X0048592Y0261557D01*
X0050191Y0259959D02*
X0037963Y0259959D01*
X0039562Y0258360D02*
X0051789Y0258360D01*
X0053388Y0256762D02*
X0041160Y0256762D01*
X0042759Y0255163D02*
X0054986Y0255163D01*
X0056585Y0253565D02*
X0044357Y0253565D01*
X0045956Y0251966D02*
X0058183Y0251966D01*
X0059782Y0250368D02*
X0047554Y0250368D01*
X0049153Y0248769D02*
X0061380Y0248769D01*
X0062979Y0247171D02*
X0050751Y0247171D01*
X0052350Y0245572D02*
X0064577Y0245572D01*
X0066176Y0243974D02*
X0053948Y0243974D01*
X0055547Y0242375D02*
X0067774Y0242375D01*
X0070142Y0243402D02*
X0095221Y0243402D01*
X0098656Y0237602D02*
X0091786Y0237602D01*
X0090242Y0236962D01*
X0089060Y0235781D01*
X0088421Y0234237D01*
X0088421Y0232566D01*
X0089060Y0231022D01*
X0090242Y0229841D01*
X0091786Y0229202D01*
X0098656Y0229202D01*
X0100200Y0229841D01*
X0101382Y0231022D01*
X0102021Y0232566D01*
X0102021Y0234237D01*
X0101382Y0235781D01*
X0100200Y0236962D01*
X0098656Y0237602D01*
X0098709Y0237580D02*
X0121733Y0237580D01*
X0121786Y0237602D02*
X0120242Y0236962D01*
X0119060Y0235781D01*
X0118421Y0234237D01*
X0118421Y0232566D01*
X0119060Y0231022D01*
X0120242Y0229841D01*
X0121786Y0229202D01*
X0128656Y0229202D01*
X0130200Y0229841D01*
X0131382Y0231022D01*
X0132021Y0232566D01*
X0132021Y0234237D01*
X0131382Y0235781D01*
X0130200Y0236962D01*
X0128656Y0237602D01*
X0121786Y0237602D01*
X0121786Y0239202D02*
X0120242Y0239841D01*
X0119060Y0241022D01*
X0118421Y0242566D01*
X0118421Y0244237D01*
X0119060Y0245781D01*
X0120242Y0246962D01*
X0121786Y0247602D01*
X0128656Y0247602D01*
X0130200Y0246962D01*
X0131382Y0245781D01*
X0132021Y0244237D01*
X0132021Y0242566D01*
X0131382Y0241022D01*
X0130200Y0239841D01*
X0128656Y0239202D01*
X0121786Y0239202D01*
X0119306Y0240777D02*
X0101136Y0240777D01*
X0101942Y0242375D02*
X0118500Y0242375D01*
X0118421Y0243974D02*
X0102021Y0243974D01*
X0101468Y0245572D02*
X0118974Y0245572D01*
X0117071Y0256762D02*
X0100400Y0256762D01*
X0101637Y0255163D02*
X0107486Y0255163D01*
X0105702Y0253565D02*
X0102021Y0253565D01*
X0101773Y0251966D02*
X0103915Y0251966D01*
X0103882Y0248717D02*
X0109119Y0253402D01*
X0125221Y0253402D01*
X0131468Y0245572D02*
X0153727Y0245572D01*
X0153727Y0243974D02*
X0132021Y0243974D01*
X0131942Y0242375D02*
X0153727Y0242375D01*
X0153727Y0240777D02*
X0131136Y0240777D01*
X0128709Y0237580D02*
X0153727Y0237580D01*
X0153727Y0239178D02*
X0058744Y0239178D01*
X0060342Y0237580D02*
X0091733Y0237580D01*
X0089261Y0235981D02*
X0061941Y0235981D01*
X0063540Y0234383D02*
X0088481Y0234383D01*
X0088421Y0232784D02*
X0065138Y0232784D01*
X0066737Y0231186D02*
X0088993Y0231186D01*
X0090855Y0229587D02*
X0068335Y0229587D01*
X0057145Y0240777D02*
X0089306Y0240777D01*
X0088669Y0251966D02*
X0084545Y0251966D01*
X0082912Y0253565D02*
X0088421Y0253565D01*
X0088805Y0255163D02*
X0081279Y0255163D01*
X0079646Y0256762D02*
X0090042Y0256762D01*
X0090124Y0259959D02*
X0076380Y0259959D01*
X0078013Y0258360D02*
X0115076Y0258360D01*
X0113081Y0259959D02*
X0100318Y0259959D01*
X0095221Y0263402D02*
X0112623Y0263402D01*
X0116767Y0263156D02*
X0118421Y0263156D01*
X0118762Y0261557D02*
X0118839Y0261557D01*
X0111245Y0279141D02*
X0060731Y0279141D01*
X0060731Y0280739D02*
X0089343Y0280739D01*
X0088515Y0282338D02*
X0060731Y0282338D01*
X0060731Y0283937D02*
X0088421Y0283937D01*
X0088959Y0285535D02*
X0060731Y0285535D01*
X0060731Y0287134D02*
X0090656Y0287134D01*
X0089752Y0290331D02*
X0060731Y0290331D01*
X0060731Y0291929D02*
X0088685Y0291929D01*
X0088421Y0293528D02*
X0060731Y0293528D01*
X0060731Y0295126D02*
X0088789Y0295126D01*
X0090004Y0296725D02*
X0060731Y0296725D01*
X0060731Y0298323D02*
X0106748Y0298323D01*
X0105150Y0296725D02*
X0100438Y0296725D01*
X0101653Y0295126D02*
X0103551Y0295126D01*
X0108347Y0299922D02*
X0060731Y0299922D01*
X0060731Y0301520D02*
X0109945Y0301520D01*
X0111544Y0303119D02*
X0060731Y0303119D01*
X0060731Y0304717D02*
X0111837Y0304717D01*
X0111837Y0306316D02*
X0060731Y0306316D01*
X0060731Y0307914D02*
X0111837Y0307914D01*
X0111837Y0309513D02*
X0060731Y0309513D01*
X0060731Y0311111D02*
X0111837Y0311111D01*
X0111837Y0312710D02*
X0060731Y0312710D01*
X0060731Y0314308D02*
X0111837Y0314308D01*
X0111837Y0315907D02*
X0060731Y0315907D01*
X0060731Y0317505D02*
X0111837Y0317505D01*
X0111837Y0319104D02*
X0060731Y0319104D01*
X0060731Y0320702D02*
X0111837Y0320702D01*
X0111837Y0322301D02*
X0060731Y0322301D01*
X0060731Y0323899D02*
X0111837Y0323899D01*
X0111837Y0325498D02*
X0060731Y0325498D01*
X0060731Y0327096D02*
X0111837Y0327096D01*
X0111837Y0328695D02*
X0060731Y0328695D01*
X0060731Y0330293D02*
X0111837Y0330293D01*
X0111837Y0331892D02*
X0060731Y0331892D01*
X0060259Y0333490D02*
X0111837Y0333490D01*
X0111837Y0335089D02*
X0058660Y0335089D01*
X0057062Y0336687D02*
X0111837Y0336687D01*
X0111837Y0338286D02*
X0055463Y0338286D01*
X0055893Y0338826D02*
X0056537Y0338617D01*
X0057205Y0338511D01*
X0057544Y0338511D01*
X0057882Y0338511D01*
X0058551Y0338617D01*
X0059194Y0338826D01*
X0059798Y0339133D01*
X0060345Y0339531D01*
X0060824Y0340010D01*
X0061222Y0340557D01*
X0061529Y0341160D01*
X0061738Y0341804D01*
X0061844Y0342473D01*
X0061844Y0342811D01*
X0061844Y0343149D01*
X0061738Y0343818D01*
X0061529Y0344462D01*
X0061222Y0345065D01*
X0060824Y0345612D01*
X0060345Y0346091D01*
X0059798Y0346489D01*
X0059194Y0346796D01*
X0058551Y0347005D01*
X0057882Y0347111D01*
X0057544Y0347111D01*
X0057544Y0342811D01*
X0057544Y0342811D01*
X0061844Y0342811D01*
X0057544Y0342811D01*
X0057544Y0338511D01*
X0057544Y0342811D01*
X0057544Y0342811D01*
X0057544Y0342811D01*
X0057544Y0347111D01*
X0057205Y0347111D01*
X0056537Y0347005D01*
X0055893Y0346796D01*
X0055290Y0346489D01*
X0054743Y0346091D01*
X0054264Y0345612D01*
X0053866Y0345065D01*
X0053559Y0344462D01*
X0053350Y0343818D01*
X0053244Y0343149D01*
X0053244Y0342811D01*
X0053244Y0342473D01*
X0053350Y0341804D01*
X0053559Y0341160D01*
X0053866Y0340557D01*
X0054264Y0340010D01*
X0054743Y0339531D01*
X0055290Y0339133D01*
X0055893Y0338826D01*
X0054389Y0339884D02*
X0053865Y0339884D01*
X0053454Y0341483D02*
X0052266Y0341483D01*
X0053244Y0342811D02*
X0057544Y0342811D01*
X0057544Y0342811D01*
X0053244Y0342811D01*
X0053244Y0343081D02*
X0051644Y0343081D01*
X0051207Y0344680D02*
X0053670Y0344680D01*
X0055001Y0346278D02*
X0049875Y0346278D01*
X0049194Y0348826D02*
X0049798Y0349133D01*
X0050345Y0349531D01*
X0050824Y0350010D01*
X0051222Y0350557D01*
X0051529Y0351160D01*
X0051738Y0351804D01*
X0051844Y0352473D01*
X0051844Y0352811D01*
X0051844Y0353149D01*
X0051738Y0353818D01*
X0051529Y0354462D01*
X0051222Y0355065D01*
X0050824Y0355612D01*
X0050345Y0356091D01*
X0049798Y0356489D01*
X0049194Y0356796D01*
X0048551Y0357005D01*
X0047882Y0357111D01*
X0047544Y0357111D01*
X0047544Y0352811D01*
X0047544Y0352811D01*
X0051844Y0352811D01*
X0047544Y0352811D01*
X0047544Y0348511D01*
X0047882Y0348511D01*
X0048551Y0348617D01*
X0049194Y0348826D01*
X0050268Y0349475D02*
X0055081Y0349475D01*
X0055221Y0349335D02*
X0056728Y0348711D01*
X0058359Y0348711D01*
X0059866Y0349335D01*
X0061020Y0350489D01*
X0061644Y0351995D01*
X0061644Y0353627D01*
X0061020Y0355133D01*
X0059866Y0356287D01*
X0058359Y0356911D01*
X0056728Y0356911D01*
X0055221Y0356287D01*
X0054068Y0355133D01*
X0053444Y0353627D01*
X0053444Y0351995D01*
X0054068Y0350489D01*
X0055221Y0349335D01*
X0053826Y0351074D02*
X0051485Y0351074D01*
X0051844Y0352672D02*
X0053444Y0352672D01*
X0053711Y0354271D02*
X0051591Y0354271D01*
X0050566Y0355870D02*
X0054804Y0355870D01*
X0057544Y0346278D02*
X0057544Y0346278D01*
X0057544Y0344680D02*
X0057544Y0344680D01*
X0057544Y0343081D02*
X0057544Y0343081D01*
X0057544Y0341483D02*
X0057544Y0341483D01*
X0057544Y0339884D02*
X0057544Y0339884D01*
X0060698Y0339884D02*
X0078255Y0339884D01*
X0077239Y0341483D02*
X0061634Y0341483D01*
X0061844Y0343081D02*
X0077027Y0343081D01*
X0075863Y0344680D02*
X0061418Y0344680D01*
X0060087Y0346278D02*
X0074265Y0346278D01*
X0072666Y0347877D02*
X0034944Y0347877D01*
X0034944Y0349475D02*
X0044819Y0349475D01*
X0044743Y0349531D02*
X0045290Y0349133D01*
X0045893Y0348826D01*
X0046537Y0348617D01*
X0047205Y0348511D01*
X0047544Y0348511D01*
X0047544Y0352811D01*
X0047544Y0352811D01*
X0047544Y0352811D01*
X0047544Y0357111D01*
X0047205Y0357111D01*
X0046537Y0357005D01*
X0045893Y0356796D01*
X0045290Y0356489D01*
X0044743Y0356091D01*
X0044264Y0355612D01*
X0043866Y0355065D01*
X0043559Y0354462D01*
X0043350Y0353818D01*
X0043244Y0353149D01*
X0043244Y0352811D01*
X0043244Y0352473D01*
X0043350Y0351804D01*
X0043559Y0351160D01*
X0043866Y0350557D01*
X0044264Y0350010D01*
X0044743Y0349531D01*
X0043603Y0351074D02*
X0034944Y0351074D01*
X0034944Y0352672D02*
X0043244Y0352672D01*
X0043244Y0352811D02*
X0047544Y0352811D01*
X0047544Y0352811D01*
X0043244Y0352811D01*
X0043497Y0354271D02*
X0035272Y0354271D01*
X0036870Y0355870D02*
X0044521Y0355870D01*
X0047544Y0355870D02*
X0047544Y0355870D01*
X0047544Y0354271D02*
X0047544Y0354271D01*
X0047544Y0352672D02*
X0047544Y0352672D01*
X0047544Y0351074D02*
X0047544Y0351074D01*
X0047544Y0349475D02*
X0047544Y0349475D01*
X0045213Y0346278D02*
X0034944Y0346278D01*
X0034944Y0344680D02*
X0043880Y0344680D01*
X0043444Y0343081D02*
X0034944Y0343081D01*
X0034944Y0341483D02*
X0043656Y0341483D01*
X0033856Y0328695D02*
X0005926Y0328695D01*
X0005926Y0330293D02*
X0032258Y0330293D01*
X0030659Y0331892D02*
X0005926Y0331892D01*
X0005926Y0333490D02*
X0030144Y0333490D01*
X0030144Y0335089D02*
X0005926Y0335089D01*
X0005926Y0336687D02*
X0030144Y0336687D01*
X0030144Y0338286D02*
X0005926Y0338286D01*
X0005926Y0339884D02*
X0030144Y0339884D01*
X0030144Y0341483D02*
X0005926Y0341483D01*
X0005926Y0343081D02*
X0030144Y0343081D01*
X0030144Y0344680D02*
X0005926Y0344680D01*
X0005926Y0346278D02*
X0030144Y0346278D01*
X0030144Y0347877D02*
X0005926Y0347877D01*
X0005926Y0349475D02*
X0030144Y0349475D01*
X0030144Y0351074D02*
X0005926Y0351074D01*
X0005926Y0352672D02*
X0030144Y0352672D01*
X0030144Y0354271D02*
X0005926Y0354271D01*
X0005926Y0355870D02*
X0030332Y0355870D01*
X0031681Y0357468D02*
X0005926Y0357468D01*
X0005926Y0359067D02*
X0033279Y0359067D01*
X0034878Y0360665D02*
X0005926Y0360665D01*
X0005926Y0362264D02*
X0036476Y0362264D01*
X0037596Y0363383D02*
X0037596Y0363383D01*
X0038075Y0363862D02*
X0018897Y0363862D01*
X0014852Y0363862D02*
X0005926Y0363862D01*
X0005926Y0365461D02*
X0010044Y0365461D01*
X0007414Y0367059D02*
X0005926Y0367059D01*
X0023705Y0365461D02*
X0214768Y0365461D01*
X0212138Y0367059D02*
X0026335Y0367059D01*
X0027934Y0368658D02*
X0210539Y0368658D01*
X0209184Y0370256D02*
X0029289Y0370256D01*
X0030212Y0371855D02*
X0208261Y0371855D01*
X0207440Y0373453D02*
X0031034Y0373453D01*
X0031462Y0375052D02*
X0207012Y0375052D01*
X0206583Y0376650D02*
X0031890Y0376650D01*
X0031975Y0378249D02*
X0206499Y0378249D01*
X0206499Y0379847D02*
X0031975Y0379847D01*
X0031839Y0381446D02*
X0206634Y0381446D01*
X0207063Y0383044D02*
X0031411Y0383044D01*
X0030983Y0384643D02*
X0207491Y0384643D01*
X0208371Y0386241D02*
X0030103Y0386241D01*
X0029180Y0387840D02*
X0209294Y0387840D01*
X0210730Y0389438D02*
X0027744Y0389438D01*
X0040067Y0359067D02*
X0061477Y0359067D01*
X0063075Y0357468D02*
X0038469Y0357468D01*
X0035455Y0327096D02*
X0005926Y0327096D01*
X0005926Y0325498D02*
X0037053Y0325498D01*
X0038652Y0323899D02*
X0005926Y0323899D01*
X0005926Y0322301D02*
X0040251Y0322301D01*
X0041849Y0320702D02*
X0005926Y0320702D01*
X0005926Y0319104D02*
X0043448Y0319104D01*
X0045046Y0317505D02*
X0005926Y0317505D01*
X0005926Y0315907D02*
X0045577Y0315907D01*
X0045577Y0314308D02*
X0005926Y0314308D01*
X0005926Y0312710D02*
X0045577Y0312710D01*
X0045577Y0311111D02*
X0005926Y0311111D01*
X0005926Y0309513D02*
X0045577Y0309513D01*
X0045577Y0307914D02*
X0005926Y0307914D01*
X0005926Y0306316D02*
X0045577Y0306316D01*
X0045577Y0304717D02*
X0005926Y0304717D01*
X0005926Y0303119D02*
X0045577Y0303119D01*
X0045577Y0301520D02*
X0005926Y0301520D01*
X0005926Y0299922D02*
X0017100Y0299922D01*
X0018164Y0300986D02*
X0014920Y0297742D01*
X0014920Y0293155D01*
X0018164Y0289912D01*
X0022751Y0289912D01*
X0025994Y0293155D01*
X0025994Y0297742D01*
X0022751Y0300986D01*
X0018164Y0300986D01*
X0015501Y0298323D02*
X0005926Y0298323D01*
X0005926Y0296725D02*
X0014920Y0296725D01*
X0014920Y0295126D02*
X0005926Y0295126D01*
X0005926Y0293528D02*
X0014920Y0293528D01*
X0016146Y0291929D02*
X0005926Y0291929D01*
X0005926Y0290331D02*
X0017745Y0290331D01*
X0023169Y0290331D02*
X0045577Y0290331D01*
X0045577Y0291929D02*
X0024768Y0291929D01*
X0025994Y0293528D02*
X0045577Y0293528D01*
X0045577Y0295126D02*
X0025994Y0295126D01*
X0025994Y0296725D02*
X0045577Y0296725D01*
X0045577Y0298323D02*
X0025413Y0298323D01*
X0023815Y0299922D02*
X0045577Y0299922D01*
X0045577Y0288732D02*
X0005926Y0288732D01*
X0005926Y0287134D02*
X0045577Y0287134D01*
X0045577Y0285535D02*
X0005926Y0285535D01*
X0005926Y0283937D02*
X0045577Y0283937D01*
X0045577Y0282338D02*
X0005926Y0282338D01*
X0005926Y0274345D02*
X0014720Y0274345D01*
X0015361Y0272747D02*
X0005926Y0272747D01*
X0005926Y0271148D02*
X0016959Y0271148D01*
X0020189Y0255163D02*
X0035971Y0255163D01*
X0037569Y0253565D02*
X0017933Y0253565D01*
X0018723Y0251966D02*
X0039168Y0251966D01*
X0040766Y0250368D02*
X0020418Y0250368D01*
X0018920Y0243974D02*
X0035349Y0243974D01*
X0036948Y0242375D02*
X0017736Y0242375D01*
X0020107Y0240777D02*
X0038546Y0240777D01*
X0040145Y0239178D02*
X0020911Y0239178D01*
X0021049Y0237580D02*
X0041743Y0237580D01*
X0043342Y0235981D02*
X0020621Y0235981D01*
X0019408Y0234383D02*
X0044940Y0234383D01*
X0046539Y0232784D02*
X0005926Y0232784D01*
X0005926Y0231186D02*
X0006918Y0231186D01*
X0005941Y0229587D02*
X0005926Y0229587D01*
X0005926Y0234383D02*
X0007490Y0234383D01*
X0006277Y0235981D02*
X0005926Y0235981D01*
X0005926Y0239178D02*
X0005988Y0239178D01*
X0005926Y0240777D02*
X0006792Y0240777D01*
X0005926Y0242375D02*
X0009163Y0242375D01*
X0007978Y0243974D02*
X0005926Y0243974D01*
X0005926Y0245572D02*
X0006447Y0245572D01*
X0006480Y0250368D02*
X0005926Y0250368D01*
X0005926Y0251966D02*
X0008176Y0251966D01*
X0013449Y0247929D02*
X0034788Y0247929D01*
X0048137Y0231186D02*
X0019981Y0231186D01*
X0029534Y0210405D02*
X0032719Y0210405D01*
X0032227Y0209913D02*
X0031527Y0208222D01*
X0031527Y0200392D01*
X0032227Y0198701D01*
X0033521Y0197407D01*
X0035211Y0196707D01*
X0037041Y0196707D01*
X0038732Y0197407D01*
X0040026Y0198701D01*
X0040726Y0200392D01*
X0040726Y0208222D01*
X0040026Y0209913D01*
X0038732Y0211207D01*
X0037041Y0211907D01*
X0035211Y0211907D01*
X0033521Y0211207D01*
X0032227Y0209913D01*
X0031769Y0208806D02*
X0030484Y0208806D01*
X0030726Y0207208D02*
X0031527Y0207208D01*
X0031527Y0205609D02*
X0030726Y0205609D01*
X0030726Y0204011D02*
X0031527Y0204011D01*
X0031527Y0202412D02*
X0030726Y0202412D01*
X0030726Y0200814D02*
X0031527Y0200814D01*
X0032014Y0199215D02*
X0030239Y0199215D01*
X0028942Y0197617D02*
X0033311Y0197617D01*
X0034985Y0195826D02*
X0033313Y0195133D01*
X0032033Y0193853D01*
X0031340Y0192181D01*
X0031340Y0190371D01*
X0032033Y0188698D01*
X0033313Y0187418D01*
X0034985Y0186726D01*
X0036795Y0186726D01*
X0038468Y0187418D01*
X0039748Y0188698D01*
X0040440Y0190371D01*
X0040440Y0192181D01*
X0039748Y0193853D01*
X0038468Y0195133D01*
X0036795Y0195826D01*
X0034985Y0195826D01*
X0032600Y0194420D02*
X0029181Y0194420D01*
X0030175Y0192821D02*
X0031606Y0192821D01*
X0031340Y0191223D02*
X0030440Y0191223D01*
X0030131Y0189624D02*
X0031649Y0189624D01*
X0032705Y0188026D02*
X0029075Y0188026D01*
X0039075Y0188026D02*
X0042705Y0188026D01*
X0041649Y0189624D02*
X0040131Y0189624D01*
X0040440Y0191223D02*
X0041340Y0191223D01*
X0041606Y0192821D02*
X0040175Y0192821D01*
X0039181Y0194420D02*
X0042600Y0194420D01*
X0043311Y0197617D02*
X0038942Y0197617D01*
X0040239Y0199215D02*
X0042014Y0199215D01*
X0041527Y0200814D02*
X0040726Y0200814D01*
X0040726Y0202412D02*
X0041527Y0202412D01*
X0041527Y0204011D02*
X0040726Y0204011D01*
X0040726Y0205609D02*
X0041527Y0205609D01*
X0041527Y0207208D02*
X0040726Y0207208D01*
X0040484Y0208806D02*
X0041769Y0208806D01*
X0042719Y0210405D02*
X0039534Y0210405D01*
X0071481Y0264754D02*
X0088635Y0264754D01*
X0088421Y0263156D02*
X0073114Y0263156D01*
X0074747Y0261557D02*
X0088839Y0261557D01*
X0089633Y0266353D02*
X0069848Y0266353D01*
X0068215Y0267951D02*
X0136047Y0267951D01*
X0134451Y0266353D02*
X0130809Y0266353D01*
X0131807Y0264754D02*
X0132856Y0264754D01*
X0129497Y0269550D02*
X0137642Y0269550D01*
X0139238Y0271148D02*
X0131434Y0271148D01*
X0132021Y0272747D02*
X0140834Y0272747D01*
X0142429Y0274345D02*
X0131976Y0274345D01*
X0131218Y0275944D02*
X0144025Y0275944D01*
X0145620Y0277542D02*
X0128799Y0277542D01*
X0119343Y0280739D02*
X0116435Y0280739D01*
X0114836Y0282338D02*
X0118515Y0282338D01*
X0118421Y0283937D02*
X0113238Y0283937D01*
X0112660Y0285535D02*
X0118959Y0285535D01*
X0120656Y0287134D02*
X0112660Y0287134D01*
X0112660Y0288732D02*
X0156789Y0288732D01*
X0131134Y0296725D02*
X0130438Y0296725D01*
X0119752Y0290331D02*
X0113969Y0290331D01*
X0115568Y0291929D02*
X0118685Y0291929D01*
X0118421Y0293528D02*
X0117166Y0293528D01*
X0118765Y0295126D02*
X0118789Y0295126D01*
X0114237Y0302417D02*
X0114237Y0342811D01*
X0111365Y0339884D02*
X0094281Y0339884D01*
X0095216Y0341483D02*
X0110349Y0341483D01*
X0110137Y0343081D02*
X0095426Y0343081D01*
X0095000Y0344680D02*
X0110573Y0344680D01*
X0111906Y0346278D02*
X0093670Y0346278D01*
X0091127Y0344680D02*
X0091126Y0344680D01*
X0091126Y0343081D02*
X0091127Y0343081D01*
X0091126Y0341483D02*
X0091127Y0341483D01*
X0091126Y0339884D02*
X0091127Y0339884D01*
X0088664Y0349475D02*
X0083851Y0349475D01*
X0083928Y0349531D02*
X0084406Y0350010D01*
X0084804Y0350557D01*
X0085111Y0351160D01*
X0085321Y0351804D01*
X0085426Y0352473D01*
X0085426Y0352811D01*
X0081127Y0352811D01*
X0085426Y0352811D01*
X0085426Y0353149D01*
X0085321Y0353818D01*
X0085111Y0354462D01*
X0084804Y0355065D01*
X0084406Y0355612D01*
X0083928Y0356091D01*
X0083380Y0356489D01*
X0082777Y0356796D01*
X0082133Y0357005D01*
X0081465Y0357111D01*
X0081127Y0357111D01*
X0081127Y0352811D01*
X0081127Y0352811D01*
X0081126Y0352811D01*
X0076827Y0352811D01*
X0076827Y0352473D01*
X0076932Y0351804D01*
X0077142Y0351160D01*
X0077449Y0350557D01*
X0077847Y0350010D01*
X0078325Y0349531D01*
X0078873Y0349133D01*
X0079476Y0348826D01*
X0080120Y0348617D01*
X0080788Y0348511D01*
X0081126Y0348511D01*
X0081126Y0352811D01*
X0081126Y0352811D01*
X0076827Y0352811D01*
X0076827Y0353149D01*
X0076932Y0353818D01*
X0077142Y0354462D01*
X0077449Y0355065D01*
X0077847Y0355612D01*
X0078325Y0356091D01*
X0078873Y0356489D01*
X0079476Y0356796D01*
X0080120Y0357005D01*
X0080788Y0357111D01*
X0081126Y0357111D01*
X0081126Y0352811D01*
X0081127Y0352811D01*
X0081127Y0348511D01*
X0081465Y0348511D01*
X0082133Y0348617D01*
X0082777Y0348826D01*
X0083380Y0349133D01*
X0083928Y0349531D01*
X0085067Y0351074D02*
X0087408Y0351074D01*
X0087027Y0352672D02*
X0085426Y0352672D01*
X0085173Y0354271D02*
X0087293Y0354271D01*
X0088387Y0355870D02*
X0084149Y0355870D01*
X0081127Y0355870D02*
X0081126Y0355870D01*
X0081126Y0354271D02*
X0081127Y0354271D01*
X0081126Y0352672D02*
X0081127Y0352672D01*
X0081126Y0351074D02*
X0081127Y0351074D01*
X0081126Y0349475D02*
X0081127Y0349475D01*
X0079455Y0347877D02*
X0232547Y0347877D01*
X0232547Y0349475D02*
X0226621Y0349475D01*
X0226480Y0349335D02*
X0227634Y0350489D01*
X0228258Y0351995D01*
X0228258Y0353627D01*
X0227634Y0355133D01*
X0226480Y0356287D01*
X0224974Y0356911D01*
X0223342Y0356911D01*
X0221836Y0356287D01*
X0220682Y0355133D01*
X0220058Y0353627D01*
X0220058Y0351995D01*
X0220682Y0350489D01*
X0221836Y0349335D01*
X0223342Y0348711D01*
X0224974Y0348711D01*
X0226480Y0349335D01*
X0227876Y0351074D02*
X0232547Y0351074D01*
X0232547Y0352672D02*
X0228258Y0352672D01*
X0227991Y0354271D02*
X0232547Y0354271D01*
X0232547Y0355870D02*
X0226898Y0355870D01*
X0232547Y0357468D02*
X0069864Y0357468D01*
X0071462Y0355870D02*
X0078104Y0355870D01*
X0077080Y0354271D02*
X0073061Y0354271D01*
X0074659Y0352672D02*
X0076827Y0352672D01*
X0077186Y0351074D02*
X0076258Y0351074D01*
X0077856Y0349475D02*
X0078402Y0349475D01*
X0071068Y0349475D02*
X0060007Y0349475D01*
X0061262Y0351074D02*
X0069469Y0351074D01*
X0067871Y0352672D02*
X0061644Y0352672D01*
X0061377Y0354271D02*
X0066272Y0354271D01*
X0064674Y0355870D02*
X0060284Y0355870D01*
X0066667Y0360665D02*
X0232547Y0360665D01*
X0232547Y0359067D02*
X0068265Y0359067D01*
X0065068Y0362264D02*
X0232547Y0362264D01*
X0232547Y0363862D02*
X0223622Y0363862D01*
X0219576Y0363862D02*
X0063470Y0363862D01*
X0060731Y0288732D02*
X0097157Y0288732D01*
X0095221Y0283402D02*
X0114237Y0302417D01*
X0091643Y0277542D02*
X0060731Y0277542D01*
X0060731Y0275944D02*
X0089224Y0275944D01*
X0088466Y0274345D02*
X0061683Y0274345D01*
X0063316Y0272747D02*
X0088421Y0272747D01*
X0089008Y0271148D02*
X0064949Y0271148D01*
X0066582Y0269550D02*
X0090945Y0269550D01*
X0101181Y0235981D02*
X0119261Y0235981D01*
X0118481Y0234383D02*
X0101961Y0234383D01*
X0102021Y0232784D02*
X0118421Y0232784D01*
X0118993Y0231186D02*
X0101449Y0231186D01*
X0099587Y0229587D02*
X0120855Y0229587D01*
X0129587Y0229587D02*
X0153727Y0229587D01*
X0153727Y0231186D02*
X0131449Y0231186D01*
X0132021Y0232784D02*
X0153727Y0232784D01*
X0153727Y0234383D02*
X0131961Y0234383D01*
X0131181Y0235981D02*
X0153727Y0235981D01*
X0158526Y0212003D02*
X0159547Y0212003D01*
X0151527Y0202412D02*
X0150726Y0202412D01*
X0150726Y0200814D02*
X0151527Y0200814D01*
X0152014Y0199215D02*
X0150239Y0199215D01*
X0148942Y0197617D02*
X0153311Y0197617D01*
X0152600Y0194420D02*
X0149181Y0194420D01*
X0149748Y0193853D02*
X0148468Y0195133D01*
X0146795Y0195826D01*
X0144985Y0195826D01*
X0143313Y0195133D01*
X0142033Y0193853D01*
X0141340Y0192181D01*
X0141340Y0190371D01*
X0142033Y0188698D01*
X0143313Y0187418D01*
X0144985Y0186726D01*
X0146795Y0186726D01*
X0148468Y0187418D01*
X0149748Y0188698D01*
X0150440Y0190371D01*
X0150440Y0192181D01*
X0149748Y0193853D01*
X0150175Y0192821D02*
X0151606Y0192821D01*
X0151340Y0191223D02*
X0150440Y0191223D01*
X0150131Y0189624D02*
X0151649Y0189624D01*
X0152705Y0188026D02*
X0149075Y0188026D01*
X0143311Y0197617D02*
X0138942Y0197617D01*
X0138732Y0197407D02*
X0140026Y0198701D01*
X0140726Y0200392D01*
X0140726Y0208222D01*
X0140026Y0209913D01*
X0138732Y0211207D01*
X0137041Y0211907D01*
X0135211Y0211907D01*
X0133521Y0211207D01*
X0132227Y0209913D01*
X0131527Y0208222D01*
X0131527Y0200392D01*
X0132227Y0198701D01*
X0133521Y0197407D01*
X0135211Y0196707D01*
X0137041Y0196707D01*
X0138732Y0197407D01*
X0140239Y0199215D02*
X0142014Y0199215D01*
X0141527Y0200814D02*
X0140726Y0200814D01*
X0140726Y0202412D02*
X0141527Y0202412D01*
X0141527Y0204011D02*
X0140726Y0204011D01*
X0140726Y0205609D02*
X0141527Y0205609D01*
X0141527Y0207208D02*
X0140726Y0207208D01*
X0140484Y0208806D02*
X0141769Y0208806D01*
X0142719Y0210405D02*
X0139534Y0210405D01*
X0132719Y0210405D02*
X0129809Y0210405D01*
X0130686Y0208806D02*
X0131769Y0208806D01*
X0131527Y0207208D02*
X0130926Y0207208D01*
X0130926Y0205609D02*
X0131527Y0205609D01*
X0131527Y0204011D02*
X0130926Y0204011D01*
X0130926Y0204107D02*
X0126327Y0204107D01*
X0126327Y0196507D01*
X0126504Y0196507D01*
X0127251Y0196625D01*
X0127969Y0196859D01*
X0128642Y0197202D01*
X0129253Y0197646D01*
X0129788Y0198180D01*
X0130232Y0198791D01*
X0130575Y0199465D01*
X0130808Y0200183D01*
X0130926Y0200929D01*
X0130926Y0204107D01*
X0130926Y0202412D02*
X0131527Y0202412D01*
X0131527Y0200814D02*
X0130908Y0200814D01*
X0130448Y0199215D02*
X0132014Y0199215D01*
X0133311Y0197617D02*
X0129214Y0197617D01*
X0126327Y0197617D02*
X0125926Y0197617D01*
X0125926Y0199215D02*
X0126327Y0199215D01*
X0126327Y0200814D02*
X0125926Y0200814D01*
X0125926Y0202412D02*
X0126327Y0202412D01*
X0126327Y0204011D02*
X0125926Y0204011D01*
X0121805Y0199215D02*
X0120239Y0199215D01*
X0120726Y0200814D02*
X0121345Y0200814D01*
X0121327Y0202412D02*
X0120726Y0202412D01*
X0120726Y0204011D02*
X0121327Y0204011D01*
X0121327Y0205609D02*
X0120726Y0205609D01*
X0120726Y0207208D02*
X0121327Y0207208D01*
X0121567Y0208806D02*
X0120484Y0208806D01*
X0119534Y0210405D02*
X0122444Y0210405D01*
X0123039Y0197617D02*
X0118942Y0197617D01*
X0119181Y0194420D02*
X0122317Y0194420D01*
X0121398Y0192821D02*
X0120175Y0192821D01*
X0120440Y0191223D02*
X0125715Y0191223D01*
X0126065Y0191223D02*
X0131340Y0191223D01*
X0130640Y0191101D02*
X0126065Y0191101D01*
X0126065Y0186526D01*
X0126264Y0186526D01*
X0127003Y0186643D01*
X0127714Y0186874D01*
X0128380Y0187213D01*
X0128985Y0187652D01*
X0129513Y0188181D01*
X0129953Y0188786D01*
X0130292Y0189452D01*
X0130523Y0190163D01*
X0130640Y0190902D01*
X0130640Y0191101D01*
X0130348Y0189624D02*
X0131649Y0189624D01*
X0132705Y0188026D02*
X0129358Y0188026D01*
X0130382Y0192821D02*
X0131606Y0192821D01*
X0132600Y0194420D02*
X0129464Y0194420D01*
X0126065Y0194420D02*
X0125715Y0194420D01*
X0125715Y0192821D02*
X0126065Y0192821D01*
X0126065Y0189624D02*
X0125715Y0189624D01*
X0125715Y0188026D02*
X0126065Y0188026D01*
X0122423Y0188026D02*
X0119075Y0188026D01*
X0120131Y0189624D02*
X0121432Y0189624D01*
X0135890Y0191276D02*
X0135890Y0182654D01*
X0144552Y0173992D01*
X0142705Y0188026D02*
X0139075Y0188026D01*
X0140131Y0189624D02*
X0141649Y0189624D01*
X0141340Y0191223D02*
X0140440Y0191223D01*
X0140175Y0192821D02*
X0141606Y0192821D01*
X0142600Y0194420D02*
X0139181Y0194420D01*
X0108213Y0214425D02*
X0101520Y0221118D01*
X0092719Y0210405D02*
X0089534Y0210405D01*
X0090484Y0208806D02*
X0091769Y0208806D01*
X0091527Y0207208D02*
X0090726Y0207208D01*
X0090726Y0205609D02*
X0091527Y0205609D01*
X0091527Y0204011D02*
X0090726Y0204011D01*
X0090726Y0202412D02*
X0091527Y0202412D01*
X0091527Y0200814D02*
X0090726Y0200814D01*
X0090239Y0199215D02*
X0092014Y0199215D01*
X0093311Y0197617D02*
X0088942Y0197617D01*
X0089181Y0194420D02*
X0092600Y0194420D01*
X0091606Y0192821D02*
X0090175Y0192821D01*
X0090440Y0191223D02*
X0091340Y0191223D01*
X0091649Y0189624D02*
X0090131Y0189624D01*
X0089075Y0188026D02*
X0092705Y0188026D01*
X0118820Y0144866D02*
X0126330Y0144866D01*
X0130411Y0144866D02*
X0205969Y0144866D01*
X0207273Y0143268D02*
X0118290Y0143268D01*
X0118290Y0141669D02*
X0208215Y0141669D01*
X0208215Y0140070D02*
X0118290Y0140070D01*
X0118290Y0138472D02*
X0208215Y0138472D01*
X0208215Y0136873D02*
X0118290Y0136873D01*
X0118290Y0135275D02*
X0123656Y0135275D01*
X0123313Y0135133D02*
X0122033Y0133853D01*
X0121340Y0132181D01*
X0121340Y0130371D01*
X0122033Y0128698D01*
X0123313Y0127418D01*
X0124985Y0126726D01*
X0126795Y0126726D01*
X0128468Y0127418D01*
X0129748Y0128698D01*
X0130440Y0130371D01*
X0130440Y0132181D01*
X0129748Y0133853D01*
X0128468Y0135133D01*
X0126795Y0135826D01*
X0124985Y0135826D01*
X0123313Y0135133D01*
X0121960Y0133676D02*
X0119821Y0133676D01*
X0120440Y0132078D02*
X0121340Y0132078D01*
X0121340Y0130479D02*
X0120440Y0130479D01*
X0119823Y0128881D02*
X0121957Y0128881D01*
X0123641Y0127282D02*
X0118140Y0127282D01*
X0119263Y0122487D02*
X0122202Y0122487D01*
X0121324Y0120888D02*
X0120142Y0120888D01*
X0120333Y0119290D02*
X0121133Y0119290D01*
X0121133Y0117691D02*
X0120333Y0117691D01*
X0120333Y0116093D02*
X0121133Y0116093D01*
X0121133Y0114494D02*
X0120333Y0114494D01*
X0120333Y0112896D02*
X0121133Y0112896D01*
X0121671Y0111297D02*
X0119795Y0111297D01*
X0118425Y0109699D02*
X0123040Y0109699D01*
X0128425Y0109699D02*
X0133040Y0109699D01*
X0131671Y0111297D02*
X0129795Y0111297D01*
X0130333Y0112896D02*
X0131133Y0112896D01*
X0131133Y0114494D02*
X0130333Y0114494D01*
X0130333Y0116093D02*
X0131133Y0116093D01*
X0131133Y0117691D02*
X0130333Y0117691D01*
X0130333Y0119290D02*
X0131133Y0119290D01*
X0131324Y0120888D02*
X0130142Y0120888D01*
X0129263Y0122487D02*
X0132202Y0122487D01*
X0133641Y0127282D02*
X0128140Y0127282D01*
X0129823Y0128881D02*
X0131957Y0128881D01*
X0132033Y0128698D02*
X0133313Y0127418D01*
X0134985Y0126726D01*
X0136795Y0126726D01*
X0138468Y0127418D01*
X0139748Y0128698D01*
X0140440Y0130371D01*
X0140440Y0132181D01*
X0139748Y0133853D01*
X0138468Y0135133D01*
X0136795Y0135826D01*
X0134985Y0135826D01*
X0133313Y0135133D01*
X0132033Y0133853D01*
X0131340Y0132181D01*
X0131340Y0130371D01*
X0132033Y0128698D01*
X0131340Y0130479D02*
X0130440Y0130479D01*
X0130440Y0132078D02*
X0131340Y0132078D01*
X0131960Y0133676D02*
X0129821Y0133676D01*
X0128125Y0135275D02*
X0133656Y0135275D01*
X0138125Y0135275D02*
X0143656Y0135275D01*
X0143313Y0135133D02*
X0142033Y0133853D01*
X0141340Y0132181D01*
X0141340Y0130371D01*
X0142033Y0128698D01*
X0143313Y0127418D01*
X0144985Y0126726D01*
X0146795Y0126726D01*
X0148468Y0127418D01*
X0149748Y0128698D01*
X0150440Y0130371D01*
X0150440Y0132181D01*
X0149748Y0133853D01*
X0148468Y0135133D01*
X0146795Y0135826D01*
X0144985Y0135826D01*
X0143313Y0135133D01*
X0141960Y0133676D02*
X0139821Y0133676D01*
X0140440Y0132078D02*
X0141340Y0132078D01*
X0141340Y0130479D02*
X0140440Y0130479D01*
X0139823Y0128881D02*
X0141957Y0128881D01*
X0143641Y0127282D02*
X0138140Y0127282D01*
X0139263Y0122487D02*
X0142202Y0122487D01*
X0141324Y0120888D02*
X0140142Y0120888D01*
X0140333Y0119290D02*
X0141133Y0119290D01*
X0141133Y0117691D02*
X0140333Y0117691D01*
X0140333Y0116093D02*
X0141133Y0116093D01*
X0141133Y0114494D02*
X0140333Y0114494D01*
X0140333Y0112896D02*
X0141133Y0112896D01*
X0141671Y0111297D02*
X0139795Y0111297D01*
X0138425Y0109699D02*
X0143040Y0109699D01*
X0148425Y0109699D02*
X0153040Y0109699D01*
X0151671Y0111297D02*
X0149795Y0111297D01*
X0150333Y0112896D02*
X0151133Y0112896D01*
X0151133Y0114494D02*
X0150333Y0114494D01*
X0150333Y0116093D02*
X0151133Y0116093D01*
X0151133Y0117691D02*
X0150333Y0117691D01*
X0150333Y0119290D02*
X0151133Y0119290D01*
X0151324Y0120888D02*
X0150142Y0120888D01*
X0149263Y0122487D02*
X0152202Y0122487D01*
X0153641Y0127282D02*
X0148140Y0127282D01*
X0149823Y0128881D02*
X0151957Y0128881D01*
X0152033Y0128698D02*
X0153313Y0127418D01*
X0154985Y0126726D01*
X0156795Y0126726D01*
X0158468Y0127418D01*
X0159748Y0128698D01*
X0160440Y0130371D01*
X0160440Y0132181D01*
X0159748Y0133853D01*
X0158468Y0135133D01*
X0156795Y0135826D01*
X0154985Y0135826D01*
X0153313Y0135133D01*
X0152033Y0133853D01*
X0151340Y0132181D01*
X0151340Y0130371D01*
X0152033Y0128698D01*
X0151340Y0130479D02*
X0150440Y0130479D01*
X0150440Y0132078D02*
X0151340Y0132078D01*
X0151960Y0133676D02*
X0149821Y0133676D01*
X0148125Y0135275D02*
X0153656Y0135275D01*
X0158125Y0135275D02*
X0163656Y0135275D01*
X0163313Y0135133D02*
X0162033Y0133853D01*
X0161340Y0132181D01*
X0161340Y0130371D01*
X0162033Y0128698D01*
X0163313Y0127418D01*
X0164985Y0126726D01*
X0166795Y0126726D01*
X0168468Y0127418D01*
X0169748Y0128698D01*
X0170440Y0130371D01*
X0170440Y0132181D01*
X0169748Y0133853D01*
X0168468Y0135133D01*
X0166795Y0135826D01*
X0164985Y0135826D01*
X0163313Y0135133D01*
X0161960Y0133676D02*
X0159821Y0133676D01*
X0160440Y0132078D02*
X0161340Y0132078D01*
X0161340Y0130479D02*
X0160440Y0130479D01*
X0159823Y0128881D02*
X0161957Y0128881D01*
X0163641Y0127282D02*
X0158140Y0127282D01*
X0159263Y0122487D02*
X0162202Y0122487D01*
X0161324Y0120888D02*
X0160142Y0120888D01*
X0160333Y0119290D02*
X0161133Y0119290D01*
X0161133Y0117691D02*
X0160333Y0117691D01*
X0160333Y0116093D02*
X0161133Y0116093D01*
X0161133Y0114494D02*
X0160333Y0114494D01*
X0160333Y0112896D02*
X0161133Y0112896D01*
X0161671Y0111297D02*
X0159795Y0111297D01*
X0158425Y0109699D02*
X0163040Y0109699D01*
X0168425Y0109699D02*
X0173040Y0109699D01*
X0171671Y0111297D02*
X0169795Y0111297D01*
X0170333Y0112896D02*
X0171133Y0112896D01*
X0171133Y0114494D02*
X0170333Y0114494D01*
X0170333Y0116093D02*
X0171133Y0116093D01*
X0171133Y0117691D02*
X0170333Y0117691D01*
X0170333Y0119290D02*
X0171133Y0119290D01*
X0171324Y0120888D02*
X0170142Y0120888D01*
X0169263Y0122487D02*
X0172202Y0122487D01*
X0173641Y0127282D02*
X0168140Y0127282D01*
X0169823Y0128881D02*
X0171957Y0128881D01*
X0172033Y0128698D02*
X0173313Y0127418D01*
X0174985Y0126726D01*
X0176795Y0126726D01*
X0178468Y0127418D01*
X0179748Y0128698D01*
X0180440Y0130371D01*
X0180440Y0132181D01*
X0179748Y0133853D01*
X0178468Y0135133D01*
X0176795Y0135826D01*
X0174985Y0135826D01*
X0173313Y0135133D01*
X0172033Y0133853D01*
X0171340Y0132181D01*
X0171340Y0130371D01*
X0172033Y0128698D01*
X0171340Y0130479D02*
X0170440Y0130479D01*
X0170440Y0132078D02*
X0171340Y0132078D01*
X0171960Y0133676D02*
X0169821Y0133676D01*
X0168125Y0135275D02*
X0173656Y0135275D01*
X0178125Y0135275D02*
X0183656Y0135275D01*
X0181960Y0133676D02*
X0179821Y0133676D01*
X0180440Y0132078D02*
X0181340Y0132078D01*
X0181340Y0130479D02*
X0180440Y0130479D01*
X0179823Y0128881D02*
X0181957Y0128881D01*
X0183641Y0127282D02*
X0178140Y0127282D01*
X0179263Y0122487D02*
X0182202Y0122487D01*
X0181324Y0120888D02*
X0180142Y0120888D01*
X0180333Y0119290D02*
X0181133Y0119290D01*
X0181133Y0117691D02*
X0180333Y0117691D01*
X0180333Y0116093D02*
X0181133Y0116093D01*
X0181133Y0114494D02*
X0180333Y0114494D01*
X0180333Y0112896D02*
X0181133Y0112896D01*
X0181671Y0111297D02*
X0179795Y0111297D01*
X0178425Y0109699D02*
X0183040Y0109699D01*
X0182157Y0084123D02*
X0163856Y0084123D01*
X0156953Y0069736D02*
X0156953Y0069736D01*
X0156953Y0068137D02*
X0156953Y0068137D01*
X0156953Y0066539D02*
X0156953Y0066539D01*
X0156953Y0064940D02*
X0156953Y0064940D01*
X0156953Y0063342D02*
X0156953Y0063342D01*
X0156953Y0061743D02*
X0156953Y0061743D01*
X0156953Y0060145D02*
X0156953Y0060145D01*
X0156953Y0058546D02*
X0156953Y0058546D01*
X0105933Y0109699D02*
X0105533Y0109699D01*
X0105533Y0111297D02*
X0105933Y0111297D01*
X0105933Y0112896D02*
X0105533Y0112896D01*
X0105533Y0114494D02*
X0105933Y0114494D01*
X0105933Y0116093D02*
X0105533Y0116093D01*
X0105533Y0117691D02*
X0105933Y0117691D01*
X0105933Y0119290D02*
X0105533Y0119290D01*
X0105533Y0120888D02*
X0105933Y0120888D01*
X0199075Y0188026D02*
X0202705Y0188026D01*
X0201649Y0189624D02*
X0200131Y0189624D01*
X0200440Y0191223D02*
X0201340Y0191223D01*
X0201606Y0192821D02*
X0200175Y0192821D01*
X0199181Y0194420D02*
X0202600Y0194420D01*
X0203311Y0197617D02*
X0198942Y0197617D01*
X0200239Y0199215D02*
X0202014Y0199215D01*
X0201527Y0200814D02*
X0200726Y0200814D01*
X0200726Y0202412D02*
X0201527Y0202412D01*
X0216127Y0204307D02*
X0216127Y0220016D01*
X0215930Y0220213D01*
X0219233Y0221595D02*
X0232547Y0221595D01*
X0232547Y0223193D02*
X0218014Y0223193D01*
X0219511Y0219996D02*
X0232547Y0219996D01*
X0232547Y0218398D02*
X0219054Y0218398D01*
X0218526Y0216799D02*
X0232547Y0216799D01*
X0232547Y0215201D02*
X0218526Y0215201D01*
X0218526Y0213602D02*
X0232547Y0213602D01*
X0232547Y0212003D02*
X0218526Y0212003D01*
X0219534Y0210405D02*
X0232547Y0210405D01*
X0232547Y0208806D02*
X0220484Y0208806D01*
X0220726Y0207208D02*
X0232547Y0207208D01*
X0232547Y0205609D02*
X0220726Y0205609D01*
X0220726Y0204011D02*
X0232547Y0204011D01*
X0232547Y0202412D02*
X0220726Y0202412D01*
X0220726Y0200814D02*
X0222490Y0200814D01*
X0221797Y0199215D02*
X0220239Y0199215D01*
X0218942Y0197617D02*
X0221925Y0197617D01*
X0228267Y0200814D02*
X0232547Y0200814D01*
X0232547Y0199215D02*
X0228960Y0199215D01*
X0228832Y0197617D02*
X0232547Y0197617D01*
X0220294Y0226390D02*
X0214045Y0226390D01*
X0215643Y0227989D02*
X0218136Y0227989D01*
X0217421Y0229587D02*
X0217242Y0229587D01*
X0208215Y0135275D02*
X0208125Y0135275D01*
X0208140Y0127282D02*
X0208215Y0127282D01*
X0213015Y0125684D02*
X0232547Y0125684D01*
X0214754Y0124085D02*
X0213209Y0124085D01*
X0229239Y0029773D02*
X0232547Y0029773D01*
X0232547Y0028175D02*
X0231527Y0028175D01*
X0232547Y0335089D02*
X0209841Y0335089D01*
X0211437Y0336687D02*
X0232547Y0336687D01*
X0232547Y0338286D02*
X0213032Y0338286D01*
X0217030Y0339884D02*
X0221003Y0339884D01*
X0220878Y0340010D02*
X0221357Y0339531D01*
X0221904Y0339133D01*
X0222507Y0338826D01*
X0223151Y0338617D01*
X0223820Y0338511D01*
X0224158Y0338511D01*
X0224496Y0338511D01*
X0225165Y0338617D01*
X0225809Y0338826D01*
X0226412Y0339133D01*
X0226959Y0339531D01*
X0227438Y0340010D01*
X0227836Y0340557D01*
X0228143Y0341160D01*
X0228352Y0341804D01*
X0228458Y0342473D01*
X0228458Y0342811D01*
X0224158Y0342811D01*
X0224158Y0338511D01*
X0224158Y0342811D01*
X0224158Y0342811D01*
X0224158Y0342811D01*
X0219858Y0342811D01*
X0219858Y0342473D01*
X0219964Y0341804D01*
X0220173Y0341160D01*
X0220480Y0340557D01*
X0220878Y0340010D01*
X0220068Y0341483D02*
X0218046Y0341483D01*
X0218258Y0343081D02*
X0219858Y0343081D01*
X0219858Y0343149D02*
X0219858Y0342811D01*
X0224158Y0342811D01*
X0224158Y0342811D01*
X0228458Y0342811D01*
X0228458Y0343149D01*
X0228352Y0343818D01*
X0228143Y0344462D01*
X0227836Y0345065D01*
X0227438Y0345612D01*
X0226959Y0346091D01*
X0226412Y0346489D01*
X0225809Y0346796D01*
X0225165Y0347005D01*
X0224496Y0347111D01*
X0224158Y0347111D01*
X0224158Y0342811D01*
X0224158Y0342811D01*
X0224158Y0347111D01*
X0223820Y0347111D01*
X0223151Y0347005D01*
X0222507Y0346796D01*
X0221904Y0346489D01*
X0221357Y0346091D01*
X0220878Y0345612D01*
X0220480Y0345065D01*
X0220173Y0344462D01*
X0219964Y0343818D01*
X0219858Y0343149D01*
X0220284Y0344680D02*
X0217822Y0344680D01*
X0216489Y0346278D02*
X0221615Y0346278D01*
X0221695Y0349475D02*
X0216883Y0349475D01*
X0216959Y0349531D02*
X0216412Y0349133D01*
X0215809Y0348826D01*
X0215165Y0348617D01*
X0214496Y0348511D01*
X0214158Y0348511D01*
X0214158Y0352811D01*
X0214158Y0352811D01*
X0214158Y0352811D01*
X0218458Y0352811D01*
X0218458Y0352473D01*
X0218352Y0351804D01*
X0218143Y0351160D01*
X0217836Y0350557D01*
X0217438Y0350010D01*
X0216959Y0349531D01*
X0218099Y0351074D02*
X0220440Y0351074D01*
X0220058Y0352672D02*
X0218458Y0352672D01*
X0218458Y0352811D02*
X0218458Y0353149D01*
X0218352Y0353818D01*
X0218143Y0354462D01*
X0217836Y0355065D01*
X0217438Y0355612D01*
X0216959Y0356091D01*
X0216412Y0356489D01*
X0215809Y0356796D01*
X0215165Y0357005D01*
X0214496Y0357111D01*
X0214158Y0357111D01*
X0214158Y0352811D01*
X0214158Y0348511D01*
X0213820Y0348511D01*
X0213151Y0348617D01*
X0212507Y0348826D01*
X0211904Y0349133D01*
X0211357Y0349531D01*
X0210878Y0350010D01*
X0210480Y0350557D01*
X0210173Y0351160D01*
X0209964Y0351804D01*
X0209858Y0352473D01*
X0209858Y0352811D01*
X0214158Y0352811D01*
X0214158Y0352811D01*
X0218458Y0352811D01*
X0218205Y0354271D02*
X0220325Y0354271D01*
X0221418Y0355870D02*
X0217181Y0355870D01*
X0214158Y0355870D02*
X0214158Y0355870D01*
X0214158Y0357111D02*
X0214158Y0352811D01*
X0209858Y0352811D01*
X0209858Y0353149D01*
X0209964Y0353818D01*
X0210173Y0354462D01*
X0210480Y0355065D01*
X0210878Y0355612D01*
X0211357Y0356091D01*
X0211904Y0356489D01*
X0212507Y0356796D01*
X0213151Y0357005D01*
X0213820Y0357111D01*
X0214158Y0357111D01*
X0214158Y0354271D02*
X0214158Y0354271D01*
X0214158Y0352811D02*
X0214158Y0352811D01*
X0214158Y0352672D02*
X0214158Y0352672D01*
X0214158Y0351074D02*
X0214158Y0351074D01*
X0214158Y0349475D02*
X0214158Y0349475D01*
X0211433Y0349475D02*
X0193077Y0349475D01*
X0192937Y0349335D02*
X0194090Y0350489D01*
X0194715Y0351995D01*
X0194715Y0353627D01*
X0194090Y0355133D01*
X0192937Y0356287D01*
X0191430Y0356911D01*
X0189799Y0356911D01*
X0188292Y0356287D01*
X0187139Y0355133D01*
X0186515Y0353627D01*
X0186515Y0351995D01*
X0187139Y0350489D01*
X0188292Y0349335D01*
X0189799Y0348711D01*
X0191430Y0348711D01*
X0192937Y0349335D01*
X0194333Y0351074D02*
X0210217Y0351074D01*
X0209858Y0352672D02*
X0194715Y0352672D01*
X0194448Y0354271D02*
X0210111Y0354271D01*
X0211135Y0355870D02*
X0193354Y0355870D01*
X0193158Y0346278D02*
X0211827Y0346278D01*
X0210494Y0344680D02*
X0194488Y0344680D01*
X0188152Y0349475D02*
X0183339Y0349475D01*
X0183416Y0349531D02*
X0183895Y0350010D01*
X0184292Y0350557D01*
X0184600Y0351160D01*
X0184809Y0351804D01*
X0184915Y0352473D01*
X0184915Y0352811D01*
X0184915Y0353149D01*
X0184809Y0353818D01*
X0184600Y0354462D01*
X0184292Y0355065D01*
X0183895Y0355612D01*
X0183416Y0356091D01*
X0182868Y0356489D01*
X0182265Y0356796D01*
X0181622Y0357005D01*
X0180953Y0357111D01*
X0180615Y0357111D01*
X0180615Y0352811D01*
X0180615Y0352811D01*
X0184915Y0352811D01*
X0180615Y0352811D01*
X0180615Y0348511D01*
X0180953Y0348511D01*
X0181622Y0348617D01*
X0182265Y0348826D01*
X0182868Y0349133D01*
X0183416Y0349531D01*
X0184556Y0351074D02*
X0186896Y0351074D01*
X0186515Y0352672D02*
X0184915Y0352672D01*
X0184662Y0354271D02*
X0186782Y0354271D01*
X0187875Y0355870D02*
X0183637Y0355870D01*
X0180615Y0355870D02*
X0180615Y0355870D01*
X0180615Y0357111D02*
X0180615Y0352811D01*
X0180615Y0352811D01*
X0180615Y0352811D01*
X0180615Y0348511D01*
X0180276Y0348511D01*
X0179608Y0348617D01*
X0178964Y0348826D01*
X0178361Y0349133D01*
X0177813Y0349531D01*
X0177335Y0350010D01*
X0176937Y0350557D01*
X0176630Y0351160D01*
X0176421Y0351804D01*
X0176315Y0352473D01*
X0176315Y0352811D01*
X0180615Y0352811D01*
X0180615Y0352811D01*
X0176315Y0352811D01*
X0176315Y0353149D01*
X0176421Y0353818D01*
X0176630Y0354462D01*
X0176937Y0355065D01*
X0177335Y0355612D01*
X0177813Y0356091D01*
X0178361Y0356489D01*
X0178964Y0356796D01*
X0179608Y0357005D01*
X0180276Y0357111D01*
X0180615Y0357111D01*
X0180615Y0354271D02*
X0180615Y0354271D01*
X0180615Y0352672D02*
X0180615Y0352672D01*
X0180615Y0351074D02*
X0180615Y0351074D01*
X0180615Y0349475D02*
X0180615Y0349475D01*
X0177890Y0349475D02*
X0159888Y0349475D01*
X0159748Y0349335D02*
X0160902Y0350489D01*
X0161526Y0351995D01*
X0161526Y0353627D01*
X0160902Y0355133D01*
X0159748Y0356287D01*
X0158241Y0356911D01*
X0156610Y0356911D01*
X0155103Y0356287D01*
X0153950Y0355133D01*
X0153326Y0353627D01*
X0153326Y0351995D01*
X0153950Y0350489D01*
X0155103Y0349335D01*
X0156610Y0348711D01*
X0158241Y0348711D01*
X0159748Y0349335D01*
X0161144Y0351074D02*
X0176674Y0351074D01*
X0176315Y0352672D02*
X0161526Y0352672D01*
X0161259Y0354271D02*
X0176568Y0354271D01*
X0177592Y0355870D02*
X0160165Y0355870D01*
X0154963Y0349475D02*
X0150150Y0349475D01*
X0150227Y0349531D02*
X0149679Y0349133D01*
X0149076Y0348826D01*
X0148433Y0348617D01*
X0147764Y0348511D01*
X0147426Y0348511D01*
X0147426Y0352811D01*
X0147426Y0352811D01*
X0151726Y0352811D01*
X0151726Y0353149D01*
X0151620Y0353818D01*
X0151411Y0354462D01*
X0151103Y0355065D01*
X0150706Y0355612D01*
X0150227Y0356091D01*
X0149679Y0356489D01*
X0149076Y0356796D01*
X0148433Y0357005D01*
X0147764Y0357111D01*
X0147426Y0357111D01*
X0147426Y0352811D01*
X0151726Y0352811D01*
X0151726Y0352473D01*
X0151620Y0351804D01*
X0151411Y0351160D01*
X0151103Y0350557D01*
X0150706Y0350010D01*
X0150227Y0349531D01*
X0151367Y0351074D02*
X0153707Y0351074D01*
X0153326Y0352672D02*
X0151726Y0352672D01*
X0151473Y0354271D02*
X0153593Y0354271D01*
X0154686Y0355870D02*
X0150448Y0355870D01*
X0147426Y0355870D02*
X0147426Y0355870D01*
X0147426Y0357111D02*
X0147426Y0352811D01*
X0147426Y0352811D01*
X0147426Y0352811D01*
X0147426Y0348511D01*
X0147087Y0348511D01*
X0146419Y0348617D01*
X0145775Y0348826D01*
X0145172Y0349133D01*
X0144624Y0349531D01*
X0144146Y0350010D01*
X0143748Y0350557D01*
X0143441Y0351160D01*
X0143232Y0351804D01*
X0143126Y0352473D01*
X0143126Y0352811D01*
X0147426Y0352811D01*
X0147426Y0352811D01*
X0143126Y0352811D01*
X0143126Y0353149D01*
X0143232Y0353818D01*
X0143441Y0354462D01*
X0143748Y0355065D01*
X0144146Y0355612D01*
X0144624Y0356091D01*
X0145172Y0356489D01*
X0145775Y0356796D01*
X0146419Y0357005D01*
X0147087Y0357111D01*
X0147426Y0357111D01*
X0147426Y0354271D02*
X0147426Y0354271D01*
X0147426Y0352672D02*
X0147426Y0352672D01*
X0147426Y0351074D02*
X0147426Y0351074D01*
X0147426Y0349475D02*
X0147426Y0349475D01*
X0144701Y0349475D02*
X0126699Y0349475D01*
X0126559Y0349335D02*
X0127713Y0350489D01*
X0128337Y0351995D01*
X0128337Y0353627D01*
X0127713Y0355133D01*
X0126559Y0356287D01*
X0125052Y0356911D01*
X0123421Y0356911D01*
X0121914Y0356287D01*
X0120761Y0355133D01*
X0120137Y0353627D01*
X0120137Y0351995D01*
X0120761Y0350489D01*
X0121914Y0349335D01*
X0123421Y0348711D01*
X0125052Y0348711D01*
X0126559Y0349335D01*
X0127955Y0351074D02*
X0143485Y0351074D01*
X0143126Y0352672D02*
X0128337Y0352672D01*
X0128070Y0354271D02*
X0143379Y0354271D01*
X0144403Y0355870D02*
X0126977Y0355870D01*
X0121774Y0349475D02*
X0116961Y0349475D01*
X0118178Y0351074D02*
X0120518Y0351074D01*
X0120137Y0352672D02*
X0118537Y0352672D01*
X0118284Y0354271D02*
X0120404Y0354271D01*
X0121497Y0355870D02*
X0117259Y0355870D01*
X0149757Y0346278D02*
X0154883Y0346278D01*
X0154624Y0346091D02*
X0154146Y0345612D01*
X0153748Y0345065D01*
X0153441Y0344462D01*
X0153232Y0343818D01*
X0153126Y0343149D01*
X0153126Y0342811D01*
X0153126Y0342473D01*
X0153232Y0341804D01*
X0153441Y0341160D01*
X0153748Y0340557D01*
X0154146Y0340010D01*
X0154624Y0339531D01*
X0155172Y0339133D01*
X0155775Y0338826D01*
X0156419Y0338617D01*
X0157087Y0338511D01*
X0157426Y0338511D01*
X0157764Y0338511D01*
X0158433Y0338617D01*
X0159076Y0338826D01*
X0159679Y0339133D01*
X0160227Y0339531D01*
X0160706Y0340010D01*
X0161103Y0340557D01*
X0161411Y0341160D01*
X0161620Y0341804D01*
X0161726Y0342473D01*
X0161726Y0342811D01*
X0161726Y0343149D01*
X0161620Y0343818D01*
X0161411Y0344462D01*
X0161103Y0345065D01*
X0160706Y0345612D01*
X0160227Y0346091D01*
X0159679Y0346489D01*
X0159076Y0346796D01*
X0158433Y0347005D01*
X0157764Y0347111D01*
X0157426Y0347111D01*
X0157426Y0342811D01*
X0157426Y0342811D01*
X0161726Y0342811D01*
X0157426Y0342811D01*
X0157426Y0338511D01*
X0157426Y0342811D01*
X0157426Y0342811D01*
X0157426Y0342811D01*
X0157426Y0347111D01*
X0157087Y0347111D01*
X0156419Y0347005D01*
X0155775Y0346796D01*
X0155172Y0346489D01*
X0154624Y0346091D01*
X0153552Y0344680D02*
X0151089Y0344680D01*
X0151526Y0343081D02*
X0153126Y0343081D01*
X0153126Y0342811D02*
X0157426Y0342811D01*
X0153126Y0342811D01*
X0153336Y0341483D02*
X0151313Y0341483D01*
X0150297Y0339884D02*
X0154271Y0339884D01*
X0157426Y0339884D02*
X0157426Y0339884D01*
X0157426Y0341483D02*
X0157426Y0341483D01*
X0157426Y0342811D02*
X0157426Y0342811D01*
X0157426Y0343081D02*
X0157426Y0343081D01*
X0157426Y0344680D02*
X0157426Y0344680D01*
X0157426Y0346278D02*
X0157426Y0346278D01*
X0159969Y0346278D02*
X0178284Y0346278D01*
X0176951Y0344680D02*
X0161299Y0344680D01*
X0161726Y0343081D02*
X0176515Y0343081D01*
X0175892Y0341483D02*
X0161515Y0341483D01*
X0160580Y0339884D02*
X0174294Y0339884D01*
X0224158Y0339884D02*
X0224158Y0339884D01*
X0224158Y0341483D02*
X0224158Y0341483D01*
X0224158Y0343081D02*
X0224158Y0343081D01*
X0224158Y0344680D02*
X0224158Y0344680D01*
X0224158Y0346278D02*
X0224158Y0346278D01*
X0226701Y0346278D02*
X0232547Y0346278D01*
X0232547Y0344680D02*
X0228032Y0344680D01*
X0228458Y0343081D02*
X0232547Y0343081D01*
X0232547Y0341483D02*
X0228248Y0341483D01*
X0227312Y0339884D02*
X0232547Y0339884D01*
X0232547Y0365461D02*
X0228430Y0365461D01*
X0231060Y0367059D02*
X0232547Y0367059D01*
X0006799Y0224792D02*
X0005926Y0224792D01*
M02*
