G75*
%MOIN*%
%OFA0B0*%
%FSLAX25Y25*%
%IPPOS*%
%LPD*%
%AMOC8*
5,1,8,0,0,1.08239X$1,22.5*
%
%ADD10C,0.08400*%
%ADD11C,0.06000*%
%ADD12C,0.06800*%
%ADD13C,0.27800*%
%ADD14C,0.05200*%
%ADD15R,0.06700X0.06700*%
%ADD16C,0.06700*%
%ADD17OC8,0.08674*%
%ADD18C,0.05800*%
%ADD19C,0.04762*%
D10*
X0036893Y0052299D02*
X0044493Y0052299D01*
X0066893Y0052299D02*
X0074493Y0052299D01*
D11*
X0126953Y0061156D02*
X0126953Y0066356D01*
X0136953Y0066356D02*
X0136953Y0061156D01*
X0146953Y0061156D02*
X0146953Y0066356D01*
X0156953Y0066356D02*
X0156953Y0061156D01*
X0166953Y0061156D02*
X0166953Y0066356D01*
X0176953Y0066356D02*
X0176953Y0061156D01*
X0186953Y0061156D02*
X0186953Y0066356D01*
X0196953Y0066356D02*
X0196953Y0061156D01*
X0196953Y0036356D02*
X0196953Y0031156D01*
X0186953Y0031156D02*
X0186953Y0036356D01*
X0176953Y0036356D02*
X0176953Y0031156D01*
X0166953Y0031156D02*
X0166953Y0036356D01*
X0156953Y0036356D02*
X0156953Y0031156D01*
X0146953Y0031156D02*
X0146953Y0036356D01*
X0136953Y0036356D02*
X0136953Y0031156D01*
X0126953Y0031156D02*
X0126953Y0036356D01*
X0127821Y0233402D02*
X0122621Y0233402D01*
X0122621Y0243402D02*
X0127821Y0243402D01*
X0127821Y0253402D02*
X0122621Y0253402D01*
X0122621Y0263402D02*
X0127821Y0263402D01*
X0127821Y0273402D02*
X0122621Y0273402D01*
X0122621Y0283402D02*
X0127821Y0283402D01*
X0127821Y0293402D02*
X0122621Y0293402D01*
X0097821Y0293402D02*
X0092621Y0293402D01*
X0092621Y0283402D02*
X0097821Y0283402D01*
X0097821Y0273402D02*
X0092621Y0273402D01*
X0092621Y0263402D02*
X0097821Y0263402D01*
X0097821Y0253402D02*
X0092621Y0253402D01*
X0092621Y0243402D02*
X0097821Y0243402D01*
X0097821Y0233402D02*
X0092621Y0233402D01*
D12*
X0096127Y0207307D02*
X0096127Y0201307D01*
X0106127Y0201307D02*
X0106127Y0207307D01*
X0116127Y0207307D02*
X0116127Y0201307D01*
X0126127Y0201307D02*
X0126127Y0207307D01*
X0136127Y0207307D02*
X0136127Y0201307D01*
X0146127Y0201307D02*
X0146127Y0207307D01*
X0156127Y0207307D02*
X0156127Y0201307D01*
X0166127Y0201307D02*
X0166127Y0207307D01*
X0176127Y0207307D02*
X0176127Y0201307D01*
X0186127Y0201307D02*
X0186127Y0207307D01*
X0196127Y0207307D02*
X0196127Y0201307D01*
X0206127Y0201307D02*
X0206127Y0207307D01*
X0216127Y0207307D02*
X0216127Y0201307D01*
X0221945Y0230685D02*
X0227945Y0230685D01*
X0227945Y0240685D02*
X0221945Y0240685D01*
X0221945Y0250685D02*
X0227945Y0250685D01*
X0227945Y0260685D02*
X0221945Y0260685D01*
X0221945Y0270685D02*
X0227945Y0270685D01*
X0227945Y0280685D02*
X0221945Y0280685D01*
X0215733Y0119512D02*
X0215733Y0113512D01*
X0205733Y0113512D02*
X0205733Y0119512D01*
X0195733Y0119512D02*
X0195733Y0113512D01*
X0196248Y0097065D02*
X0190248Y0097065D01*
X0185733Y0113512D02*
X0185733Y0119512D01*
X0175733Y0119512D02*
X0175733Y0113512D01*
X0165733Y0113512D02*
X0165733Y0119512D01*
X0155733Y0119512D02*
X0155733Y0113512D01*
X0145733Y0113512D02*
X0145733Y0119512D01*
X0135733Y0119512D02*
X0135733Y0113512D01*
X0125733Y0113512D02*
X0125733Y0119512D01*
X0115733Y0119512D02*
X0115733Y0113512D01*
X0105733Y0113512D02*
X0105733Y0119512D01*
X0095733Y0119512D02*
X0095733Y0113512D01*
X0085733Y0113512D02*
X0085733Y0119512D01*
X0075733Y0119512D02*
X0075733Y0113512D01*
X0065733Y0113512D02*
X0065733Y0119512D01*
X0055733Y0119512D02*
X0055733Y0113512D01*
X0045733Y0113512D02*
X0045733Y0119512D01*
X0035733Y0119512D02*
X0035733Y0113512D01*
X0025733Y0113512D02*
X0025733Y0119512D01*
X0022709Y0076787D02*
X0016709Y0076787D01*
X0016709Y0066787D02*
X0022709Y0066787D01*
X0022709Y0056787D02*
X0016709Y0056787D01*
X0026127Y0201307D02*
X0026127Y0207307D01*
X0016449Y0207929D02*
X0010449Y0207929D01*
X0010449Y0217929D02*
X0016449Y0217929D01*
X0016449Y0227929D02*
X0010449Y0227929D01*
X0010449Y0237929D02*
X0016449Y0237929D01*
X0016449Y0247929D02*
X0010449Y0247929D01*
X0010449Y0257929D02*
X0016449Y0257929D01*
X0036127Y0207307D02*
X0036127Y0201307D01*
X0046127Y0201307D02*
X0046127Y0207307D01*
X0056127Y0207307D02*
X0056127Y0201307D01*
X0066127Y0201307D02*
X0066127Y0207307D01*
X0076127Y0207307D02*
X0076127Y0201307D01*
X0086127Y0201307D02*
X0086127Y0207307D01*
X0190248Y0079265D02*
X0196248Y0079265D01*
X0215848Y0079265D02*
X0221848Y0079265D01*
X0221848Y0097065D02*
X0215848Y0097065D01*
X0186953Y0018409D02*
X0186953Y0012409D01*
X0176953Y0012409D02*
X0176953Y0018409D01*
X0166953Y0018409D02*
X0166953Y0012409D01*
X0156953Y0012409D02*
X0156953Y0018409D01*
X0146953Y0018409D02*
X0146953Y0012409D01*
X0136953Y0012409D02*
X0136953Y0018409D01*
D13*
X0016875Y0016748D03*
X0221599Y0016748D03*
X0221599Y0378953D03*
X0016875Y0378953D03*
D14*
X0083922Y0097846D02*
X0083922Y0093446D01*
X0103922Y0093446D02*
X0103922Y0097846D01*
D15*
X0215890Y0131276D03*
D16*
X0205890Y0131276D03*
X0195890Y0131276D03*
X0185890Y0131276D03*
X0175890Y0131276D03*
X0165890Y0131276D03*
X0155890Y0131276D03*
X0145890Y0131276D03*
X0135890Y0131276D03*
X0125890Y0131276D03*
X0115890Y0131276D03*
X0105890Y0131276D03*
X0095890Y0131276D03*
X0085890Y0131276D03*
X0075890Y0131276D03*
X0065890Y0131276D03*
X0055890Y0131276D03*
X0045890Y0131276D03*
X0035890Y0131276D03*
X0025890Y0131276D03*
X0025890Y0191276D03*
X0035890Y0191276D03*
X0045890Y0191276D03*
X0055890Y0191276D03*
X0065890Y0191276D03*
X0075890Y0191276D03*
X0085890Y0191276D03*
X0095890Y0191276D03*
X0105890Y0191276D03*
X0115890Y0191276D03*
X0125890Y0191276D03*
X0135890Y0191276D03*
X0145890Y0191276D03*
X0155890Y0191276D03*
X0165890Y0191276D03*
X0175890Y0191276D03*
X0185890Y0191276D03*
X0195890Y0191276D03*
X0205890Y0191276D03*
X0215890Y0191276D03*
D17*
X0112386Y0020646D03*
X0092701Y0020646D03*
X0070851Y0020606D03*
X0051166Y0020606D03*
X0020457Y0275764D03*
X0020457Y0295449D03*
D18*
X0047544Y0342811D03*
X0047544Y0352811D03*
X0057544Y0352811D03*
X0057544Y0342811D03*
X0081127Y0342811D03*
X0081127Y0352811D03*
X0091127Y0352811D03*
X0091127Y0342811D03*
X0114237Y0342811D03*
X0114237Y0352811D03*
X0124237Y0352811D03*
X0124237Y0342811D03*
X0147426Y0342811D03*
X0147426Y0352811D03*
X0157426Y0352811D03*
X0157426Y0342811D03*
X0180615Y0342811D03*
X0180615Y0352811D03*
X0190615Y0352811D03*
X0190615Y0342811D03*
X0214158Y0342811D03*
X0214158Y0352811D03*
X0224158Y0352811D03*
X0224158Y0342811D03*
D19*
X0192386Y0254346D03*
X0186166Y0253244D03*
X0195221Y0232575D03*
X0180339Y0222220D03*
X0161638Y0222220D03*
X0161835Y0214780D03*
X0150930Y0214425D03*
X0147819Y0222063D03*
X0134906Y0229110D03*
X0106087Y0225291D03*
X0101520Y0221118D03*
X0128174Y0181630D03*
X0124001Y0163638D03*
X0128371Y0147890D03*
X0144552Y0173992D03*
X0176166Y0096039D03*
X0183371Y0087496D03*
X0161756Y0081157D03*
X0149079Y0054150D03*
X0119512Y0083520D03*
X0111678Y0067929D03*
X0108056Y0073362D03*
X0115300Y0055567D03*
X0117662Y0046709D03*
X0107859Y0043598D03*
X0046560Y0063795D03*
X0029079Y0086591D03*
X0044749Y0101118D03*
X0011284Y0102181D03*
X0022741Y0042890D03*
X0036638Y0030370D03*
X0065221Y0166000D03*
X0042465Y0280803D03*
X0156008Y0273165D03*
X0215930Y0220213D03*
X0225378Y0198638D03*
X0217347Y0042890D03*
M02*
