G75*
%MOIN*%
%OFA0B0*%
%FSLAX25Y25*%
%IPPOS*%
%LPD*%
%AMOC8*
5,1,8,0,0,1.08239X$1,22.5*
%
%ADD10C,0.00000*%
%ADD11C,0.00600*%
%ADD12C,0.00400*%
%ADD13C,0.00300*%
%ADD14C,0.00500*%
%ADD15C,0.00200*%
D10*
X0001127Y0001000D02*
X0001127Y0394701D01*
X0237347Y0394701D01*
X0237347Y0001000D01*
X0001127Y0001000D01*
X0225690Y0160076D02*
X0225621Y0160078D01*
X0225553Y0160084D01*
X0225485Y0160094D01*
X0225418Y0160107D01*
X0225352Y0160125D01*
X0225287Y0160146D01*
X0225223Y0160171D01*
X0225161Y0160199D01*
X0225100Y0160231D01*
X0225041Y0160266D01*
X0224985Y0160305D01*
X0224930Y0160347D01*
X0224879Y0160392D01*
X0224829Y0160440D01*
X0224783Y0160490D01*
X0224740Y0160543D01*
X0224699Y0160599D01*
X0224662Y0160656D01*
X0224629Y0160716D01*
X0224598Y0160778D01*
X0224572Y0160841D01*
X0224549Y0160905D01*
X0224529Y0160971D01*
X0224514Y0161038D01*
X0224502Y0161105D01*
X0224494Y0161173D01*
X0224490Y0161242D01*
X0224490Y0161310D01*
X0224494Y0161379D01*
X0224502Y0161447D01*
X0224514Y0161514D01*
X0224529Y0161581D01*
X0224549Y0161647D01*
X0224572Y0161711D01*
X0224598Y0161774D01*
X0224629Y0161836D01*
X0224662Y0161896D01*
X0224699Y0161953D01*
X0224740Y0162009D01*
X0224783Y0162062D01*
X0224829Y0162112D01*
X0224879Y0162160D01*
X0224930Y0162205D01*
X0224985Y0162247D01*
X0225041Y0162286D01*
X0225100Y0162321D01*
X0225161Y0162353D01*
X0225223Y0162381D01*
X0225287Y0162406D01*
X0225352Y0162427D01*
X0225418Y0162445D01*
X0225485Y0162458D01*
X0225553Y0162468D01*
X0225621Y0162474D01*
X0225690Y0162476D01*
D11*
X0225690Y0160076D01*
X0225690Y0132276D01*
X0220190Y0132276D01*
X0211590Y0132276D02*
X0209990Y0132276D01*
X0201790Y0132276D02*
X0199990Y0132276D01*
X0191790Y0132276D02*
X0189990Y0132276D01*
X0181790Y0132276D02*
X0179990Y0132276D01*
X0171790Y0132276D02*
X0169990Y0132276D01*
X0161790Y0132276D02*
X0159990Y0132276D01*
X0151790Y0132276D02*
X0149990Y0132276D01*
X0141790Y0132276D02*
X0139990Y0132276D01*
X0131790Y0132276D02*
X0129990Y0132276D01*
X0121790Y0132276D02*
X0119990Y0132276D01*
X0111790Y0132276D02*
X0109990Y0132276D01*
X0101790Y0132276D02*
X0099990Y0132276D01*
X0091790Y0132276D02*
X0089990Y0132276D01*
X0081790Y0132276D02*
X0079990Y0132276D01*
X0071790Y0132276D02*
X0069990Y0132276D01*
X0061790Y0132276D02*
X0059990Y0132276D01*
X0051790Y0132276D02*
X0049990Y0132276D01*
X0041790Y0132276D02*
X0039990Y0132276D01*
X0031790Y0132276D02*
X0029990Y0132276D01*
X0021790Y0132276D02*
X0016090Y0132276D01*
X0016090Y0190276D01*
X0021790Y0190276D01*
X0029990Y0190276D02*
X0031790Y0190276D01*
X0039990Y0190276D02*
X0041790Y0190276D01*
X0049990Y0190276D02*
X0051790Y0190276D01*
X0059990Y0190276D02*
X0061790Y0190276D01*
X0069990Y0190276D02*
X0071790Y0190276D01*
X0079990Y0190276D02*
X0081790Y0190276D01*
X0089990Y0190276D02*
X0091790Y0190276D01*
X0099990Y0190276D02*
X0101790Y0190276D01*
X0109990Y0190276D02*
X0111790Y0190276D01*
X0119990Y0190276D02*
X0121790Y0190276D01*
X0129990Y0190276D02*
X0131790Y0190276D01*
X0139990Y0190276D02*
X0141790Y0190276D01*
X0149990Y0190276D02*
X0151790Y0190276D01*
X0159990Y0190276D02*
X0161790Y0190276D01*
X0169990Y0190276D02*
X0171790Y0190276D01*
X0179990Y0190276D02*
X0181790Y0190276D01*
X0189990Y0190276D02*
X0191790Y0190276D01*
X0199990Y0190276D02*
X0201790Y0190276D01*
X0209990Y0190276D02*
X0211790Y0190276D01*
X0219990Y0190276D02*
X0225690Y0190276D01*
X0225690Y0162476D01*
X0201953Y0060256D02*
X0201953Y0052756D01*
X0201827Y0052754D01*
X0201702Y0052748D01*
X0201577Y0052738D01*
X0201452Y0052724D01*
X0201327Y0052707D01*
X0201203Y0052685D01*
X0201080Y0052660D01*
X0200958Y0052630D01*
X0200837Y0052597D01*
X0200717Y0052560D01*
X0200598Y0052520D01*
X0200481Y0052475D01*
X0200364Y0052427D01*
X0200250Y0052375D01*
X0200137Y0052320D01*
X0200026Y0052261D01*
X0199917Y0052199D01*
X0199810Y0052133D01*
X0199705Y0052064D01*
X0199602Y0051992D01*
X0199501Y0051917D01*
X0199403Y0051838D01*
X0199308Y0051756D01*
X0199215Y0051672D01*
X0199125Y0051584D01*
X0199037Y0051494D01*
X0198953Y0051401D01*
X0198871Y0051306D01*
X0198792Y0051208D01*
X0198717Y0051107D01*
X0198645Y0051004D01*
X0198576Y0050899D01*
X0198510Y0050792D01*
X0198448Y0050683D01*
X0198389Y0050572D01*
X0198334Y0050459D01*
X0198282Y0050345D01*
X0198234Y0050228D01*
X0198189Y0050111D01*
X0198149Y0049992D01*
X0198112Y0049872D01*
X0198079Y0049751D01*
X0198049Y0049629D01*
X0198024Y0049506D01*
X0198002Y0049382D01*
X0197985Y0049257D01*
X0197971Y0049132D01*
X0197961Y0049007D01*
X0197955Y0048882D01*
X0197953Y0048756D01*
X0197955Y0048630D01*
X0197961Y0048505D01*
X0197971Y0048380D01*
X0197985Y0048255D01*
X0198002Y0048130D01*
X0198024Y0048006D01*
X0198049Y0047883D01*
X0198079Y0047761D01*
X0198112Y0047640D01*
X0198149Y0047520D01*
X0198189Y0047401D01*
X0198234Y0047284D01*
X0198282Y0047167D01*
X0198334Y0047053D01*
X0198389Y0046940D01*
X0198448Y0046829D01*
X0198510Y0046720D01*
X0198576Y0046613D01*
X0198645Y0046508D01*
X0198717Y0046405D01*
X0198792Y0046304D01*
X0198871Y0046206D01*
X0198953Y0046111D01*
X0199037Y0046018D01*
X0199125Y0045928D01*
X0199215Y0045840D01*
X0199308Y0045756D01*
X0199403Y0045674D01*
X0199501Y0045595D01*
X0199602Y0045520D01*
X0199705Y0045448D01*
X0199810Y0045379D01*
X0199917Y0045313D01*
X0200026Y0045251D01*
X0200137Y0045192D01*
X0200250Y0045137D01*
X0200364Y0045085D01*
X0200481Y0045037D01*
X0200598Y0044992D01*
X0200717Y0044952D01*
X0200837Y0044915D01*
X0200958Y0044882D01*
X0201080Y0044852D01*
X0201203Y0044827D01*
X0201327Y0044805D01*
X0201452Y0044788D01*
X0201577Y0044774D01*
X0201702Y0044764D01*
X0201827Y0044758D01*
X0201953Y0044756D01*
X0201953Y0037256D01*
X0121953Y0037256D01*
X0121953Y0060256D01*
X0201953Y0060256D01*
X0121721Y0228402D02*
X0098721Y0228402D01*
X0098721Y0298402D01*
X0106221Y0298402D01*
X0106223Y0298276D01*
X0106229Y0298151D01*
X0106239Y0298026D01*
X0106253Y0297901D01*
X0106270Y0297776D01*
X0106292Y0297652D01*
X0106317Y0297529D01*
X0106347Y0297407D01*
X0106380Y0297286D01*
X0106417Y0297166D01*
X0106457Y0297047D01*
X0106502Y0296930D01*
X0106550Y0296813D01*
X0106602Y0296699D01*
X0106657Y0296586D01*
X0106716Y0296475D01*
X0106778Y0296366D01*
X0106844Y0296259D01*
X0106913Y0296154D01*
X0106985Y0296051D01*
X0107060Y0295950D01*
X0107139Y0295852D01*
X0107221Y0295757D01*
X0107305Y0295664D01*
X0107393Y0295574D01*
X0107483Y0295486D01*
X0107576Y0295402D01*
X0107671Y0295320D01*
X0107769Y0295241D01*
X0107870Y0295166D01*
X0107973Y0295094D01*
X0108078Y0295025D01*
X0108185Y0294959D01*
X0108294Y0294897D01*
X0108405Y0294838D01*
X0108518Y0294783D01*
X0108632Y0294731D01*
X0108749Y0294683D01*
X0108866Y0294638D01*
X0108985Y0294598D01*
X0109105Y0294561D01*
X0109226Y0294528D01*
X0109348Y0294498D01*
X0109471Y0294473D01*
X0109595Y0294451D01*
X0109720Y0294434D01*
X0109845Y0294420D01*
X0109970Y0294410D01*
X0110095Y0294404D01*
X0110221Y0294402D01*
X0110347Y0294404D01*
X0110472Y0294410D01*
X0110597Y0294420D01*
X0110722Y0294434D01*
X0110847Y0294451D01*
X0110971Y0294473D01*
X0111094Y0294498D01*
X0111216Y0294528D01*
X0111337Y0294561D01*
X0111457Y0294598D01*
X0111576Y0294638D01*
X0111693Y0294683D01*
X0111810Y0294731D01*
X0111924Y0294783D01*
X0112037Y0294838D01*
X0112148Y0294897D01*
X0112257Y0294959D01*
X0112364Y0295025D01*
X0112469Y0295094D01*
X0112572Y0295166D01*
X0112673Y0295241D01*
X0112771Y0295320D01*
X0112866Y0295402D01*
X0112959Y0295486D01*
X0113049Y0295574D01*
X0113137Y0295664D01*
X0113221Y0295757D01*
X0113303Y0295852D01*
X0113382Y0295950D01*
X0113457Y0296051D01*
X0113529Y0296154D01*
X0113598Y0296259D01*
X0113664Y0296366D01*
X0113726Y0296475D01*
X0113785Y0296586D01*
X0113840Y0296699D01*
X0113892Y0296813D01*
X0113940Y0296930D01*
X0113985Y0297047D01*
X0114025Y0297166D01*
X0114062Y0297286D01*
X0114095Y0297407D01*
X0114125Y0297529D01*
X0114150Y0297652D01*
X0114172Y0297776D01*
X0114189Y0297901D01*
X0114203Y0298026D01*
X0114213Y0298151D01*
X0114219Y0298276D01*
X0114221Y0298402D01*
X0121721Y0298402D01*
X0121721Y0228402D01*
X0133174Y0332374D02*
X0133174Y0363496D01*
X0138489Y0363248D02*
X0138489Y0332374D01*
X0166363Y0332374D02*
X0166363Y0363496D01*
X0171678Y0363248D02*
X0171678Y0332374D01*
X0199552Y0332374D02*
X0199552Y0363496D01*
X0205221Y0363248D02*
X0205221Y0332374D01*
X0233095Y0332374D02*
X0233095Y0363496D01*
X0105300Y0363248D02*
X0105300Y0332374D01*
X0100064Y0332374D02*
X0100064Y0363496D01*
X0072189Y0363248D02*
X0072189Y0332374D01*
X0066481Y0332374D02*
X0066481Y0363496D01*
X0038607Y0363248D02*
X0038607Y0332374D01*
D12*
X0053824Y0363448D02*
X0053234Y0364038D01*
X0053234Y0366398D01*
X0053824Y0366988D01*
X0055004Y0366988D01*
X0055594Y0366398D01*
X0055594Y0365808D01*
X0055004Y0365218D01*
X0053234Y0365218D01*
X0053824Y0363448D02*
X0055004Y0363448D01*
X0055594Y0364038D01*
X0056859Y0364038D02*
X0056859Y0364628D01*
X0057449Y0365218D01*
X0058629Y0365218D01*
X0059219Y0365808D01*
X0059219Y0366398D01*
X0058629Y0366988D01*
X0057449Y0366988D01*
X0056859Y0366398D01*
X0058039Y0367578D02*
X0058039Y0362858D01*
X0058629Y0363448D02*
X0057449Y0363448D01*
X0056859Y0364038D01*
X0058629Y0363448D02*
X0059219Y0364038D01*
X0060484Y0364038D02*
X0060484Y0366988D01*
X0062844Y0366988D02*
X0062844Y0364038D01*
X0062254Y0363448D01*
X0061074Y0363448D01*
X0060484Y0364038D01*
X0086816Y0364038D02*
X0087406Y0363448D01*
X0088586Y0363448D01*
X0089176Y0364038D01*
X0089176Y0364628D01*
X0088586Y0365218D01*
X0087406Y0365218D01*
X0086816Y0364628D01*
X0086816Y0364038D01*
X0087406Y0365218D02*
X0086816Y0365808D01*
X0086816Y0366398D01*
X0087406Y0366988D01*
X0088586Y0366988D01*
X0089176Y0366398D01*
X0089176Y0365808D01*
X0088586Y0365218D01*
X0090441Y0364628D02*
X0091031Y0365218D01*
X0092211Y0365218D01*
X0092801Y0365808D01*
X0092801Y0366398D01*
X0092211Y0366988D01*
X0091031Y0366988D01*
X0090441Y0366398D01*
X0091621Y0367578D02*
X0091621Y0362858D01*
X0091031Y0363448D02*
X0090441Y0364038D01*
X0090441Y0364628D01*
X0091031Y0363448D02*
X0092211Y0363448D01*
X0092801Y0364038D01*
X0094066Y0364038D02*
X0094066Y0366988D01*
X0096427Y0366988D02*
X0096427Y0364038D01*
X0095837Y0363448D01*
X0094656Y0363448D01*
X0094066Y0364038D01*
X0119926Y0364038D02*
X0120516Y0363448D01*
X0121696Y0363448D01*
X0122286Y0364038D01*
X0122286Y0365218D02*
X0121106Y0365808D01*
X0120516Y0365808D01*
X0119926Y0365218D01*
X0119926Y0364038D01*
X0122286Y0365218D02*
X0122286Y0366988D01*
X0119926Y0366988D01*
X0123552Y0366398D02*
X0124142Y0366988D01*
X0125322Y0366988D01*
X0125912Y0366398D01*
X0125912Y0365808D01*
X0125322Y0365218D01*
X0124142Y0365218D01*
X0123552Y0364628D01*
X0123552Y0364038D01*
X0124142Y0363448D01*
X0125322Y0363448D01*
X0125912Y0364038D01*
X0127177Y0364038D02*
X0127177Y0366988D01*
X0129537Y0366988D02*
X0129537Y0364038D01*
X0128947Y0363448D01*
X0127767Y0363448D01*
X0127177Y0364038D01*
X0124732Y0362858D02*
X0124732Y0367578D01*
X0153115Y0366988D02*
X0154295Y0366398D01*
X0155475Y0365218D01*
X0153705Y0365218D01*
X0153115Y0364628D01*
X0153115Y0364038D01*
X0153705Y0363448D01*
X0154885Y0363448D01*
X0155475Y0364038D01*
X0155475Y0365218D01*
X0156741Y0364628D02*
X0157331Y0365218D01*
X0158511Y0365218D01*
X0159101Y0365808D01*
X0159101Y0366398D01*
X0158511Y0366988D01*
X0157331Y0366988D01*
X0156741Y0366398D01*
X0157921Y0367578D02*
X0157921Y0362858D01*
X0158511Y0363448D02*
X0157331Y0363448D01*
X0156741Y0364038D01*
X0156741Y0364628D01*
X0158511Y0363448D02*
X0159101Y0364038D01*
X0160366Y0364038D02*
X0160366Y0366988D01*
X0162726Y0366988D02*
X0162726Y0364038D01*
X0162136Y0363448D01*
X0160956Y0363448D01*
X0160366Y0364038D01*
X0186304Y0366398D02*
X0188664Y0364038D01*
X0188664Y0363448D01*
X0189930Y0364038D02*
X0189930Y0364628D01*
X0190520Y0365218D01*
X0191700Y0365218D01*
X0192290Y0365808D01*
X0192290Y0366398D01*
X0191700Y0366988D01*
X0190520Y0366988D01*
X0189930Y0366398D01*
X0188664Y0366988D02*
X0186304Y0366988D01*
X0186304Y0366398D01*
X0189930Y0364038D02*
X0190520Y0363448D01*
X0191700Y0363448D01*
X0192290Y0364038D01*
X0193555Y0364038D02*
X0193555Y0366988D01*
X0195915Y0366988D02*
X0195915Y0364038D01*
X0195325Y0363448D01*
X0194145Y0363448D01*
X0193555Y0364038D01*
X0191110Y0362858D02*
X0191110Y0367578D01*
X0219848Y0365218D02*
X0222208Y0365218D01*
X0220438Y0366988D01*
X0220438Y0363448D01*
X0223473Y0364038D02*
X0223473Y0364628D01*
X0224063Y0365218D01*
X0225243Y0365218D01*
X0225833Y0365808D01*
X0225833Y0366398D01*
X0225243Y0366988D01*
X0224063Y0366988D01*
X0223473Y0366398D01*
X0224653Y0367578D02*
X0224653Y0362858D01*
X0225243Y0363448D02*
X0224063Y0363448D01*
X0223473Y0364038D01*
X0225243Y0363448D02*
X0225833Y0364038D01*
X0227098Y0364038D02*
X0227098Y0366988D01*
X0229458Y0366988D02*
X0229458Y0364038D01*
X0228868Y0363448D01*
X0227688Y0363448D01*
X0227098Y0364038D01*
X0122021Y0303642D02*
X0120841Y0303642D01*
X0121431Y0303642D02*
X0121431Y0300102D01*
X0122021Y0300102D02*
X0120841Y0300102D01*
X0119604Y0300692D02*
X0119014Y0300102D01*
X0117834Y0300102D01*
X0117244Y0300692D01*
X0115979Y0300102D02*
X0113619Y0302462D01*
X0113619Y0303052D01*
X0114209Y0303642D01*
X0115389Y0303642D01*
X0115979Y0303052D01*
X0117244Y0303052D02*
X0117834Y0303642D01*
X0119014Y0303642D01*
X0119604Y0303052D01*
X0119604Y0300692D01*
X0115979Y0300102D02*
X0113619Y0300102D01*
X0228090Y0153186D02*
X0228090Y0150826D01*
X0228090Y0152006D02*
X0231630Y0152006D01*
X0230450Y0150826D01*
X0231040Y0149561D02*
X0231630Y0148971D01*
X0231630Y0147791D01*
X0231040Y0147201D01*
X0230450Y0147201D01*
X0229860Y0147791D01*
X0229860Y0148971D01*
X0229270Y0149561D01*
X0228680Y0149561D01*
X0228090Y0148971D01*
X0228090Y0147791D01*
X0228680Y0147201D01*
X0228680Y0145936D02*
X0231630Y0145936D01*
X0231630Y0143576D02*
X0228680Y0143576D01*
X0228090Y0144166D01*
X0228090Y0145346D01*
X0228680Y0145936D01*
X0227500Y0148381D02*
X0232220Y0148381D01*
X0203653Y0045858D02*
X0203653Y0043498D01*
X0203653Y0044678D02*
X0207193Y0044678D01*
X0206013Y0043498D01*
X0206603Y0042233D02*
X0207193Y0041643D01*
X0207193Y0040463D01*
X0206603Y0039873D01*
X0204243Y0039873D01*
X0203653Y0040463D01*
X0203653Y0041643D01*
X0204243Y0042233D01*
X0203653Y0038636D02*
X0203653Y0037456D01*
X0203653Y0038046D02*
X0207193Y0038046D01*
X0207193Y0037456D02*
X0207193Y0038636D01*
D13*
X0220224Y0129126D02*
X0223360Y0132262D01*
X0221792Y0132262D02*
X0221792Y0129126D01*
X0223360Y0129126D02*
X0220224Y0132262D01*
X0220224Y0130694D02*
X0223360Y0130694D01*
D14*
X0221127Y0332063D02*
X0232938Y0332063D01*
X0221127Y0332063D02*
X0221127Y0334031D01*
X0217189Y0334031D01*
X0217189Y0332063D01*
X0205378Y0332063D01*
X0199394Y0332063D02*
X0187583Y0332063D01*
X0187583Y0334031D01*
X0183646Y0334031D01*
X0183646Y0332063D01*
X0171835Y0332063D01*
X0166205Y0332063D02*
X0154394Y0332063D01*
X0154394Y0334031D01*
X0150457Y0334031D01*
X0150457Y0332063D01*
X0138646Y0332063D01*
X0133016Y0332063D02*
X0121205Y0332063D01*
X0121205Y0334031D01*
X0117268Y0334031D01*
X0117268Y0332063D01*
X0105457Y0332063D01*
X0099906Y0332063D02*
X0088095Y0332063D01*
X0088095Y0334031D01*
X0084158Y0334031D01*
X0084158Y0332063D01*
X0072347Y0332063D01*
X0066323Y0332063D02*
X0054512Y0332063D01*
X0054512Y0334031D01*
X0050575Y0334031D01*
X0050575Y0332063D01*
X0038764Y0332063D01*
X0038764Y0363559D02*
X0050575Y0363559D01*
X0050575Y0361591D01*
X0054512Y0361591D01*
X0054512Y0363559D01*
X0066323Y0363559D01*
X0072347Y0363559D02*
X0084158Y0363559D01*
X0084158Y0361591D01*
X0088095Y0361591D01*
X0088095Y0363559D01*
X0099906Y0363559D01*
X0105457Y0363559D02*
X0117268Y0363559D01*
X0117268Y0361591D01*
X0121205Y0361591D01*
X0121205Y0363559D01*
X0133016Y0363559D01*
X0138646Y0363559D02*
X0150457Y0363559D01*
X0150457Y0361591D01*
X0154394Y0361591D01*
X0154394Y0363559D01*
X0166205Y0363559D01*
X0171835Y0363559D02*
X0183646Y0363559D01*
X0183646Y0361591D01*
X0187583Y0361591D01*
X0187583Y0363559D01*
X0199394Y0363559D01*
X0205378Y0363559D02*
X0217189Y0363559D01*
X0217189Y0361591D01*
X0221127Y0361591D01*
X0221127Y0363559D01*
X0232938Y0363559D01*
D15*
X0203312Y0348048D02*
X0202578Y0348782D01*
X0201110Y0348782D01*
X0201110Y0349524D02*
X0202578Y0349524D01*
X0202578Y0350258D02*
X0202578Y0350625D01*
X0202578Y0350258D02*
X0201844Y0349524D01*
X0202211Y0348782D02*
X0202211Y0347314D01*
X0202578Y0347314D02*
X0203312Y0348048D01*
X0202578Y0347314D02*
X0201110Y0347314D01*
X0201110Y0344362D02*
X0201110Y0343261D01*
X0201477Y0342894D01*
X0202211Y0342894D01*
X0202578Y0343261D01*
X0202578Y0344362D01*
X0200743Y0344362D01*
X0200376Y0343995D01*
X0200376Y0343628D01*
X0201110Y0342152D02*
X0202211Y0342152D01*
X0202578Y0341785D01*
X0202578Y0340684D01*
X0201110Y0340684D01*
X0201110Y0339945D02*
X0201110Y0339211D01*
X0201110Y0339578D02*
X0202578Y0339578D01*
X0202578Y0339211D01*
X0202578Y0338470D02*
X0201844Y0337369D01*
X0201110Y0338470D01*
X0201110Y0337369D02*
X0203312Y0337369D01*
X0202578Y0336629D02*
X0202578Y0336262D01*
X0201844Y0335528D01*
X0201110Y0335528D02*
X0202578Y0335528D01*
X0202211Y0334786D02*
X0201110Y0334786D01*
X0201110Y0333685D01*
X0201477Y0333318D01*
X0201844Y0333685D01*
X0201844Y0334786D01*
X0202211Y0334786D02*
X0202578Y0334419D01*
X0202578Y0333685D01*
X0203312Y0332576D02*
X0201110Y0332576D01*
X0201110Y0331108D02*
X0203312Y0331108D01*
X0202578Y0331842D01*
X0203312Y0332576D01*
X0203312Y0339578D02*
X0203679Y0339578D01*
X0202211Y0351365D02*
X0202578Y0351732D01*
X0202578Y0352466D01*
X0202211Y0352833D01*
X0201844Y0352833D01*
X0201844Y0351365D01*
X0201477Y0351365D02*
X0202211Y0351365D01*
X0201477Y0351365D02*
X0201110Y0351732D01*
X0201110Y0352466D01*
X0201477Y0353575D02*
X0201844Y0353942D01*
X0201844Y0355043D01*
X0202211Y0355043D02*
X0201110Y0355043D01*
X0201110Y0353942D01*
X0201477Y0353575D01*
X0202578Y0353942D02*
X0202578Y0354676D01*
X0202211Y0355043D01*
X0169769Y0348048D02*
X0169035Y0348782D01*
X0167567Y0348782D01*
X0167567Y0349524D02*
X0169035Y0349524D01*
X0169035Y0350258D02*
X0169035Y0350625D01*
X0169035Y0350258D02*
X0168301Y0349524D01*
X0168668Y0348782D02*
X0168668Y0347314D01*
X0169035Y0347314D02*
X0169769Y0348048D01*
X0169035Y0347314D02*
X0167567Y0347314D01*
X0167567Y0344362D02*
X0167567Y0343261D01*
X0167934Y0342894D01*
X0168668Y0342894D01*
X0169035Y0343261D01*
X0169035Y0344362D01*
X0167200Y0344362D01*
X0166833Y0343995D01*
X0166833Y0343628D01*
X0167567Y0342152D02*
X0168668Y0342152D01*
X0169035Y0341785D01*
X0169035Y0340684D01*
X0167567Y0340684D01*
X0167567Y0339945D02*
X0167567Y0339211D01*
X0167567Y0339578D02*
X0169035Y0339578D01*
X0169035Y0339211D01*
X0169035Y0338470D02*
X0168301Y0337369D01*
X0167567Y0338470D01*
X0167567Y0337369D02*
X0169769Y0337369D01*
X0169035Y0336629D02*
X0169035Y0336262D01*
X0168301Y0335528D01*
X0167567Y0335528D02*
X0169035Y0335528D01*
X0168668Y0334786D02*
X0167567Y0334786D01*
X0167567Y0333685D01*
X0167934Y0333318D01*
X0168301Y0333685D01*
X0168301Y0334786D01*
X0168668Y0334786D02*
X0169035Y0334419D01*
X0169035Y0333685D01*
X0169769Y0332576D02*
X0167567Y0332576D01*
X0167567Y0331108D02*
X0169769Y0331108D01*
X0169035Y0331842D01*
X0169769Y0332576D01*
X0169769Y0339578D02*
X0170136Y0339578D01*
X0168668Y0351365D02*
X0169035Y0351732D01*
X0169035Y0352466D01*
X0168668Y0352833D01*
X0168301Y0352833D01*
X0168301Y0351365D01*
X0167934Y0351365D02*
X0168668Y0351365D01*
X0167934Y0351365D02*
X0167567Y0351732D01*
X0167567Y0352466D01*
X0167934Y0353575D02*
X0168301Y0353942D01*
X0168301Y0355043D01*
X0168668Y0355043D02*
X0167567Y0355043D01*
X0167567Y0353942D01*
X0167934Y0353575D01*
X0169035Y0353942D02*
X0169035Y0354676D01*
X0168668Y0355043D01*
X0136580Y0348048D02*
X0135846Y0348782D01*
X0134378Y0348782D01*
X0134378Y0349524D02*
X0135846Y0349524D01*
X0135846Y0350258D02*
X0135846Y0350625D01*
X0135846Y0350258D02*
X0135112Y0349524D01*
X0135479Y0348782D02*
X0135479Y0347314D01*
X0135846Y0347314D02*
X0136580Y0348048D01*
X0135846Y0347314D02*
X0134378Y0347314D01*
X0134378Y0344362D02*
X0134378Y0343261D01*
X0134745Y0342894D01*
X0135479Y0342894D01*
X0135846Y0343261D01*
X0135846Y0344362D01*
X0134011Y0344362D01*
X0133644Y0343995D01*
X0133644Y0343628D01*
X0134378Y0342152D02*
X0135479Y0342152D01*
X0135846Y0341785D01*
X0135846Y0340684D01*
X0134378Y0340684D01*
X0134378Y0339945D02*
X0134378Y0339211D01*
X0134378Y0339578D02*
X0135846Y0339578D01*
X0135846Y0339211D01*
X0135846Y0338470D02*
X0135112Y0337369D01*
X0134378Y0338470D01*
X0134378Y0337369D02*
X0136580Y0337369D01*
X0135846Y0336629D02*
X0135846Y0336262D01*
X0135112Y0335528D01*
X0134378Y0335528D02*
X0135846Y0335528D01*
X0135479Y0334786D02*
X0134378Y0334786D01*
X0134378Y0333685D01*
X0134745Y0333318D01*
X0135112Y0333685D01*
X0135112Y0334786D01*
X0135479Y0334786D02*
X0135846Y0334419D01*
X0135846Y0333685D01*
X0136580Y0332576D02*
X0134378Y0332576D01*
X0134378Y0331108D02*
X0136580Y0331108D01*
X0135846Y0331842D01*
X0136580Y0332576D01*
X0136580Y0339578D02*
X0136947Y0339578D01*
X0135479Y0351365D02*
X0135846Y0351732D01*
X0135846Y0352466D01*
X0135479Y0352833D01*
X0135112Y0352833D01*
X0135112Y0351365D01*
X0134745Y0351365D02*
X0135479Y0351365D01*
X0134745Y0351365D02*
X0134378Y0351732D01*
X0134378Y0352466D01*
X0134745Y0353575D02*
X0135112Y0353942D01*
X0135112Y0355043D01*
X0135479Y0355043D02*
X0134378Y0355043D01*
X0134378Y0353942D01*
X0134745Y0353575D01*
X0135846Y0353942D02*
X0135846Y0354676D01*
X0135479Y0355043D01*
X0102657Y0354676D02*
X0102290Y0355043D01*
X0101189Y0355043D01*
X0101189Y0353942D01*
X0101556Y0353575D01*
X0101923Y0353942D01*
X0101923Y0355043D01*
X0102657Y0354676D02*
X0102657Y0353942D01*
X0102290Y0352833D02*
X0102657Y0352466D01*
X0102657Y0351732D01*
X0102290Y0351365D01*
X0101556Y0351365D01*
X0101189Y0351732D01*
X0101189Y0352466D01*
X0101923Y0352833D02*
X0101923Y0351365D01*
X0102657Y0350625D02*
X0102657Y0350258D01*
X0101923Y0349524D01*
X0101189Y0349524D02*
X0102657Y0349524D01*
X0102657Y0348782D02*
X0101189Y0348782D01*
X0102290Y0348782D02*
X0102290Y0347314D01*
X0102657Y0347314D02*
X0101189Y0347314D01*
X0102657Y0347314D02*
X0103391Y0348048D01*
X0102657Y0348782D01*
X0102290Y0352833D02*
X0101923Y0352833D01*
X0102657Y0344362D02*
X0100822Y0344362D01*
X0100455Y0343995D01*
X0100455Y0343628D01*
X0101189Y0343261D02*
X0101189Y0344362D01*
X0101189Y0343261D02*
X0101556Y0342894D01*
X0102290Y0342894D01*
X0102657Y0343261D01*
X0102657Y0344362D01*
X0102290Y0342152D02*
X0101189Y0342152D01*
X0102290Y0342152D02*
X0102657Y0341785D01*
X0102657Y0340684D01*
X0101189Y0340684D01*
X0101189Y0339945D02*
X0101189Y0339211D01*
X0101189Y0339578D02*
X0102657Y0339578D01*
X0102657Y0339211D01*
X0102657Y0338470D02*
X0101923Y0337369D01*
X0101189Y0338470D01*
X0101189Y0337369D02*
X0103391Y0337369D01*
X0102657Y0336629D02*
X0102657Y0336262D01*
X0101923Y0335528D01*
X0101189Y0335528D02*
X0102657Y0335528D01*
X0102290Y0334786D02*
X0102657Y0334419D01*
X0102657Y0333685D01*
X0101923Y0333685D02*
X0101923Y0334786D01*
X0102290Y0334786D02*
X0101189Y0334786D01*
X0101189Y0333685D01*
X0101556Y0333318D01*
X0101923Y0333685D01*
X0101189Y0332576D02*
X0103391Y0332576D01*
X0102657Y0331842D01*
X0103391Y0331108D01*
X0101189Y0331108D01*
X0103391Y0339578D02*
X0103758Y0339578D01*
X0070647Y0339578D02*
X0070280Y0339578D01*
X0069546Y0339578D02*
X0068078Y0339578D01*
X0068078Y0339211D02*
X0068078Y0339945D01*
X0068078Y0340684D02*
X0069546Y0340684D01*
X0069546Y0341785D01*
X0069179Y0342152D01*
X0068078Y0342152D01*
X0068445Y0342894D02*
X0068078Y0343261D01*
X0068078Y0344362D01*
X0067711Y0344362D02*
X0069546Y0344362D01*
X0069546Y0343261D01*
X0069179Y0342894D01*
X0068445Y0342894D01*
X0067345Y0343628D02*
X0067345Y0343995D01*
X0067711Y0344362D01*
X0068078Y0347314D02*
X0069546Y0347314D01*
X0070280Y0348048D01*
X0069546Y0348782D01*
X0068078Y0348782D01*
X0068078Y0349524D02*
X0069546Y0349524D01*
X0068812Y0349524D02*
X0069546Y0350258D01*
X0069546Y0350625D01*
X0069179Y0351365D02*
X0069546Y0351732D01*
X0069546Y0352466D01*
X0069179Y0352833D01*
X0068812Y0352833D01*
X0068812Y0351365D01*
X0068445Y0351365D02*
X0069179Y0351365D01*
X0068445Y0351365D02*
X0068078Y0351732D01*
X0068078Y0352466D01*
X0068445Y0353575D02*
X0068812Y0353942D01*
X0068812Y0355043D01*
X0069179Y0355043D02*
X0068078Y0355043D01*
X0068078Y0353942D01*
X0068445Y0353575D01*
X0069546Y0353942D02*
X0069546Y0354676D01*
X0069179Y0355043D01*
X0069179Y0348782D02*
X0069179Y0347314D01*
X0069546Y0339578D02*
X0069546Y0339211D01*
X0069546Y0338470D02*
X0068812Y0337369D01*
X0068078Y0338470D01*
X0068078Y0337369D02*
X0070280Y0337369D01*
X0069546Y0336629D02*
X0069546Y0336262D01*
X0068812Y0335528D01*
X0068078Y0335528D02*
X0069546Y0335528D01*
X0069179Y0334786D02*
X0068078Y0334786D01*
X0068078Y0333685D01*
X0068445Y0333318D01*
X0068812Y0333685D01*
X0068812Y0334786D01*
X0069179Y0334786D02*
X0069546Y0334419D01*
X0069546Y0333685D01*
X0070280Y0332576D02*
X0068078Y0332576D01*
X0068078Y0331108D02*
X0070280Y0331108D01*
X0069546Y0331842D01*
X0070280Y0332576D01*
X0036698Y0332576D02*
X0035964Y0331842D01*
X0036698Y0331108D01*
X0034496Y0331108D01*
X0034496Y0332576D02*
X0036698Y0332576D01*
X0035964Y0333685D02*
X0035964Y0334419D01*
X0035597Y0334786D01*
X0034496Y0334786D01*
X0034496Y0333685D01*
X0034863Y0333318D01*
X0035230Y0333685D01*
X0035230Y0334786D01*
X0035230Y0335528D02*
X0035964Y0336262D01*
X0035964Y0336629D01*
X0036698Y0337369D02*
X0034496Y0337369D01*
X0035230Y0337369D02*
X0035964Y0338470D01*
X0035964Y0339211D02*
X0035964Y0339578D01*
X0034496Y0339578D01*
X0034496Y0339211D02*
X0034496Y0339945D01*
X0034496Y0340684D02*
X0035964Y0340684D01*
X0035964Y0341785D01*
X0035597Y0342152D01*
X0034496Y0342152D01*
X0034863Y0342894D02*
X0034496Y0343261D01*
X0034496Y0344362D01*
X0034129Y0344362D02*
X0035964Y0344362D01*
X0035964Y0343261D01*
X0035597Y0342894D01*
X0034863Y0342894D01*
X0033762Y0343628D02*
X0033762Y0343995D01*
X0034129Y0344362D01*
X0034496Y0347314D02*
X0035964Y0347314D01*
X0036698Y0348048D01*
X0035964Y0348782D01*
X0034496Y0348782D01*
X0034496Y0349524D02*
X0035964Y0349524D01*
X0035964Y0350258D02*
X0035964Y0350625D01*
X0035964Y0350258D02*
X0035230Y0349524D01*
X0035597Y0348782D02*
X0035597Y0347314D01*
X0035597Y0351365D02*
X0035964Y0351732D01*
X0035964Y0352466D01*
X0035597Y0352833D01*
X0035230Y0352833D01*
X0035230Y0351365D01*
X0034863Y0351365D02*
X0035597Y0351365D01*
X0034863Y0351365D02*
X0034496Y0351732D01*
X0034496Y0352466D01*
X0034863Y0353575D02*
X0035230Y0353942D01*
X0035230Y0355043D01*
X0035597Y0355043D02*
X0034496Y0355043D01*
X0034496Y0353942D01*
X0034863Y0353575D01*
X0035964Y0353942D02*
X0035964Y0354676D01*
X0035597Y0355043D01*
X0036698Y0339578D02*
X0037065Y0339578D01*
X0034496Y0338470D02*
X0035230Y0337369D01*
X0034496Y0335528D02*
X0035964Y0335528D01*
M02*
